<?xml version="1.0" standalone="no"?>
<!DOCTYPE svg PUBLIC "-//W3C//DTD SVG 1.1//EN" "http://www.w3.org/Graphics/SVG/1.1/DTD/svg11.dtd" >
<svg>
<metadata>
Created by FontForge 20090622 at Tue Jul 14 11:26:11 2015
 By deploy user
Copyright &#194;&#169; 2000 Adobe Systems Incorporated. All Rights Reserved. U.S. Patent Des. pending.
</metadata>
<defs>
<font id="MyriadPro-Black" horiz-adv-x="300" >
  <font-face 
    font-family="Myriad Pro Black"
    font-weight="900"
    font-stretch="normal"
    units-per-em="1000"
    panose-1="2 11 8 3 3 4 3 2 2 4"
    ascent="750"
    descent="-250"
    x-height="492"
    cap-height="674"
    bbox="-116 -251 1313 905"
    underline-thickness="50"
    underline-position="-50"
    unicode-range="U+0020-U+FB04"
  />
<missing-glyph horiz-adv-x="500" 
d="M0 0v700h500v-700h-500zM250 395l170 255h-340zM280 350l170 -255v510zM80 50h340l-170 255zM50 605v-510l170 255z" />
    <glyph glyph-name="f_f_j" unicode="ffj" horiz-adv-x="920" 
d="M815 697l-35 -135q-47 17 -101 17q-103 0 -103 -73v-14h305v-426q0 -155 -74 -220q-71 -62 -206 -62l-16 140q61 5 86 30q16 16 22.5 49t6.5 101v256h-122v-360h-181v360h-139v-360h-181v360h-63v132h63v4q0 99 65 157q59 54 156 54q41 0 85 -14l-38 -129q-18 6 -35 6
q-21 0 -37 -14q-17 -16 -17 -52v-12h141v18q0 100 76.5 155.5t198.5 55.5q87 0 143 -24z" />
    <glyph glyph-name="f_j" unicode="fj" horiz-adv-x="613" 
d="M258 0h-181v360h-63v132h63v18q0 100 76.5 155.5t198.5 55.5q102 0 153 -30l-31 -135q-48 23 -115 23q-103 0 -103 -73v-14h305v-426q0 -155 -74 -220q-71 -62 -206 -62l-16 140q61 5 86 30q16 16 22.5 49t6.5 101v256h-122v-360z" />
    <glyph glyph-name="ff" unicode="ff" horiz-adv-x="679" 
d="M574 0h-181v360h-135v-360h-181v360h-63v132h63v4q0 96 57 153q56 58 162 58q32 0 62 -10l-22 -133q-18 5 -33 5q-47 0 -47 -65v-12h137v16q0 45 16 89t48 73q55 51 143 51q42 0 83 -9l-3 -138q-23 5 -46 5q-29 0 -45.5 -18t-16.5 -45v-24h90v-132h-88v-360z" />
    <glyph glyph-name="fi" unicode="fi" horiz-adv-x="616" 
d="M258 0h-181v360h-63v132h63v18q0 100 76.5 155.5t198.5 55.5q102 0 153 -30l-31 -135q-48 23 -115 23q-103 0 -103 -73v-14h305v-492h-181v360h-122v-360z" />
    <glyph glyph-name="fl" unicode="fl" horiz-adv-x="616" 
d="M258 0h-181v360h-63v132h63v21q0 39 21 81t56 70q74 57 199 57q123 0 208 -45v-676h-181v579q-15 9 -51 9t-54.5 -21.5t-18.5 -57.5v-17h78v-132h-76v-360z" />
    <glyph glyph-name="ffi" unicode="ffi" horiz-adv-x="936" 
d="M815 697l-35 -135q-47 17 -101 17q-103 0 -103 -73v-14h305v-492h-181v360h-122v-360h-181v360h-139v-360h-181v360h-63v132h63v4q0 99 65 157q59 54 156 54q41 0 85 -14l-38 -129q-18 6 -35 6q-21 0 -37 -14q-17 -16 -17 -52v-12h141v18q0 100 76.5 155.5t198.5 55.5
q87 0 143 -24z" />
    <glyph glyph-name="ffl" unicode="ffl" horiz-adv-x="936" 
d="M386 696l-35 -132q-17 6 -39 6q-26 0 -38 -14q-18 -17 -18 -52v-12h141v21q0 39 21 81t56 70q74 57 199 57q123 0 208 -45v-676h-181v579q-15 9 -51 9t-54.5 -21.5t-18.5 -57.5v-17h78v-132h-76v-360h-181v360h-139v-360h-181v360h-63v132h63v4q0 97 64 153q64 58 171 58
q37 0 74 -11z" />
    <glyph glyph-name=".notdef" horiz-adv-x="500" 
d="M0 0v700h500v-700h-500zM250 395l170 255h-340zM280 350l170 -255v510zM80 50h340l-170 255zM50 605v-510l170 255z" />
    <glyph glyph-name=".null" horiz-adv-x="0" 
 />
    <glyph glyph-name="nonmarkingreturn" horiz-adv-x="333" 
 />
    <glyph glyph-name="space" unicode=" " horiz-adv-x="198" 
 />
    <glyph glyph-name="space" unicode="&#xa0;" horiz-adv-x="198" 
 />
    <glyph glyph-name="exclam" unicode="!" horiz-adv-x="284" 
d="M209 233h-134l-26 441h186zM142 -11h-1q-45 0 -73.5 29t-28.5 74q0 46 28.5 75t73.5 29q46 0 74 -28.5t29 -75.5q0 -45 -28.5 -74t-73.5 -29z" />
    <glyph glyph-name="quotedbl" unicode="&#x22;" horiz-adv-x="423" 
d="M29 693h156l-26 -285h-104zM239 693h156l-26 -285h-104z" />
    <glyph glyph-name="numbersign" unicode="#" horiz-adv-x="573" 
d="M239 278h85l15 98h-86zM195 0h-103l26 171h-81v107h100l15 98h-84v107h100l25 167h102l-26 -167h87l25 167h102l-25 -167h79v-107h-96l-15 -98h81v-107h-99l-25 -171h-103l26 171h-86z" />
    <glyph glyph-name="dollar" unicode="$" horiz-adv-x="573" 
d="M342 -88h-114v93q-104 4 -177 42l33 139q90 -44 175 -44q86 0 86 46q0 23 -23.5 39.5t-80.5 33.5q-89 29 -137 72.5t-48 114.5q0 69 46.5 119t130.5 67v92h114v-84q85 -4 151 -32l-32 -133q-83 34 -151 34q-77 0 -77 -43q0 -18 26.5 -34.5t91.5 -39.5q93 -30 132.5 -74.5
t39.5 -114.5q0 -71 -49 -123.5t-137 -67.5v-102z" />
    <glyph glyph-name="percent" unicode="%" horiz-adv-x="919" 
d="M218 661h1q87 0 136 -55t49 -138q0 -97 -56 -152.5t-135 -55.5q-81 0 -134 54.5t-53 141.5t52 146t140 59zM216 565h-1q-57 0 -57 -105q0 -104 59 -104q55 0 55 104q0 105 -56 105zM320 -11h-93l370 670h92zM706 391h1q87 0 136 -55t49 -138q0 -97 -56 -152.5t-135 -55.5
q-81 0 -134 54.5t-53 142.5q0 86 52 145t140 59zM704 295h-1q-57 0 -57 -105q0 -104 59 -104q55 0 55 105q0 104 -56 104z" />
    <glyph glyph-name="ampersand" unicode="&#x26;" horiz-adv-x="710" 
d="M702 0h-207q-26 26 -37 41q-71 -52 -180 -52q-123 0 -185 57t-62 134q0 128 127 193v3q-21 21 -35.5 55.5t-14.5 69.5q0 72 57.5 128t159.5 56q86 0 141.5 -45t55.5 -120q0 -106 -127 -170v-4l40 -45.5t49 -53.5q41 63 55 150h159q-29 -165 -118 -259q93 -107 122 -138z
M302 119h1q45 0 72 22q-31 29 -136 145q-38 -30 -38 -75q0 -38 27.5 -65t73.5 -27zM320 574h-1q-23 0 -36.5 -17t-13.5 -39q0 -42 44 -86q57 43 57 84q0 23 -13.5 40.5t-36.5 17.5z" />
    <glyph glyph-name="quotesingle" unicode="'" horiz-adv-x="213" 
d="M29 693h156l-26 -285h-104z" />
    <glyph glyph-name="parenleft" unicode="(" horiz-adv-x="328" 
d="M164 690h122q-90 -165 -90 -403q0 -235 90 -402h-122q-107 166 -107 402q1 241 107 403z" />
    <glyph glyph-name="parenright" unicode=")" horiz-adv-x="328" 
d="M163 -115h-122q90 165 90 403q0 237 -90 402h122q107 -164 107 -402q-1 -237 -107 -403z" />
    <glyph glyph-name="asterisk" unicode="*" horiz-adv-x="471" 
d="M292 685l99 -57l-113 -128l1 -3l163 38v-115l-165 30l-1 -2l115 -125l-100 -58l-57 161l-2 -1l-54 -160l-99 58l113 127l-1 1l-161 -31v115l159 -38l1 3l-111 128l101 57l53 -159h3z" />
    <glyph glyph-name="plus" unicode="+" horiz-adv-x="596" 
d="M242 532h113v-211h202v-108h-202v-213h-113v213h-202v108h202v211z" />
    <glyph glyph-name="comma" unicode="," horiz-adv-x="283" 
d="M114 -108l-119 -10q55 156 79 304l179 10q-58 -171 -139 -304z" />
    <glyph glyph-name="hyphen" unicode="-" horiz-adv-x="328" 
d="M30 318h268v-117h-268v117z" />
    <glyph glyph-name="hyphen" unicode="&#xad;" horiz-adv-x="328" 
d="M30 318h268v-117h-268v117z" />
    <glyph glyph-name="period" unicode="." horiz-adv-x="283" 
d="M152 -11h-1q-45 0 -73.5 29.5t-28.5 75.5t29 75.5t74 29.5q46 0 74 -29t29 -76q0 -47 -28.5 -76t-74.5 -29z" />
    <glyph glyph-name="slash" unicode="/" horiz-adv-x="326" 
d="M139 -40h-115l186 725h115z" />
    <glyph glyph-name="zero" unicode="0" horiz-adv-x="573" 
d="M287 -11h-1q-67 0 -118 28t-80 76t-43 106t-14 125q0 68 14.5 127t44.5 107t80.5 75.5t116.5 27.5q68 0 119.5 -28.5t80 -77.5t42 -106t13.5 -123q0 -151 -65 -244t-190 -93zM287 124h1q74 0 74 201q0 200 -75 200q-76 0 -76 -200q-1 -201 76 -201z" />
    <glyph glyph-name="one" unicode="1" horiz-adv-x="573" 
d="M236 0v491h-2l-128 -58l-29 135l186 82h147v-650h-174z" />
    <glyph glyph-name="two" unicode="2" horiz-adv-x="573" 
d="M522 0h-481v109l90 79q108 93 153.5 147t46.5 101q0 37 -24.5 59t-72.5 22q-66 0 -139 -53l-49 129q92 68 224 68q113 0 177 -56.5t64 -153.5q0 -127 -151 -251l-64 -50v-2h226v-148z" />
    <glyph glyph-name="three" unicode="3" horiz-adv-x="573" 
d="M36 35l34 135q78 -39 155 -39q49 0 77.5 17.5t28.5 51.5q0 38 -33 58t-81 20h-68v128h64q40 0 71 14t31 45q0 25 -23 40t-64 15q-70 0 -139 -37l-34 129q33 20 91.5 34.5t122.5 14.5q105 0 167 -46.5t62 -118.5q0 -108 -119 -150v-2q60 -10 99.5 -52t39.5 -102
q0 -90 -76 -145.5t-202 -55.5q-129 0 -204 46z" />
    <glyph glyph-name="four" unicode="4" horiz-adv-x="573" 
d="M479 0h-170v146h-282v117l226 387h226v-370h72v-134h-72v-146zM191 280h118v111q0 15 5 130h-4q-58 -122 -63 -131l-55 -108z" />
    <glyph glyph-name="five" unicode="5" horiz-adv-x="573" 
d="M494 650v-148h-254l-9 -70q14 2 37 2q116 0 185 -52q73 -55 73 -162q0 -95 -79.5 -163t-215.5 -68q-117 0 -189 36l30 135q64 -31 149 -31q48 0 84 19.5t36 61.5q0 92 -181 92q-45 0 -87 -6l43 354h378z" />
    <glyph glyph-name="six" unicode="6" horiz-adv-x="573" 
d="M475 658v-137q-24 1 -57 0q-172 -8 -205 -123h3q48 41 129 41q84 0 143.5 -56.5t59.5 -156.5t-71 -168.5t-178 -68.5q-133 0 -201.5 83t-68.5 204q0 88 31 163t86 125q106 92 268 95q24 2 61 -1zM296 120h1q32 0 50.5 27.5t18.5 69.5q0 39 -20 67.5t-60 28.5
q-25 0 -45 -13.5t-29 -34.5q-5 -10 -5 -38q3 -45 25.5 -76t63.5 -31z" />
    <glyph glyph-name="seven" unicode="7" horiz-adv-x="573" 
d="M46 650h480v-112l-261 -538h-192l262 500v2h-289v148z" />
    <glyph glyph-name="eight" unicode="8" horiz-adv-x="573" 
d="M290 661h1q114 0 171 -51.5t57 -118.5q0 -43 -23.5 -80.5t-66.5 -59.5v-2q48 -18 81.5 -58.5t33.5 -100.5q0 -91 -70.5 -146t-191.5 -55q-124 0 -188 55t-64 127q0 110 110 159v2q-90 50 -90 142q0 84 68 135.5t172 51.5zM288 111h1q31 0 51 19t20 48q0 34 -23.5 58
t-60.5 33q-29 -7 -45.5 -28.5t-16.5 -51.5q0 -31 21 -54.5t53 -23.5zM285 541h-1q-31 0 -47.5 -18t-16.5 -45q0 -24 22 -43.5t56 -30.5q20 5 36 24.5t16 42.5q0 29 -16.5 49.5t-48.5 20.5z" />
    <glyph glyph-name="nine" unicode="9" horiz-adv-x="573" 
d="M87 -8v138q23 -2 64 -1q74 2 125 30q61 35 80 98l-2 1q-40 -37 -121 -37q-85 0 -146 54.5t-61 149.5q0 99 72.5 167.5t182.5 68.5q128 0 193.5 -81.5t65.5 -200.5q0 -195 -114 -297q-99 -89 -275 -92q-19 -1 -64 2zM277 531h-1q-31 0 -51.5 -26t-19.5 -68q0 -38 19.5 -64
t58.5 -26q47 0 66 31q7 14 7 41q1 45 -18.5 78.5t-60.5 33.5z" />
    <glyph glyph-name="colon" unicode=":" horiz-adv-x="283" 
d="M152 299h-1q-45 0 -73 29.5t-28 74.5t28.5 74.5t73.5 29.5q46 0 73.5 -28.5t28.5 -75.5q0 -46 -28 -75t-74 -29zM152 -11h-1q-45 0 -73 29.5t-28 74.5t28.5 74.5t73.5 29.5q46 0 73.5 -28.5t28.5 -75.5q0 -46 -28 -75t-74 -29z" />
    <glyph glyph-name="semicolon" unicode=";" horiz-adv-x="283" 
d="M113 -108l-117 -10q55 159 78 304l178 10q-58 -171 -139 -304zM156 299h-1q-45 0 -73 29.5t-28 74.5t28.5 74.5t73.5 29.5q46 0 73.5 -28.5t28.5 -75.5q0 -46 -28 -75t-74 -29z" />
    <glyph glyph-name="less" unicode="&#x3c;" horiz-adv-x="596" 
d="M54 216v99l488 216v-122l-352 -143v-2l352 -142v-122z" />
    <glyph glyph-name="equal" unicode="=" horiz-adv-x="596" 
d="M556 319h-516v108h516v-108zM556 107h-516v108h516v-108z" />
    <glyph glyph-name="greater" unicode="&#x3e;" horiz-adv-x="596" 
d="M542 319v-108l-488 -211v121l362 143v2l-362 144v121z" />
    <glyph glyph-name="question" unicode="?" horiz-adv-x="463" 
d="M294 231h-158v26q-3 79 57 149q19 22 27 32.5t17 27.5t9 31q0 47 -62 48q-57 0 -99 -29l-38 129q76 41 177 41q100 0 152 -45.5t52 -113.5q0 -13 -1.5 -25.5t-5.5 -24.5l-7 -21t-11 -20.5t-11 -17t-13 -17l-12.5 -14.5t-13 -14.5t-11.5 -12.5q-47 -51 -48 -114v-15z
M212 -11h-1q-45 0 -73.5 29t-28.5 74q0 46 28.5 75t73.5 29q46 0 74 -28.5t29 -75.5q0 -45 -28.5 -74t-73.5 -29z" />
    <glyph glyph-name="at" unicode="@" horiz-adv-x="784" 
d="M440 248l12 86q-12 3 -23 3q-42 0 -70.5 -37t-28.5 -88q0 -55 42 -55q22 0 42 25.5t26 65.5zM537 -6l18 -64q-81 -34 -185 -34q-130 0 -223 87t-93 229q0 157 106.5 268.5t271.5 111.5q133 0 220 -82t87 -208q0 -107 -54.5 -172.5t-140.5 -65.5q-79 0 -91 73h-2
q-45 -73 -123 -73q-51 0 -82.5 36t-31.5 97q0 95 63.5 162.5t168.5 67.5q79 0 124 -26l-28 -187q-6 -37 -0.5 -55.5t24.5 -19.5q34 -2 62.5 40.5t28.5 121.5q0 97 -62.5 160t-174.5 63q-116 0 -198.5 -83t-82.5 -218q0 -123 70 -190.5t185 -67.5q82 0 143 29z" />
    <glyph glyph-name="A" unicode="A" horiz-adv-x="675" 
d="M413 156h-174l-38 -156h-187l196 674h240l201 -674h-195zM263 289h125l-31 121q-6 22 -18.5 73.5l-14.5 59.5h-2q-5 -19 -15 -66t-15 -67z" />
    <glyph glyph-name="B" unicode="B" horiz-adv-x="631" 
d="M62 4v660q77 15 213 15q140 0 206 -33q91 -43 91 -139q0 -99 -110 -141v-2q62 -17 97 -60.5t35 -103.5q0 -91 -76 -148q-79 -60 -278 -60q-116 0 -178 12zM241 545v-130h36q114 0 114 70q0 30 -23 47t-68 17q-35 0 -59 -4zM241 287v-161q13 -2 52 -2q49 0 80 21t31 63
q0 79 -120 79h-43z" />
    <glyph glyph-name="C" unicode="C" horiz-adv-x="602" 
d="M541 159l25 -141q-54 -28 -169 -28q-92 0 -163 27t-113.5 74t-64.5 106.5t-22 128.5q0 114 52.5 197t136 122t186.5 39q110 0 168 -29l-35 -143q-58 24 -125 24q-83 0 -138 -50.5t-55 -147.5q0 -92 52 -145t145 -53q72 0 120 19z" />
    <glyph glyph-name="D" unicode="D" horiz-adv-x="710" 
d="M62 4v660q87 15 215 15q181 0 277 -67q122 -84 122 -259q0 -186 -117 -278q-106 -83 -317 -83q-110 0 -180 12zM243 537v-403q9 -2 38 -2q93 -2 148.5 52t55.5 163q0 95 -51 144.5t-136 49.5q-37 0 -55 -4z" />
    <glyph glyph-name="E" unicode="E" horiz-adv-x="552" 
d="M485 418v-146h-242v-124h271v-148h-452v674h438v-148h-257v-108h242z" />
    <glyph glyph-name="F" unicode="F" horiz-adv-x="545" 
d="M62 0v674h433v-148h-252v-124h237v-146h-237v-256h-181z" />
    <glyph glyph-name="G" unicode="G" horiz-adv-x="697" 
d="M646 400v-369q-114 -38 -233 -38q-187 0 -283 91t-96 243q1 170 112 262t282 92q127 0 195 -33l-36 -145q-65 29 -160 29q-89 0 -146 -48.5t-57 -146.5q0 -93 53 -146t138 -53q44 0 57 6v116h-90v140h264z" />
    <glyph glyph-name="H" unicode="H" horiz-adv-x="705" 
d="M62 674h181v-250h219v250h181v-674h-181v266h-219v-266h-181v674z" />
    <glyph glyph-name="I" unicode="I" horiz-adv-x="305" 
d="M62 674h181v-674h-181v674z" />
    <glyph glyph-name="J" unicode="J" horiz-adv-x="429" 
d="M191 258v416h181v-416q0 -142 -65 -205.5t-191 -63.5q-71 0 -119 16l19 145q40 -11 79 -11q47 0 71.5 26.5t24.5 92.5z" />
    <glyph glyph-name="K" unicode="K" horiz-adv-x="646" 
d="M62 0v674h179v-286h2l43 74l130 212h222l-214 -287l222 -387h-209l-142 273l-54 -69v-204h-179z" />
    <glyph glyph-name="L" unicode="L" horiz-adv-x="528" 
d="M62 0v674h181v-523h259v-151h-440z" />
    <glyph glyph-name="M" unicode="M" horiz-adv-x="865" 
d="M641 0l-8 242q-4 101 -4 271h-3q-29 -122 -71 -264l-67 -235h-141l-56 235q-27 106 -54 264h-2l-5.5 -147.5t-4.5 -123.5l-11 -242h-166l42 674h243l44 -182q33 -128 53 -246h3q41 177 61 248l51 180h237l34 -674h-175z" />
    <glyph glyph-name="N" unicode="N" horiz-adv-x="705" 
d="M227 0h-165v674h213l107 -207q52 -95 106 -236h3q-14 125 -14 283v160h165v-674h-190l-115 224q-70 135 -113 243h-4q7 -127 7 -301v-166z" />
    <glyph glyph-name="O" unicode="O" horiz-adv-x="730" 
d="M359 -11h-1q-151 0 -237.5 98.5t-86.5 245.5q0 151 91.5 251.5t243.5 100.5q155 0 241 -98.5t86 -242.5q0 -163 -91 -259t-246 -96zM365 132h2q64 0 101 56.5t37 149.5q0 89 -37.5 146.5t-102.5 57.5q-64 0 -102 -57.5t-38 -147.5q-1 -92 37 -148.5t103 -56.5z" />
    <glyph glyph-name="P" unicode="P" horiz-adv-x="602" 
d="M62 0v664q92 15 222 15q143 0 214 -54q77 -57 77 -162q0 -106 -66 -166q-79 -70 -224 -70q-10 0 -24.5 1t-19.5 1v-229h-179zM241 539v-172q20 -2 41 -2q53 0 83.5 25.5t30.5 68.5q0 39 -26 61.5t-76 22.5q-35 0 -53 -4z" />
    <glyph glyph-name="Q" unicode="Q" horiz-adv-x="730" 
d="M698 14l-51 -138q-123 38 -270 102q-21 9 -49 11q-122 9 -208 97.5t-86 244.5q0 152 91.5 253t245.5 101q103 0 178.5 -48.5t111 -124t35.5 -167.5q0 -103 -41.5 -181t-103.5 -110v-4q36 -12 147 -36zM365 132h2q64 0 101 56t37 150q0 90 -37.5 147t-102.5 57
q-63 0 -101.5 -57.5t-38.5 -147.5q-1 -92 37 -148.5t103 -56.5z" />
    <glyph glyph-name="R" unicode="R" horiz-adv-x="617" 
d="M62 0v664q96 15 218 15q159 0 228 -53q66 -51 66 -146q0 -58 -35 -102t-80 -61v-3q58 -27 86 -121q7 -25 19 -72t21 -78.5t15 -42.5h-184q-21 43 -47 156q-13 58 -34 77.5t-65 19.5h-29v-253h-179zM241 541v-158h47q50 0 78.5 22.5t28.5 60.5t-24 58.5t-69 20.5
q-43 0 -61 -4z" />
    <glyph glyph-name="S" unicode="S" horiz-adv-x="561" 
d="M40 31l34 149q82 -42 175 -42q92 0 92 55q0 24 -23.5 40.5t-82.5 36.5q-190 68 -190 203q0 92 73 151.5t198 59.5q103 0 182 -34l-38 -145q-71 32 -146 32q-41 0 -63 -13.5t-22 -36.5t22 -36.5t95 -40.5q3 -2 4 -2q90 -34 132.5 -83t42.5 -120q0 -93 -73 -154t-214 -61
q-57 0 -112 12.5t-86 28.5z" />
    <glyph glyph-name="T" unicode="T" horiz-adv-x="570" 
d="M193 0v522h-172v152h528v-152h-175v-522h-181z" />
    <glyph glyph-name="U" unicode="U" horiz-adv-x="697" 
d="M61 674h181v-383q0 -159 106 -159q107 0 107 159v383h181v-372q0 -155 -75 -234t-218 -79q-282 0 -282 317v368z" />
    <glyph glyph-name="V" unicode="V" horiz-adv-x="671" 
d="M440 0h-214l-214 674h198l72 -265q33 -119 56 -236h2q22 112 55 233l73 268h192z" />
    <glyph glyph-name="W" unicode="W" horiz-adv-x="906" 
d="M370 0h-200l-155 674h194l39 -250q2 -13 34 -237h2q14 94 40 240l43 247h193l42 -259q16 -101 30 -223h2q9 68 34 235l40 247h183l-166 -674h-197l-45 264q-16 93 -28 202h-2q-20 -142 -32 -202z" />
    <glyph glyph-name="X" unicode="X" horiz-adv-x="631" 
d="M619 0h-209l-49 110l-52 117h-2q-1 -3 -44 -116l-45 -111h-205l190 341l-183 333h207l46 -107l45 -112h2q18 53 40 111l41 108h206l-183 -329z" />
    <glyph glyph-name="Y" unicode="Y" horiz-adv-x="629" 
d="M400 0h-181v272l-212 402h207l57 -152q31 -80 46 -125h2q19 61 43 125l55 152h204l-221 -395v-279z" />
    <glyph glyph-name="Z" unicode="Z" horiz-adv-x="588" 
d="M21 0v96l298 425v4h-270v149h504v-103l-289 -418v-4h294v-149h-537z" />
    <glyph glyph-name="bracketleft" unicode="[" horiz-adv-x="328" 
d="M276 -112h-213v798h213v-97h-86v-604h86v-97z" />
    <glyph glyph-name="backslash" unicode="\" horiz-adv-x="326" 
d="M302 -40h-115l-171 725h115z" />
    <glyph glyph-name="bracketright" unicode="]" horiz-adv-x="328" 
d="M52 686h213v-798h-213v97h86v604h-86v97z" />
    <glyph glyph-name="asciicircum" unicode="^" horiz-adv-x="596" 
d="M562 172h-126l-137 342h-3l-137 -342h-124l211 478h105z" />
    <glyph glyph-name="underscore" unicode="_" horiz-adv-x="500" 
d="M0 -75h500v-50h-500v50z" />
    <glyph glyph-name="grave" unicode="`" 
d="M-4 706h160l85 -156h-123z" />
    <glyph glyph-name="a" unicode="a" horiz-adv-x="548" 
d="M493 286v-166q0 -80 8 -120h-163l-9 43h-4q-47 -54 -136 -54q-73 0 -118 45.5t-45 109.5q0 95 77.5 143t208.5 48v4q0 42 -81 42q-73 0 -139 -36l-31 113q82 45 204 45q120 0 174 -58.5t54 -158.5zM318 185v40q-115 0 -115 -64q0 -47 51 -47q20 0 37.5 12.5t24.5 32.5
q2 8 2 26z" />
    <glyph glyph-name="b" unicode="b" horiz-adv-x="610" 
d="M55 155v556h181v-269h2q46 61 140 61q88 0 145 -67.5t56 -179.5q0 -126 -67 -196.5t-159 -70.5q-96 0 -140 74h-2l-7 -63h-153q4 64 4 155zM236 280v-66q0 -11 2 -25q5 -25 25 -42t46 -17q41 0 64 30.5t23 87.5q0 53 -22 85t-65 32q-26 0 -46 -17.5t-25 -43.5
q-2 -16 -2 -24z" />
    <glyph glyph-name="c" unicode="c" horiz-adv-x="452" 
d="M414 143l19 -132q-43 -21 -135 -21q-123 0 -195 67.5t-72 184.5q0 111 75.5 185.5t213.5 74.5q63 0 113 -17l-25 -132q-29 12 -78 12q-51 0 -83 -32t-31 -85q0 -57 34 -87.5t85 -30.5q46 0 79 13z" />
    <glyph glyph-name="d" unicode="d" horiz-adv-x="610" 
d="M373 711h181v-556q0 -89 4 -155h-161l-7 66h-2q-45 -77 -148 -77q-88 0 -148.5 70t-60.5 183q-1 120 63.5 190.5t156.5 70.5q87 0 120 -48h2v256zM373 224v55q0 16 -1 23q-5 27 -24 45t-47 18q-43 0 -65 -33.5t-22 -84.5q0 -55 24 -85t62 -30q27 0 46 17t24 42q3 10 3 33
z" />
    <glyph glyph-name="e" unicode="e" horiz-adv-x="539" 
d="M506 183h-304q4 -28 40.5 -44.5t86.5 -16.5q74 0 134 19l23 -120q-80 -31 -184 -31q-129 0 -200 66.5t-71 184.5q0 45 15 89.5t44 84t80 64t116 24.5q113 0 170 -71.5t57 -180.5q0 -40 -7 -68zM200 305h147q0 29 -16 54.5t-54 25.5q-36 0 -55 -25.5t-22 -54.5z" />
    <glyph glyph-name="f" unicode="f" horiz-adv-x="363" 
d="M258 0h-181v360h-63v132h63v16q0 45 16 89t48 73q55 51 143 51q42 0 83 -9l-3 -138q-23 5 -46 5q-29 0 -45.5 -18t-16.5 -45v-24h90v-132h-88v-360z" />
    <glyph glyph-name="g" unicode="g" horiz-adv-x="596" 
d="M540 341v-269q0 -153 -77 -220q-71 -61 -207 -61q-112 0 -183 37l34 136q64 -36 142 -36q51 0 82.5 28t31.5 83v22h-2q-45 -55 -123 -55q-91 0 -149 66.5t-58 172.5q0 114 64.5 186t158.5 72q86 0 127 -64h2l6 53h155q-4 -62 -4 -151zM360 223v66q0 9 -2 23
q-12 56 -64 56q-34 0 -57 -32t-23 -88q0 -49 21.5 -80t58.5 -31q24 0 41 14t22 35q3 10 3 37z" />
    <glyph glyph-name="h" unicode="h" horiz-adv-x="599" 
d="M55 0v711h181v-271h2q23 28 58 46q34 17 75 17q83 0 128 -57t45 -161v-285h-181v265q0 93 -64 93q-41 0 -59 -39q-4 -11 -4 -29v-290h-181z" />
    <glyph glyph-name="i" unicode="i" horiz-adv-x="292" 
d="M236 0h-181v492h181v-492zM146 543h-1q-41 0 -66 24.5t-25 60.5q0 38 25 62t67 24q41 0 66 -24t26 -62q0 -36 -25.5 -60.5t-66.5 -24.5z" />
    <glyph glyph-name="j" unicode="j" horiz-adv-x="312" 
d="M-20 -216l-17 140q62 5 87 30q16 16 22.5 49t6.5 101v388h181v-426q0 -155 -74 -220q-71 -62 -206 -62zM169 543h-1q-41 0 -66 24.5t-25 60.5q0 38 25 62t67 24q41 0 66 -24t26 -62q0 -36 -25.5 -60.5t-66.5 -24.5z" />
    <glyph glyph-name="k" unicode="k" horiz-adv-x="575" 
d="M236 711v-419h2q21 42 32 60l81 140h215l-170 -198l195 -294h-222l-97 188l-36 -48v-140h-181v711h181z" />
    <glyph glyph-name="l" unicode="l" horiz-adv-x="292" 
d="M55 0v711h181v-711h-181z" />
    <glyph glyph-name="m" unicode="m" horiz-adv-x="871" 
d="M56 0v324q0 76 -4 168h151l7 -62h4q53 73 146 73q47 0 82 -21t51 -58h2q27 37 68 59q38 20 87 20q80 0 123.5 -55.5t43.5 -158.5v-289h-175v262q0 96 -58 96q-41 0 -55 -42q-5 -13 -5 -36v-280h-175v267q0 91 -58 91q-37 0 -55 -40q-5 -15 -5 -37v-281h-175z" />
    <glyph glyph-name="n" unicode="n" horiz-adv-x="599" 
d="M55 0v324q0 76 -4 168h156l8 -63h3q19 27 56.5 50.5t91.5 23.5q86 0 132 -55.5t46 -157.5v-290h-181v268q0 90 -63 90q-41 0 -59 -43q-5 -11 -5 -36v-279h-181z" />
    <glyph glyph-name="o" unicode="o" horiz-adv-x="589" 
d="M293 -11h-1q-114 0 -187.5 68t-73.5 185q0 119 73 190t198 71q115 0 185.5 -70t70.5 -182q0 -127 -77 -194.5t-188 -67.5zM296 116h1q36 0 55.5 35t19.5 95q0 56 -19 93t-56 37q-42 0 -61 -37.5t-19 -92.5q0 -59 20 -94.5t59 -35.5z" />
    <glyph glyph-name="p" unicode="p" horiz-adv-x="610" 
d="M55 -198v522q0 76 -4 168h156l8 -63h2q56 74 160 74q81 0 141.5 -68.5t60.5 -182.5q0 -126 -67.5 -194.5t-156.5 -68.5q-40 0 -71.5 13.5t-45.5 33.5h-2v-234h-181zM236 276v-61q0 -17 3 -30q5 -25 24.5 -42t45.5 -17q40 0 63.5 31.5t23.5 85.5t-21.5 86.5t-63.5 32.5
q-27 0 -47.5 -18t-25.5 -45q-2 -7 -2 -23z" />
    <glyph glyph-name="q" unicode="q" horiz-adv-x="610" 
d="M374 -198v254h-2q-47 -67 -140 -67q-82 0 -141.5 68.5t-59.5 182.5q0 122 64.5 192.5t150.5 70.5q90 0 131 -62h2l4 51h175q0 -17 -1 -48.5t-1.5 -57t-0.5 -47.5v-537h-181zM374 217v65q0 14 -2 20q-5 26 -24 43.5t-47 17.5q-43 0 -65 -32.5t-22 -84.5q0 -55 24 -85.5
t62 -30.5q27 0 46.5 17t24.5 41q3 9 3 29z" />
    <glyph glyph-name="r" unicode="r" horiz-adv-x="403" 
d="M55 0v326q0 111 -4 166h154l7 -89h4q18 51 55.5 75.5t75.5 24.5q23 0 36 -3v-169q-22 5 -46 5q-83 0 -99 -62q-2 -16 -2 -31v-243h-181z" />
    <glyph glyph-name="s" unicode="s" horiz-adv-x="451" 
d="M29 25l31 127q22 -14 63.5 -25.5t72.5 -11.5q54 0 54 27q0 13 -12 21t-52 21q-147 46 -145 150q0 74 59 121.5t155 47.5q82 0 146 -28l-29 -122q-56 27 -109 27q-49 0 -49 -28q0 -12 15.5 -21.5t58.5 -23.5q71 -23 102.5 -60.5t32.5 -91.5q0 -74 -57.5 -119.5
t-167.5 -45.5q-101 0 -169 35z" />
    <glyph glyph-name="t" unicode="t" horiz-adv-x="383" 
d="M77 584l176 48v-140h102v-132h-102v-141q0 -45 12.5 -63.5t44.5 -18.5q28 0 43 4v-137q-37 -14 -107 -14q-78 0 -123 45q-46 46 -46 153v172h-61v132h61v92z" />
    <glyph glyph-name="u" unicode="u" horiz-adv-x="598" 
d="M541 492v-324q0 -84 4 -168h-156l-8 65h-3q-51 -76 -149 -76q-84 0 -129.5 54t-45.5 159v290h181v-261q0 -97 63 -97q43 0 58 42q4 9 4 26v290h181z" />
    <glyph glyph-name="v" unicode="v" horiz-adv-x="551" 
d="M8 492h196l53 -209q13 -50 23 -116h3q10 67 22 116l49 209h189l-179 -492h-181z" />
    <glyph glyph-name="w" unicode="w" horiz-adv-x="769" 
d="M8 492h184l28 -181q17 -102 24 -163h2q4 25 33 162l39 182h141l38 -175q28 -140 32 -169h2q8 74 25 171l29 173h176l-147 -492h-170l-34 146q-12 54 -27 150h-2q-9 -81 -25 -148l-37 -148h-170z" />
    <glyph glyph-name="x" unicode="x" horiz-adv-x="544" 
d="M3 492h201l39 -73q13 -24 36 -70h3q22 53 32 73l33 70h195l-159 -233l160 -259h-204l-39 79q-21 40 -32 71h-3l-15.5 -35.5l-15.5 -35.5l-36 -79h-197l163 251z" />
    <glyph glyph-name="y" unicode="y" horiz-adv-x="545" 
d="M5 492h200l59 -221l12.5 -51t8.5 -37h4q3 12 9 43t9 44l45 222h192l-105 -313q-52 -146 -92 -218t-83 -110q-70 -62 -164 -72l-37 152q32 5 62 19q34 13 58 45q9 13 9 22q0 12 -7 26z" />
    <glyph glyph-name="z" unicode="z" horiz-adv-x="486" 
d="M24 0v103l126 153l84 91v2h-194v143h414v-108l-118 -143q-58 -68 -87 -96v-2h214v-143h-439z" />
    <glyph glyph-name="braceleft" unicode="{" horiz-adv-x="328" 
d="M31 243l1 88q45 3 59 20.5t14 45.5q0 32 -5 75q-5 45 -5 77q0 137 155 137h42v-98h-18q-53 -1 -53 -64q0 -13 4 -51q4 -36 4 -65q1 -58 -21 -84.5t-70 -35.5v-2q48 -9 70 -35t21 -84q0 -29 -4 -67t-4 -49q0 -65 53 -66h18v-97h-42q-155 0 -155 136q0 36 6 77q4 54 4 77
q0 17 -3.5 28.5t-21 23t-49.5 13.5z" />
    <glyph glyph-name="bar" unicode="|" horiz-adv-x="302" 
d="M89 750h123v-1000h-123v1000z" />
    <glyph glyph-name="braceright" unicode="}" horiz-adv-x="328" 
d="M297 331l-1 -88q-45 -3 -59 -21t-14 -44q0 -23 4 -77q5 -45 5 -77q0 -136 -155 -136h-42v97h18q53 1 53 66q0 8 -1.5 25.5t-1.5 23.5q-4 38 -4 67q-1 58 21 84t70 35v2q-48 9 -70 35.5t-21 84.5q0 11 3 65q4 38 4 51q0 63 -53 64h-18v98h42q155 0 155 -137q0 -32 -5 -77
q-4 -52 -4 -75q0 -18 3.5 -29.5t21 -23t49.5 -13.5z" />
    <glyph glyph-name="asciitilde" unicode="~" horiz-adv-x="596" 
d="M151 184h-111q0 204 149 204q36 0 65.5 -11.5t72.5 -37.5q66 -39 84 -39q30 0 34 81h111q8 -206 -141 -206q-59 0 -138 49q-67 42 -84 42q-36 0 -42 -82z" />
    <glyph glyph-name="exclamdown" unicode="&#xa1;" horiz-adv-x="284" 
d="M236 -189h-186l26 441h134zM142 497h1q45 0 73.5 -29t28.5 -75q-1 -45 -29 -74t-73 -29q-46 0 -74.5 29t-28.5 74q0 46 28.5 75t73.5 29z" />
    <glyph glyph-name="cent" unicode="&#xa2;" horiz-adv-x="573" 
d="M397 -10h-113v96q-96 17 -150 80q-55 63 -55 162q0 92 53.5 161.5t151.5 89.5v93h114v-87q51 -4 89 -17l-25 -132q-34 15 -83 15q-54 0 -84.5 -30.5t-30.5 -85.5q0 -58 33.5 -87.5t84.5 -29.5q53 0 92 15l20 -129q-35 -16 -97 -21v-93z" />
    <glyph glyph-name="sterling" unicode="&#xa3;" horiz-adv-x="573" 
d="M523 0h-474v94q42 16 76.5 53t34.5 82q0 19 -2 27h-95v121h73q-6 33 -6 69q0 96 66.5 155.5t174.5 59.5q77 0 121 -24l-26 -136q-32 17 -83 17q-47 0 -66.5 -23.5t-19.5 -57.5q0 -25 8 -60h135v-121h-119q-2 -29 -11 -53q-16 -33 -40 -55v-2h253v-146z" />
    <glyph glyph-name="currency" unicode="&#xa4;" horiz-adv-x="573" 
d="M287 557h1q69 0 116 -33l79 87l76 -79l-91 -81q31 -60 31 -115q0 -70 -35 -119l89 -85l-75 -75l-75 91q-47 -38 -118 -38q-72 0 -116 38l-75 -91l-74 75l87 83q-35 54 -35 119q0 64 33 117l-91 81l76 79l80 -90q47 36 117 36zM286 438h-1q-34 0 -57.5 -28t-23.5 -75
q0 -49 25 -77.5t57 -28.5q33 0 57 28t24 78q0 46 -24 74.5t-57 28.5z" />
    <glyph glyph-name="yen" unicode="&#xa5;" horiz-adv-x="573" 
d="M367 0h-169v153h-156v81h156v60h-156v81h115l-161 275h194l55 -140q12 -29 43 -116h1q8 18 22 58t22 59l55 139h190l-168 -275h115v-81h-158v-60h158v-81h-158v-153z" />
    <glyph glyph-name="brokenbar" unicode="&#xa6;" horiz-adv-x="302" 
d="M89 174h123v-350h-123v350zM89 674h123v-350h-123v350z" />
    <glyph glyph-name="section" unicode="&#xa7;" horiz-adv-x="579" 
d="M177 339v-1q0 -43 79 -69q19 -7 63.5 -21t56.5 -19q26 12 26 41q0 39 -61 63l-68.5 24t-63.5 23q-13 -4 -22.5 -15.5t-9.5 -25.5zM485 656l-25 -107q-62 26 -138 26q-83 0 -83 -36q0 -31 99 -59q49 -14 81.5 -28t62.5 -35t44.5 -50.5t14.5 -68.5q0 -77 -77 -123
q47 -35 47 -95q0 -46 -23 -80t-60.5 -51t-75 -25t-76.5 -8q-125 0 -200 46l31 106q79 -42 160 -42t81 38q0 20 -22 33t-77 29q-47 14 -79 27t-65 34t-49.5 50.5t-16.5 67.5q0 37 23 72t64 53q-17 14 -29 40t-12 54q0 77 65 119t169 42q97 0 166 -29z" />
    <glyph glyph-name="dieresis" unicode="&#xa8;" 
d="M41 551h-1q-34 0 -57 23t-23 56q0 34 23 56.5t58 22.5q32 0 54 -22.5t22 -56.5q0 -33 -22 -56t-54 -23zM262 551h-2q-33 0 -55.5 23t-22.5 56q0 34 22.5 56.5t57.5 22.5q33 0 55 -22.5t22 -56.5q0 -33 -22 -56t-55 -23z" />
    <glyph glyph-name="copyright" unicode="&#xa9;" horiz-adv-x="677" 
d="M340 648h1q127 0 216.5 -90t89.5 -218q0 -129 -89.5 -219.5t-217.5 -90.5q-129 0 -219.5 90.5t-90.5 219.5q0 128 90.5 218t219.5 90zM339 584h-1q-97 0 -166 -72t-69 -173q0 -102 69 -173.5t167 -71.5q97 -1 166 71t69 174q0 101 -69 173t-166 72zM474 492l-16 -60
q-38 22 -94 22q-54 0 -86 -30t-32 -87q0 -52 32.5 -85t83.5 -33q61 0 99 24l16 -58q-49 -32 -123 -32q-87 0 -136.5 51t-49.5 130q0 83 57.5 134.5t138.5 51.5q35 0 68 -8.5t42 -19.5z" />
    <glyph glyph-name="ordfeminine" unicode="&#xaa;" horiz-adv-x="392" 
d="M357 266h-109l-7 30h-2q-41 -36 -99 -35q-48 0 -78 28t-30 71q0 57 53 86.5t144 30.5v5q0 5 -3 11t-17 12t-36 6q-51 0 -95 -26l-22 74q59 32 140 32q80 0 118 -39t38 -101v-107q0 -50 5 -78zM233 385v26q-37 0 -59.5 -10.5t-22.5 -29.5q0 -14 11 -23.5t27 -9.5
q13 0 25.5 7.5t16.5 19.5q2 6 2 20z" />
    <glyph glyph-name="guillemotleft" unicode="&#xab;" horiz-adv-x="484" 
d="M255 446l-113 -193l113 -194h-121l-108 194l108 193h121zM462 446l-113 -193l113 -194h-121l-108 194l108 193h121z" />
    <glyph glyph-name="logicalnot" unicode="&#xac;" horiz-adv-x="596" 
d="M40 433h516v-333h-112v225h-404v108z" />
    <glyph glyph-name="registered" unicode="&#xae;" horiz-adv-x="476" 
d="M219 484v-54h-55v156q30 6 74 6q48 0 67 -13q17 -10 17 -34q0 -11 -10.5 -21t-27.5 -14v-2q27 -9 34 -41q5 -22 11 -37h-61q-4 5 -11 32q-4 22 -24 22h-14zM221 554v-34h12q26 0 26 17q0 18 -24 18q-3 0 -7.5 -0.5t-6.5 -0.5zM239 686h1q75 0 127.5 -51.5t52.5 -124.5
t-52.5 -124.5t-128.5 -51.5t-129.5 51.5t-53.5 124.5t53.5 124.5t129.5 51.5zM238 639h-1q-52 0 -87.5 -38t-35.5 -92t35.5 -91t88.5 -37q53 -1 89 36.5t36 92.5q0 54 -36 91.5t-89 37.5z" />
    <glyph glyph-name="macron" unicode="&#xaf;" 
d="M20 675h261v-96h-261v96z" />
    <glyph glyph-name="macron" unicode="&#x2c9;" 
d="M20 675h261v-96h-261v96z" />
    <glyph glyph-name="degree" unicode="&#xb0;" horiz-adv-x="373" 
d="M187 685h1q68 0 113.5 -44.5t45.5 -107.5q0 -66 -47.5 -110t-113.5 -44q-69 0 -114.5 44t-45.5 108q-1 64 46.5 109t114.5 45zM187 606h-1q-29 0 -48.5 -22t-19.5 -53t19.5 -52t49.5 -21q29 0 48.5 21t19.5 52q0 32 -18.5 53.5t-49.5 21.5z" />
    <glyph glyph-name="plusminus" unicode="&#xb1;" horiz-adv-x="596" 
d="M242 583h113v-164h202v-108h-202v-166h-113v166h-202v108h202v164zM40 108h517v-108h-517v108z" />
    <glyph glyph-name="twosuperior" unicode="&#xb2;" horiz-adv-x="369" 
d="M17 443v65l61 53l23 20l21 18l17.5 15.5t15.5 15l12 13t10.5 13t7 12t4.5 12.5t1 13q0 18 -14 28.5t-37 10.5q-47 0 -87 -26l-35 89q64 43 156 43q75 0 118 -34t43 -90q0 -33 -18 -63t-36 -46.5t-53 -43.5l-21 -16v-2h135v-100h-324z" />
    <glyph glyph-name="threesuperior" unicode="&#xb3;" horiz-adv-x="366" 
d="M48 722l-24 84q55 32 151 32q73 0 113.5 -28t40.5 -72q0 -64 -85 -89v-2q43 -4 71.5 -28t28.5 -62q0 -54 -52.5 -86.5t-138.5 -32.5q-92 0 -143 28l25 90q48 -26 100 -26q27 0 45.5 9t18.5 27q0 19 -23 30t-55 11h-32v78h29q71 0 71 32q0 29 -48 29q-47 0 -93 -24z" />
    <glyph glyph-name="acute" unicode="&#xb4;" 
d="M149 706h160l-123 -156h-122z" />
    <glyph glyph-name="mu" unicode="&#xb5;" horiz-adv-x="598" 
d="M386 64h-4q-12 -29 -41.5 -49.5t-70.5 -20.5q-31 0 -53 19v-35q0 -123 10 -176h-159q-13 32 -13 176v514h181v-268q0 -92 58 -92q22 0 39.5 13.5t23.5 28.5q4 11 4 28v290h181v-322q0 -26 9.5 -36t29.5 -11l-9 -122q-20 -12 -65 -12q-92 0 -121 75z" />
    <glyph glyph-name="paragraph" unicode="&#xb6;" horiz-adv-x="556" 
d="M306 -46h-111v310h-6q-20 0 -45 11.5t-51 33t-43.5 59t-18.5 82.5q-1 34 6.5 64.5t28 61.5t53.5 53t88.5 36t127.5 14q105 0 154 -12v-713h-111v616h-72v-616z" />
    <glyph glyph-name="periodcentered" unicode="&#xb7;" horiz-adv-x="283" 
d="M142 153h-1q-45 0 -73.5 29.5t-28.5 75.5t29 75.5t74 29.5q46 0 74 -29t29 -76q0 -47 -28.5 -76t-74.5 -29z" />
    <glyph glyph-name="periodcentered" unicode="&#x2219;" horiz-adv-x="283" 
d="M142 153h-1q-45 0 -73.5 29.5t-28.5 75.5t29 75.5t74 29.5q46 0 74 -29t29 -76q0 -47 -28.5 -76t-74.5 -29z" />
    <glyph glyph-name="cedilla" unicode="&#xb8;" 
d="M115 5h93l-24 -46q30 -4 51.5 -24t21.5 -50q0 -47 -36 -68.5t-92 -21.5q-54 0 -86 21l22 62q31 -17 55 -17q32 0 32 23q0 29 -78 34z" />
    <glyph glyph-name="onesuperior" unicode="&#xb9;" horiz-adv-x="324" 
d="M260 443h-138v280h-1l-83 -35l-17 96l120 49h119v-390z" />
    <glyph glyph-name="ordmasculine" unicode="&#xba;" horiz-adv-x="399" 
d="M201 591h1q77 0 123.5 -45.5t46.5 -115.5q0 -81 -50.5 -125t-124.5 -44q-73 0 -122 44.5t-49 117.5q0 75 48 121.5t127 46.5zM199 506h-1q-24 0 -35.5 -25t-11.5 -57q0 -33 12.5 -55.5t36.5 -22.5q47 0 47 81q0 31 -13.5 55t-34.5 24z" />
    <glyph glyph-name="guillemotright" unicode="&#xbb;" horiz-adv-x="484" 
d="M136 253l-113 193h119l110 -193l-110 -194h-119zM340 253l-113 193h119l110 -193l-110 -194h-119z" />
    <glyph glyph-name="onequarter" unicode="&#xbc;" horiz-adv-x="863" 
d="M271 266h-138v280h-1l-83 -35l-17 96l120 49h119v-390zM283 -11h-95l364 672h94zM777 0h-126v85h-194v73l161 236h159v-224h50v-85h-50v-85zM651 170v55q0 11 5 79h-3q-28 -57 -37 -70l-39 -63l3 -1h71z" />
    <glyph glyph-name="onehalf" unicode="&#xbd;" horiz-adv-x="863" 
d="M260 266h-138v280h-1l-83 -35l-17 96l120 49h119v-390zM257 -11h-94l363 672h94zM504 0v65l61 53l23 20l21 18l17.5 15.5t15.5 15l12 13t10.5 13t7 12t4.5 12.5t1 13q0 18 -14 28.5t-37 10.5q-47 0 -87 -26l-35 89q64 43 156 43q75 0 118 -34t43 -90q0 -33 -18 -63
t-36 -46.5t-53 -43.5l-21 -16v-2h135v-100h-324z" />
    <glyph glyph-name="threequarters" unicode="&#xbe;" horiz-adv-x="863" 
d="M63 545l-23 84q55 32 151 32q73 0 113.5 -28t40.5 -72q0 -64 -86 -89v-2q43 -4 71.5 -28t28.5 -61q0 -55 -52.5 -87.5t-138.5 -32.5q-92 0 -143 28l25 90q50 -25 100 -25q27 0 45.5 9t18.5 26q0 19 -22.5 30t-54.5 11h-32v78h29q71 0 71 32q0 29 -48 29q-46 0 -94 -24z
M313 -11h-94l362 672h95zM786 0h-126v85h-194v73l161 236h159v-224h50v-85h-50v-85zM660 170v55q0 11 5 79h-3q-28 -57 -37 -70l-39 -63l3 -1h71z" />
    <glyph glyph-name="questiondown" unicode="&#xbf;" horiz-adv-x="463" 
d="M253 497h1q45 0 73 -29t28 -75q0 -45 -28 -74t-74 -29t-74.5 29t-28.5 74q0 46 28.5 75t74.5 29zM170 256h157v-25q3 -80 -57 -150q-19 -22 -27 -32.5t-17 -27.5t-9 -31q0 -47 62 -48q57 0 99 29l38 -129q-76 -41 -177 -41q-99 0 -151 45.5t-52 113.5q0 37 17 73.5
t29 50.5t40 43q47 51 48 115v14z" />
    <glyph glyph-name="Agrave" unicode="&#xc0;" horiz-adv-x="675" 
d="M413 156h-174l-38 -156h-187l196 674h240l201 -674h-195zM263 289h125l-31 121q-6 22 -18.5 73.5l-14.5 59.5h-2q-5 -19 -15 -66t-15 -67zM149 836h183l81 -124h-144z" />
    <glyph glyph-name="Aacute" unicode="&#xc1;" horiz-adv-x="675" 
d="M413 156h-174l-38 -156h-187l196 674h240l201 -674h-195zM263 289h125l-31 121q-6 22 -18.5 73.5l-14.5 59.5h-2q-5 -19 -15 -66t-15 -67zM334 836h183l-120 -126h-144z" />
    <glyph glyph-name="Acircumflex" unicode="&#xc2;" horiz-adv-x="675" 
d="M413 156h-174l-38 -156h-187l196 674h240l201 -674h-195zM263 289h125l-31 121q-6 22 -18.5 73.5l-14.5 59.5h-2q-5 -19 -15 -66t-15 -67zM269 836h135l99 -126h-121l-45 59h-2l-44 -59h-121z" />
    <glyph glyph-name="Atilde" unicode="&#xc3;" horiz-adv-x="675" 
d="M413 156h-174l-38 -156h-187l196 674h240l201 -674h-195zM263 289h125l-31 121q-6 22 -18.5 73.5l-14.5 59.5h-2q-5 -19 -15 -66t-15 -67zM274 714h-80q-2 69 20 104t61 35q32 0 66 -20q31 -20 43 -20q13 0 18.5 9t8.5 35h78q2 -73 -19.5 -104.5t-64.5 -31.5
q-35 0 -67 18q-31 18 -41 18q-20 0 -23 -43z" />
    <glyph glyph-name="Adieresis" unicode="&#xc4;" horiz-adv-x="675" 
d="M413 156h-174l-38 -156h-187l196 674h240l201 -674h-195zM263 289h125l-31 121q-6 22 -18.5 73.5l-14.5 59.5h-2q-5 -19 -15 -66t-15 -67zM234 709h-1q-32 0 -54.5 22.5t-22.5 54.5t22.5 54t55.5 22q31 0 52.5 -22t21.5 -54t-21.5 -54.5t-52.5 -22.5zM451 709h-1
q-32 0 -54 22.5t-22 54.5t22 54t55 22q32 0 53.5 -22t21.5 -54t-22 -54.5t-53 -22.5z" />
    <glyph glyph-name="Aring" unicode="&#xc5;" horiz-adv-x="675" 
d="M413 156h-174l-38 -156h-187l196 674h240l201 -674h-195zM263 289h125l-31 121q-6 22 -18.5 73.5l-14.5 59.5h-2q-5 -19 -15 -66t-15 -67zM333 905h1q58 0 89 -28.5t31 -73.5q0 -44 -32 -72t-89 -28t-89.5 28.5t-32.5 70.5q0 44 32 73.5t90 29.5zM331 848h-1
q-19 0 -30 -13.5t-11 -31.5t11.5 -30.5t30.5 -12.5q21 0 32.5 12t11.5 31q0 18 -12 31.5t-32 13.5z" />
    <glyph glyph-name="AE" unicode="&#xc6;" horiz-adv-x="902" 
d="M190 0h-186l278 674h553v-148h-272l14 -112h256v-146h-233l17 -120h259v-148h-414l-21 161h-193zM301 305h119l-19 150l-12 92h-3l-30 -95z" />
    <glyph glyph-name="Ccedilla" unicode="&#xc7;" horiz-adv-x="602" 
d="M542 158l25 -141q-48 -24 -151 -27l-16 -32q74 -19 74 -84q0 -51 -37.5 -74.5t-89.5 -23.5q-56 0 -92 20l22 69q26 -14 57 -14q33 0 33 23q0 27 -80 35l39 86q-145 20 -218.5 111t-73.5 220q0 170 108 264t268 94q110 0 168 -29l-35 -143q-58 24 -125 24
q-84 0 -139 -50.5t-55 -148.5q0 -92 52 -145t145 -53q73 0 121 19z" />
    <glyph glyph-name="Egrave" unicode="&#xc8;" horiz-adv-x="552" 
d="M485 418v-146h-242v-124h271v-148h-452v674h438v-148h-257v-108h242zM107 836h183l81 -124h-144z" />
    <glyph glyph-name="Eacute" unicode="&#xc9;" horiz-adv-x="552" 
d="M485 418v-146h-242v-124h271v-148h-452v674h438v-148h-257v-108h242zM284 836h183l-120 -126h-144z" />
    <glyph glyph-name="Ecircumflex" unicode="&#xca;" horiz-adv-x="552" 
d="M485 418v-146h-242v-124h271v-148h-452v674h438v-148h-257v-108h242zM221 836h135l99 -126h-121l-45 59h-2l-44 -59h-121z" />
    <glyph glyph-name="Edieresis" unicode="&#xcb;" horiz-adv-x="552" 
d="M485 418v-146h-242v-124h271v-148h-452v674h438v-148h-257v-108h242zM172 709h-1q-32 0 -54.5 22.5t-22.5 54.5t22.5 54t55.5 22q31 0 52.5 -22t21.5 -54t-21.5 -54.5t-52.5 -22.5zM389 709h-1q-32 0 -54 22.5t-22 54.5t22 54t55 22q32 0 53.5 -22t21.5 -54t-22 -54.5
t-53 -22.5z" />
    <glyph glyph-name="Igrave" unicode="&#xcc;" horiz-adv-x="305" 
d="M62 674h181v-674h-181v674zM-30 836h183l81 -124h-144z" />
    <glyph glyph-name="Iacute" unicode="&#xcd;" horiz-adv-x="305" 
d="M62 674h181v-674h-181v674zM151 836h183l-120 -126h-144z" />
    <glyph glyph-name="Icircumflex" unicode="&#xce;" horiz-adv-x="305" 
d="M62 674h181v-674h-181v674zM86 836h135l99 -126h-121l-45 59h-2l-44 -59h-121z" />
    <glyph glyph-name="Idieresis" unicode="&#xcf;" horiz-adv-x="305" 
d="M62 674h181v-674h-181v674zM46 709h-1q-32 0 -54.5 22.5t-22.5 54.5t22.5 54t55.5 22q31 0 52.5 -22t21.5 -54t-21.5 -54.5t-52.5 -22.5zM263 709h-1q-32 0 -54 22.5t-22 54.5t22 54t55 22q32 0 53.5 -22t21.5 -54t-22 -54.5t-53 -22.5z" />
    <glyph glyph-name="Eth" unicode="&#xd0;" horiz-adv-x="719" 
d="M4 274v141h67v252q87 15 215 15q186 0 277 -65q122 -84 122 -262q0 -189 -117 -281q-105 -84 -317 -84q-93 0 -180 10v274h-67zM366 415v-141h-114v-142q9 -2 38 -2q95 0 149.5 53t54.5 166q0 100 -50.5 147.5t-136.5 47.5q-37 0 -55 -4v-125h114z" />
    <glyph glyph-name="Ntilde" unicode="&#xd1;" horiz-adv-x="705" 
d="M227 0h-165v674h213l107 -207q52 -95 106 -236h3q-14 125 -14 283v160h165v-674h-190l-115 224q-70 135 -113 243h-4q7 -127 7 -301v-166zM287 714h-80q-2 69 20 104t61 35q32 0 66 -20q31 -20 43 -20q13 0 18.5 9t8.5 35h78q2 -73 -19.5 -104.5t-64.5 -31.5
q-35 0 -67 18q-31 18 -41 18q-20 0 -23 -43z" />
    <glyph glyph-name="Ograve" unicode="&#xd2;" horiz-adv-x="730" 
d="M359 -11h-1q-151 0 -237.5 98.5t-86.5 245.5q0 151 91.5 251.5t243.5 100.5q155 0 241 -98.5t86 -242.5q0 -163 -91 -259t-246 -96zM365 132h2q64 0 101 56.5t37 149.5q0 89 -37.5 146.5t-102.5 57.5q-64 0 -102 -57.5t-38 -147.5q-1 -92 37 -148.5t103 -56.5zM183 836
h183l81 -124h-144z" />
    <glyph glyph-name="Oacute" unicode="&#xd3;" horiz-adv-x="730" 
d="M359 -11h-1q-151 0 -237.5 98.5t-86.5 245.5q0 151 91.5 251.5t243.5 100.5q155 0 241 -98.5t86 -242.5q0 -163 -91 -259t-246 -96zM365 132h2q64 0 101 56.5t37 149.5q0 89 -37.5 146.5t-102.5 57.5q-64 0 -102 -57.5t-38 -147.5q-1 -92 37 -148.5t103 -56.5zM369 836
h183l-120 -126h-144z" />
    <glyph glyph-name="Ocircumflex" unicode="&#xd4;" horiz-adv-x="730" 
d="M359 -11h-1q-151 0 -237.5 98.5t-86.5 245.5q0 151 91.5 251.5t243.5 100.5q155 0 241 -98.5t86 -242.5q0 -163 -91 -259t-246 -96zM365 132h2q64 0 101 56.5t37 149.5q0 89 -37.5 146.5t-102.5 57.5q-64 0 -102 -57.5t-38 -147.5q-1 -92 37 -148.5t103 -56.5zM298 836
h135l99 -126h-121l-45 59h-2l-44 -59h-121z" />
    <glyph glyph-name="Otilde" unicode="&#xd5;" horiz-adv-x="730" 
d="M359 -11h-1q-151 0 -237.5 98.5t-86.5 245.5q0 151 91.5 251.5t243.5 100.5q155 0 241 -98.5t86 -242.5q0 -163 -91 -259t-246 -96zM365 132h2q64 0 101 56.5t37 149.5q0 89 -37.5 146.5t-102.5 57.5q-64 0 -102 -57.5t-38 -147.5q-1 -92 37 -148.5t103 -56.5zM298 712
h-80q-2 69 20 104t61 35q32 0 66 -20q31 -20 43 -20q13 0 18.5 9t8.5 35h78q2 -73 -19.5 -104.5t-64.5 -31.5q-35 0 -67 18q-31 18 -41 18q-20 0 -23 -43z" />
    <glyph glyph-name="Odieresis" unicode="&#xd6;" horiz-adv-x="730" 
d="M359 -11h-1q-151 0 -237.5 98.5t-86.5 245.5q0 151 91.5 251.5t243.5 100.5q155 0 241 -98.5t86 -242.5q0 -163 -91 -259t-246 -96zM365 132h2q64 0 101 56.5t37 149.5q0 89 -37.5 146.5t-102.5 57.5q-64 0 -102 -57.5t-38 -147.5q-1 -92 37 -148.5t103 -56.5zM258 709
h-1q-32 0 -54.5 22.5t-22.5 54.5t22.5 54t55.5 22q31 0 52.5 -22t21.5 -54t-21.5 -54.5t-52.5 -22.5zM475 709h-1q-32 0 -54 22.5t-22 54.5t22 54t55 22q32 0 53.5 -22t21.5 -54t-22 -54.5t-53 -22.5z" />
    <glyph glyph-name="multiply" unicode="&#xd7;" horiz-adv-x="596" 
d="M40 450l75 76l183 -187l183 187l75 -76l-183 -187l183 -186l-75 -77l-183 187l-183 -187l-75 77l183 186z" />
    <glyph glyph-name="Oslash" unicode="&#xd8;" horiz-adv-x="730" 
d="M172 -76l-97 76l55 84q-96 96 -96 254q0 147 91.5 247t240.5 100q75 0 140 -27l54 80l101 -67l-54 -84q89 -95 89 -246q0 -160 -91 -256t-240 -96q-71 0 -133 25zM232 238l191 292q-24 15 -58 15q-68 0 -109 -56t-41 -151q0 -52 16 -100h1zM502 427l-187 -285
q19 -13 50 -13q69 0 109.5 55.5t40.5 153.5q0 41 -11 88z" />
    <glyph glyph-name="Ugrave" unicode="&#xd9;" horiz-adv-x="697" 
d="M61 674h181v-383q0 -159 106 -159q107 0 107 159v383h181v-372q0 -155 -75 -234t-218 -79q-282 0 -282 317v368zM170 836h183l81 -124h-144z" />
    <glyph glyph-name="Uacute" unicode="&#xda;" horiz-adv-x="697" 
d="M61 674h181v-383q0 -159 106 -159q107 0 107 159v383h181v-372q0 -155 -75 -234t-218 -79q-282 0 -282 317v368zM341 836h183l-120 -126h-144z" />
    <glyph glyph-name="Ucircumflex" unicode="&#xdb;" horiz-adv-x="697" 
d="M61 674h181v-383q0 -159 106 -159q107 0 107 159v383h181v-372q0 -155 -75 -234t-218 -79q-282 0 -282 317v368zM295 836h135l99 -126h-121l-45 59h-2l-44 -59h-121z" />
    <glyph glyph-name="Udieresis" unicode="&#xdc;" horiz-adv-x="697" 
d="M61 674h181v-383q0 -159 106 -159q107 0 107 159v383h181v-372q0 -155 -75 -234t-218 -79q-282 0 -282 317v368zM250 709h-1q-32 0 -54.5 22.5t-22.5 54.5t22.5 54t55.5 22q31 0 52.5 -22t21.5 -54t-21.5 -54.5t-52.5 -22.5zM467 709h-1q-32 0 -54 22.5t-22 54.5t22 54
t55 22q32 0 53.5 -22t21.5 -54t-22 -54.5t-53 -22.5z" />
    <glyph glyph-name="Yacute" unicode="&#xdd;" horiz-adv-x="629" 
d="M400 0h-181v272l-212 402h207l57 -152q31 -80 46 -125h2q19 61 43 125l55 152h204l-221 -395v-279zM320 836h183l-120 -126h-144z" />
    <glyph glyph-name="Thorn" unicode="&#xde;" horiz-adv-x="601" 
d="M62 0v674h178v-117q45 3 77 3q122 0 188 -53q69 -56 69 -153q0 -123 -75 -180t-194 -57q-37 0 -65 5v-122h-178zM240 420v-159q20 -5 57 -5q50 0 74.5 23.5t24.5 61.5q0 39 -25.5 61t-73.5 22q-37 0 -57 -4z" />
    <glyph glyph-name="germandbls" unicode="&#xdf;" horiz-adv-x="622" 
d="M236 0h-181v422q0 156 79 230q74 69 196 69q101 0 166 -53.5t65 -139.5q0 -52 -24 -81q-52 -28 -52 -65q0 -28 28 -57l36 -41t26.5 -47.5t15.5 -69.5q0 -80 -56 -129t-156 -49q-69 0 -107 14l20 132q24 -11 63 -11q25 0 39.5 10t14.5 27q0 21 -29 53q-2 2 -11 12
l-13 14.5t-12.5 15t-12.5 17.5l-10.5 18.5t-9.5 21t-5.5 22t-2.5 24.5q0 82 78 125q6 15 6 32q0 28 -18 48t-49 20q-84 0 -84 -145v-439z" />
    <glyph glyph-name="agrave" unicode="&#xe0;" horiz-adv-x="548" 
d="M493 286v-166q0 -80 8 -120h-163l-9 43h-4q-47 -54 -136 -54q-73 0 -118 45.5t-45 109.5q0 95 77.5 143t208.5 48v4q0 42 -81 42q-73 0 -139 -36l-31 113q82 45 204 45q120 0 174 -58.5t54 -158.5zM318 185v40q-115 0 -115 -64q0 -47 51 -47q20 0 37.5 12.5t24.5 32.5
q2 8 2 26zM102 706h160l85 -156h-123z" />
    <glyph glyph-name="aacute" unicode="&#xe1;" horiz-adv-x="548" 
d="M493 286v-166q0 -80 8 -120h-163l-9 43h-4q-47 -54 -136 -54q-73 0 -118 45.5t-45 109.5q0 95 77.5 143t208.5 48v4q0 42 -81 42q-73 0 -139 -36l-31 113q82 45 204 45q120 0 174 -58.5t54 -158.5zM318 185v40q-115 0 -115 -64q0 -47 51 -47q20 0 37.5 12.5t24.5 32.5
q2 8 2 26zM283 706h160l-123 -156h-122z" />
    <glyph glyph-name="acircumflex" unicode="&#xe2;" horiz-adv-x="548" 
d="M493 286v-166q0 -80 8 -120h-163l-9 43h-4q-47 -54 -136 -54q-73 0 -118 45.5t-45 109.5q0 95 77.5 143t208.5 48v4q0 42 -81 42q-73 0 -139 -36l-31 113q82 45 204 45q120 0 174 -58.5t54 -158.5zM318 185v40q-115 0 -115 -64q0 -47 51 -47q20 0 37.5 12.5t24.5 32.5
q2 8 2 26zM211 706h120l101 -156h-113l-47 84h-2l-47 -84h-114z" />
    <glyph glyph-name="atilde" unicode="&#xe3;" horiz-adv-x="548" 
d="M493 286v-166q0 -80 8 -120h-163l-9 43h-4q-47 -54 -136 -54q-73 0 -118 45.5t-45 109.5q0 95 77.5 143t208.5 48v4q0 42 -81 42q-73 0 -139 -36l-31 113q82 45 204 45q120 0 174 -58.5t54 -158.5zM318 185v40q-115 0 -115 -64q0 -47 51 -47q20 0 37.5 12.5t24.5 32.5
q2 8 2 26zM195 553h-82q-3 68 21.5 106t66.5 38q30 0 66 -20q34 -20 43 -20q12 0 17.5 9t7.5 36h80q5 -140 -88 -140q-30 0 -72 22q-28 15 -36 15q-23 0 -24 -46z" />
    <glyph glyph-name="adieresis" unicode="&#xe4;" horiz-adv-x="548" 
d="M493 286v-166q0 -80 8 -120h-163l-9 43h-4q-47 -54 -136 -54q-73 0 -118 45.5t-45 109.5q0 95 77.5 143t208.5 48v4q0 42 -81 42q-73 0 -139 -36l-31 113q82 45 204 45q120 0 174 -58.5t54 -158.5zM318 185v40q-115 0 -115 -64q0 -47 51 -47q20 0 37.5 12.5t24.5 32.5
q2 8 2 26zM165 551h-1q-34 0 -57 23t-23 56q0 34 23 56.5t58 22.5q32 0 54 -22.5t22 -56.5q0 -33 -22 -56t-54 -23zM386 551h-2q-33 0 -55.5 23t-22.5 56q0 34 22.5 56.5t57.5 22.5q33 0 55 -22.5t22 -56.5q0 -33 -22 -56t-55 -23z" />
    <glyph glyph-name="aring" unicode="&#xe5;" horiz-adv-x="548" 
d="M493 286v-166q0 -80 8 -120h-163l-9 43h-4q-47 -54 -136 -54q-73 0 -118 45.5t-45 109.5q0 95 77.5 143t208.5 48v4q0 42 -81 42q-73 0 -139 -36l-31 113q82 45 204 45q120 0 174 -58.5t54 -158.5zM318 185v40q-115 0 -115 -64q0 -47 51 -47q20 0 37.5 12.5t24.5 32.5
q2 8 2 26zM277 741h1q57 0 88 -28t31 -73q0 -44 -32.5 -72t-87.5 -28q-56 0 -88.5 28t-32.5 71q0 45 32 73.5t89 28.5zM277 686h-1q-20 0 -31 -14t-11 -33q0 -17 11.5 -30.5t30.5 -13.5q21 0 32.5 13t11.5 32t-11 32.5t-32 13.5z" />
    <glyph glyph-name="ae" unicode="&#xe6;" horiz-adv-x="816" 
d="M785 190h-303q4 -30 37 -49.5t85 -19.5q73 0 139 26l23 -120q-75 -38 -189 -38q-61 0 -110.5 20.5t-76.5 58.5h-4q-70 -79 -183 -79q-80 0 -128 45.5t-48 114.5q0 89 78.5 135.5t208.5 46.5v12q0 6 -6 13.5t-27 15.5t-52 8q-66 0 -133 -37l-33 113q97 47 181 47
q113 0 164 -69h2q64 69 166 69q103 0 158 -72t55 -180q0 -12 -2 -34t-2 -27zM319 180v43q-116 0 -116 -61q0 -24 15 -36t38 -12q38 0 59 38q4 7 4 28zM481 310h143q0 11 -2.5 22.5t-9 24.5t-21.5 21.5t-36 8.5q-36 0 -55 -25.5t-19 -51.5z" />
    <glyph glyph-name="ccedilla" unicode="&#xe7;" horiz-adv-x="452" 
d="M414 142l19 -132q-35 -17 -106 -20l-16 -32q32 -8 53 -29.5t21 -55.5q0 -51 -37.5 -74t-89.5 -23q-55 0 -91 20l21 69q26 -14 57 -14q33 0 33 23q0 26 -79 35l38 86q-97 16 -151.5 80.5t-54.5 165.5q0 112 75.5 186.5t213.5 74.5q63 0 113 -17l-25 -132q-29 12 -78 12
q-51 0 -83 -32t-31 -85q0 -58 34 -88.5t85 -30.5q46 0 79 13z" />
    <glyph glyph-name="egrave" unicode="&#xe8;" horiz-adv-x="539" 
d="M506 183h-304q4 -28 40.5 -44.5t86.5 -16.5q74 0 134 19l23 -120q-80 -31 -184 -31q-129 0 -200 66.5t-71 184.5q0 45 15 89.5t44 84t80 64t116 24.5q113 0 170 -71.5t57 -180.5q0 -40 -7 -68zM200 305h147q0 29 -16 54.5t-54 25.5q-36 0 -55 -25.5t-22 -54.5zM113 706
h160l85 -156h-123z" />
    <glyph glyph-name="eacute" unicode="&#xe9;" horiz-adv-x="539" 
d="M506 183h-304q4 -28 40.5 -44.5t86.5 -16.5q74 0 134 19l23 -120q-80 -31 -184 -31q-129 0 -200 66.5t-71 184.5q0 45 15 89.5t44 84t80 64t116 24.5q113 0 170 -71.5t57 -180.5q0 -40 -7 -68zM200 305h147q0 29 -16 54.5t-54 25.5q-36 0 -55 -25.5t-22 -54.5zM299 706
h160l-123 -156h-122z" />
    <glyph glyph-name="ecircumflex" unicode="&#xea;" horiz-adv-x="539" 
d="M506 183h-304q4 -28 40.5 -44.5t86.5 -16.5q74 0 134 19l23 -120q-80 -31 -184 -31q-129 0 -200 66.5t-71 184.5q0 45 15 89.5t44 84t80 64t116 24.5q113 0 170 -71.5t57 -180.5q0 -40 -7 -68zM200 305h147q0 29 -16 54.5t-54 25.5q-36 0 -55 -25.5t-22 -54.5zM221 706
h120l101 -156h-113l-47 84h-2l-47 -84h-114z" />
    <glyph glyph-name="edieresis" unicode="&#xeb;" horiz-adv-x="539" 
d="M506 183h-304q4 -28 40.5 -44.5t86.5 -16.5q74 0 134 19l23 -120q-80 -31 -184 -31q-129 0 -200 66.5t-71 184.5q0 45 15 89.5t44 84t80 64t116 24.5q113 0 170 -71.5t57 -180.5q0 -40 -7 -68zM200 305h147q0 29 -16 54.5t-54 25.5q-36 0 -55 -25.5t-22 -54.5zM177 551
h-1q-34 0 -57 23t-23 56q0 34 23 56.5t58 22.5q32 0 54 -22.5t22 -56.5q0 -33 -22 -56t-54 -23zM398 551h-2q-33 0 -55.5 23t-22.5 56q0 34 22.5 56.5t57.5 22.5q33 0 55 -22.5t22 -56.5q0 -33 -22 -56t-55 -23z" />
    <glyph glyph-name="igrave" unicode="&#xec;" horiz-adv-x="292" 
d="M236 0h-181v492h181v-492zM-32 706h160l85 -156h-123z" />
    <glyph glyph-name="iacute" unicode="&#xed;" horiz-adv-x="292" 
d="M236 0h-181v492h181v-492zM160 706h160l-123 -156h-122z" />
    <glyph glyph-name="icircumflex" unicode="&#xee;" horiz-adv-x="292" 
d="M236 0h-181v492h181v-492zM87 706h120l101 -156h-113l-47 84h-2l-47 -84h-114z" />
    <glyph glyph-name="idieresis" unicode="&#xef;" horiz-adv-x="292" 
d="M236 0h-181v492h181v-492zM37 551h-1q-34 0 -57 23t-23 56q0 34 23 56.5t58 22.5q32 0 54 -22.5t22 -56.5q0 -33 -22 -56t-54 -23zM258 551h-2q-33 0 -55.5 23t-22.5 56q0 34 22.5 56.5t57.5 22.5q33 0 55 -22.5t22 -56.5q0 -33 -22 -56t-55 -23z" />
    <glyph glyph-name="eth" unicode="&#xf0;" horiz-adv-x="589" 
d="M296 116h1q37 0 56 33.5t19 91.5q0 69 -19 94q-21 26 -56 26q-42 0 -61 -37.5t-19 -85.5q0 -53 19.5 -87.5t59.5 -34.5zM104 465l-31 67l100 44q-38 22 -89 42l78 99q82 -27 164 -79l143 59l34 -65l-105 -44q75 -58 119 -147q41 -79 41 -182q0 -131 -77 -200.5
t-186 -69.5q-114 0 -189 68t-75 181q0 100 67.5 163.5t168.5 66.5q29 2 53 -9l2 2q-37 42 -74 64z" />
    <glyph glyph-name="ntilde" unicode="&#xf1;" horiz-adv-x="599" 
d="M55 0v324q0 76 -4 168h156l8 -63h3q19 27 56.5 50.5t91.5 23.5q86 0 132 -55.5t46 -157.5v-290h-181v268q0 90 -63 90q-41 0 -59 -43q-5 -11 -5 -36v-279h-181zM233 553h-82q-3 68 21.5 106t66.5 38q30 0 66 -20q34 -20 43 -20q12 0 17.5 9t7.5 36h80q5 -140 -88 -140
q-30 0 -72 22q-28 15 -36 15q-23 0 -24 -46z" />
    <glyph glyph-name="ograve" unicode="&#xf2;" horiz-adv-x="589" 
d="M293 -11h-1q-114 0 -187.5 68t-73.5 185q0 119 73 190t198 71q115 0 185.5 -70t70.5 -182q0 -127 -77 -194.5t-188 -67.5zM296 116h1q36 0 55.5 35t19.5 95q0 56 -19 93t-56 37q-42 0 -61 -37.5t-19 -92.5q0 -59 20 -94.5t59 -35.5zM128 706h160l85 -156h-123z" />
    <glyph glyph-name="oacute" unicode="&#xf3;" horiz-adv-x="589" 
d="M293 -11h-1q-114 0 -187.5 68t-73.5 185q0 119 73 190t198 71q115 0 185.5 -70t70.5 -182q0 -127 -77 -194.5t-188 -67.5zM296 116h1q36 0 55.5 35t19.5 95q0 56 -19 93t-56 37q-42 0 -61 -37.5t-19 -92.5q0 -59 20 -94.5t59 -35.5zM307 706h160l-123 -156h-122z" />
    <glyph glyph-name="ocircumflex" unicode="&#xf4;" horiz-adv-x="589" 
d="M293 -11h-1q-114 0 -187.5 68t-73.5 185q0 119 73 190t198 71q115 0 185.5 -70t70.5 -182q0 -127 -77 -194.5t-188 -67.5zM296 116h1q36 0 55.5 35t19.5 95q0 56 -19 93t-56 37q-42 0 -61 -37.5t-19 -92.5q0 -59 20 -94.5t59 -35.5zM236 706h120l101 -156h-113l-47 84h-2
l-47 -84h-114z" />
    <glyph glyph-name="otilde" unicode="&#xf5;" horiz-adv-x="589" 
d="M293 -11h-1q-114 0 -187.5 68t-73.5 185q0 119 73 190t198 71q115 0 185.5 -70t70.5 -182q0 -127 -77 -194.5t-188 -67.5zM296 116h1q36 0 55.5 35t19.5 95q0 56 -19 93t-56 37q-42 0 -61 -37.5t-19 -92.5q0 -59 20 -94.5t59 -35.5zM227 553h-82q-3 68 21.5 106t66.5 38
q30 0 66 -20q34 -20 43 -20q12 0 17.5 9t7.5 36h80q5 -140 -88 -140q-30 0 -72 22q-28 15 -36 15q-23 0 -24 -46z" />
    <glyph glyph-name="odieresis" unicode="&#xf6;" horiz-adv-x="589" 
d="M293 -11h-1q-114 0 -187.5 68t-73.5 185q0 119 73 190t198 71q115 0 185.5 -70t70.5 -182q0 -127 -77 -194.5t-188 -67.5zM296 116h1q36 0 55.5 35t19.5 95q0 56 -19 93t-56 37q-42 0 -61 -37.5t-19 -92.5q0 -59 20 -94.5t59 -35.5zM186 551h-1q-34 0 -57 23t-23 56
q0 34 23 56.5t58 22.5q32 0 54 -22.5t22 -56.5q0 -33 -22 -56t-54 -23zM407 551h-2q-33 0 -55.5 23t-22.5 56q0 34 22.5 56.5t57.5 22.5q33 0 55 -22.5t22 -56.5q0 -33 -22 -56t-55 -23z" />
    <glyph glyph-name="divide" unicode="&#xf7;" horiz-adv-x="596" 
d="M298 361h-1q-35 0 -57.5 22.5t-22.5 59.5t22.5 59.5t59.5 22.5q36 0 58 -22.5t23 -59.5q0 -37 -22.5 -59.5t-59.5 -22.5zM556 213h-516v108h516v-108zM298 9h-1q-35 0 -57.5 22.5t-22.5 59.5t22.5 59.5t59.5 22.5q36 0 58 -22.5t23 -59.5q0 -37 -22.5 -59.5t-59.5 -22.5z
" />
    <glyph glyph-name="oslash" unicode="&#xf8;" horiz-adv-x="589" 
d="M294 503h1q67 0 116 -23l49 73l59 -41l-47 -70q86 -69 86 -196q0 -122 -77 -189.5t-185 -67.5q-65 0 -113 22l-51 -75l-57 45l46 67q-90 68 -90 197q0 115 72 186.5t191 71.5zM216 186l118 177q-18 13 -40 13q-46 0 -68 -39t-22 -91q0 -38 10 -59zM375 301l-117 -172
q13 -13 38 -13q42 0 65.5 34t23.5 92q0 34 -7 58z" />
    <glyph glyph-name="ugrave" unicode="&#xf9;" horiz-adv-x="598" 
d="M541 492v-324q0 -84 4 -168h-156l-8 65h-3q-51 -76 -149 -76q-84 0 -129.5 54t-45.5 159v290h181v-261q0 -97 63 -97q43 0 58 42q4 9 4 26v290h181zM128 706h160l85 -156h-123z" />
    <glyph glyph-name="uacute" unicode="&#xfa;" horiz-adv-x="598" 
d="M541 492v-324q0 -84 4 -168h-156l-8 65h-3q-51 -76 -149 -76q-84 0 -129.5 54t-45.5 159v290h181v-261q0 -97 63 -97q43 0 58 42q4 9 4 26v290h181zM313 706h160l-123 -156h-122z" />
    <glyph glyph-name="ucircumflex" unicode="&#xfb;" horiz-adv-x="598" 
d="M541 492v-324q0 -84 4 -168h-156l-8 65h-3q-51 -76 -149 -76q-84 0 -129.5 54t-45.5 159v290h181v-261q0 -97 63 -97q43 0 58 42q4 9 4 26v290h181zM240 706h120l101 -156h-113l-47 84h-2l-47 -84h-114z" />
    <glyph glyph-name="udieresis" unicode="&#xfc;" horiz-adv-x="598" 
d="M541 492v-324q0 -84 4 -168h-156l-8 65h-3q-51 -76 -149 -76q-84 0 -129.5 54t-45.5 159v290h181v-261q0 -97 63 -97q43 0 58 42q4 9 4 26v290h181zM193 551h-1q-34 0 -57 23t-23 56q0 34 23 56.5t58 22.5q32 0 54 -22.5t22 -56.5q0 -33 -22 -56t-54 -23zM414 551h-2
q-33 0 -55.5 23t-22.5 56q0 34 22.5 56.5t57.5 22.5q33 0 55 -22.5t22 -56.5q0 -33 -22 -56t-55 -23z" />
    <glyph glyph-name="yacute" unicode="&#xfd;" horiz-adv-x="545" 
d="M5 492h200l59 -221l12.5 -51t8.5 -37h4q3 12 9 43t9 44l45 222h192l-105 -313q-52 -146 -92 -218t-83 -110q-70 -62 -164 -72l-37 152q32 5 62 19q34 13 58 45q9 13 9 22q0 12 -7 26zM302 706h160l-123 -156h-122z" />
    <glyph glyph-name="thorn" unicode="&#xfe;" horiz-adv-x="610" 
d="M55 680h181v-241h2q45 64 138 64q81 2 142 -66.5t61 -187.5q0 -65 -20.5 -117t-53.5 -82t-70.5 -45.5t-75.5 -15.5q-81 0 -121 49h-2v-236h-181v878zM236 285v-82q0 -29 16 -48q25 -29 57 -29q40 0 63.5 32.5t23.5 87.5q0 51 -22 83.5t-60 32.5q-46 0 -68 -39
q-10 -18 -10 -38z" />
    <glyph glyph-name="ydieresis" unicode="&#xff;" horiz-adv-x="545" 
d="M5 492h200l59 -221l12.5 -51t8.5 -37h4q3 12 9 43t9 44l45 222h192l-105 -313q-52 -146 -92 -218t-83 -110q-70 -62 -164 -72l-37 152q32 5 62 19q34 13 58 45q9 13 9 22q0 12 -7 26zM176 551h-1q-34 0 -57 23t-23 56q0 34 23 56.5t58 22.5q32 0 54 -22.5t22 -56.5
q0 -33 -22 -56t-54 -23zM397 551h-2q-33 0 -55.5 23t-22.5 56q0 34 22.5 56.5t57.5 22.5q33 0 55 -22.5t22 -56.5q0 -33 -22 -56t-55 -23z" />
    <glyph glyph-name="Amacron" unicode="&#x100;" horiz-adv-x="675" 
d="M413 156h-174l-38 -156h-187l196 674h240l201 -674h-195zM263 289h125l-31 121q-6 22 -18.5 73.5l-14.5 59.5h-2q-5 -19 -15 -66t-15 -67zM199 827h268v-92h-268v92z" />
    <glyph glyph-name="amacron" unicode="&#x101;" horiz-adv-x="548" 
d="M493 286v-166q0 -80 8 -120h-163l-9 43h-4q-47 -54 -136 -54q-73 0 -118 45.5t-45 109.5q0 95 77.5 143t208.5 48v4q0 42 -81 42q-73 0 -139 -36l-31 113q82 45 204 45q120 0 174 -58.5t54 -158.5zM318 185v40q-115 0 -115 -64q0 -47 51 -47q20 0 37.5 12.5t24.5 32.5
q2 8 2 26zM144 675h261v-96h-261v96z" />
    <glyph glyph-name="Abreve" unicode="&#x102;" horiz-adv-x="675" 
d="M413 156h-174l-38 -156h-187l196 674h240l201 -674h-195zM263 289h125l-31 121q-6 22 -18.5 73.5l-14.5 59.5h-2q-5 -19 -15 -66t-15 -67zM188 841h93q4 -45 53 -45q50 0 59 45h89q-1 -62 -38 -98.5t-109 -36.5q-74 0 -109.5 36t-37.5 99z" />
    <glyph glyph-name="abreve" unicode="&#x103;" horiz-adv-x="548" 
d="M493 286v-166q0 -80 8 -120h-163l-9 43h-4q-47 -54 -136 -54q-73 0 -118 45.5t-45 109.5q0 95 77.5 143t208.5 48v4q0 42 -81 42q-73 0 -139 -36l-31 113q82 45 204 45q120 0 174 -58.5t54 -158.5zM318 185v40q-115 0 -115 -64q0 -47 51 -47q20 0 37.5 12.5t24.5 32.5
q2 8 2 26zM129 697h91q8 -58 53 -58q28 0 41.5 16.5t14.5 41.5h90q-1 -69 -38 -110t-107 -41t-107 41t-38 110z" />
    <glyph glyph-name="Aogonek" unicode="&#x104;" horiz-adv-x="675" 
d="M450 674l201 -674h-100q-13 -30 -13 -57q0 -25 16 -41.5t40 -16.5q25 0 43 6l24 -81q-46 -35 -111 -35q-57 0 -89 29t-32 86q0 16 4 35t7.5 31t9.5 27.5t6 16.5l-43 156h-174l-38 -156h-187l196 674h240zM263 289h125l-31 121q-6 22 -18.5 73.5l-14.5 59.5h-2
q-5 -19 -15 -66t-15 -67z" />
    <glyph glyph-name="aogonek" unicode="&#x105;" horiz-adv-x="548" 
d="M493 286v-166q0 -80 8 -120h-67q-13 -32 -13 -60q0 -24 13 -38t34 -14q24 0 44 9l25 -82q-51 -39 -116 -39q-49 0 -79 28.5t-30 80.5q0 18 3.5 37.5t7 31t9.5 28t6 18.5l-9 43h-4q-47 -54 -136 -54q-73 0 -118 45.5t-45 109.5q0 95 77.5 143t208.5 48v4q0 42 -81 42
q-73 0 -139 -36l-31 113q82 45 204 45q120 0 174 -58.5t54 -158.5zM318 185v40q-115 0 -115 -64q0 -47 51 -47q20 0 37.5 12.5t24.5 32.5q2 8 2 26z" />
    <glyph glyph-name="Cacute" unicode="&#x106;" horiz-adv-x="602" 
d="M541 159l25 -141q-54 -28 -169 -28q-92 0 -163 27t-113.5 74t-64.5 106.5t-22 128.5q0 114 52.5 197t136 122t186.5 39q110 0 168 -29l-35 -143q-58 24 -125 24q-83 0 -138 -50.5t-55 -147.5q0 -92 52 -145t145 -53q72 0 120 19zM368 836h183l-120 -126h-144z" />
    <glyph glyph-name="cacute" unicode="&#x107;" horiz-adv-x="452" 
d="M414 143l19 -132q-43 -21 -135 -21q-123 0 -195 67.5t-72 184.5q0 111 75.5 185.5t213.5 74.5q63 0 113 -17l-25 -132q-29 12 -78 12q-51 0 -83 -32t-31 -85q0 -57 34 -87.5t85 -30.5q46 0 79 13zM286 706h160l-123 -156h-122z" />
    <glyph glyph-name="Ccircumflex" unicode="&#x108;" horiz-adv-x="602" 
d="M541 159l25 -141q-54 -28 -169 -28q-92 0 -163 27t-113.5 74t-64.5 106.5t-22 128.5q0 114 52.5 197t136 122t186.5 39q110 0 168 -29l-35 -143q-58 24 -125 24q-83 0 -138 -50.5t-55 -147.5q0 -92 52 -145t145 -53q72 0 120 19zM296 840h135l99 -126h-121l-45 59h-2
l-44 -59h-121z" />
    <glyph glyph-name="ccircumflex" unicode="&#x109;" horiz-adv-x="452" 
d="M414 143l19 -132q-43 -21 -135 -21q-123 0 -195 67.5t-72 184.5q0 111 75.5 185.5t213.5 74.5q63 0 113 -17l-25 -132q-29 12 -78 12q-51 0 -83 -32t-31 -85q0 -57 34 -87.5t85 -30.5q46 0 79 13zM208 706h120l101 -156h-113l-47 84h-2l-47 -84h-114z" />
    <glyph glyph-name="Cdotaccent" unicode="&#x10a;" horiz-adv-x="602" 
d="M541 159l25 -141q-54 -28 -169 -28q-92 0 -163 27t-113.5 74t-64.5 106.5t-22 128.5q0 114 52.5 197t136 122t186.5 39q110 0 168 -29l-35 -143q-58 24 -125 24q-83 0 -138 -50.5t-55 -147.5q0 -92 52 -145t145 -53q72 0 120 19zM365 709h-1q-33 0 -55.5 22.5t-22.5 53.5
q0 33 23 55t56 22q32 0 53.5 -22t21.5 -55q0 -31 -22 -53.5t-53 -22.5z" />
    <glyph glyph-name="cdotaccent" unicode="&#x10b;" horiz-adv-x="452" 
d="M414 143l19 -132q-43 -21 -135 -21q-123 0 -195 67.5t-72 184.5q0 111 75.5 185.5t213.5 74.5q63 0 113 -17l-25 -132q-29 12 -78 12q-51 0 -83 -32t-31 -85q0 -57 34 -87.5t85 -30.5q46 0 79 13zM284 551h-1q-34 0 -57 23t-23 56q0 34 23 56.5t58 22.5q32 0 54 -22.5
t22 -56.5q0 -33 -22 -56t-54 -23z" />
    <glyph glyph-name="Ccaron" unicode="&#x10c;" horiz-adv-x="602" 
d="M541 159l25 -141q-54 -28 -169 -28q-92 0 -163 27t-113.5 74t-64.5 106.5t-22 128.5q0 114 52.5 197t136 122t186.5 39q110 0 168 -29l-35 -143q-58 24 -125 24q-83 0 -138 -50.5t-55 -147.5q0 -92 52 -145t145 -53q72 0 120 19zM433 710h-135l-99 126h121l45 -59h2
l44 59h121z" />
    <glyph glyph-name="ccaron" unicode="&#x10d;" horiz-adv-x="452" 
d="M414 143l19 -132q-43 -21 -135 -21q-123 0 -195 67.5t-72 184.5q0 111 75.5 185.5t213.5 74.5q63 0 113 -17l-25 -132q-29 12 -78 12q-51 0 -83 -32t-31 -85q0 -57 34 -87.5t85 -30.5q46 0 79 13zM332 550h-120l-101 156h113l47 -84h2l47 84h114z" />
    <glyph glyph-name="Dcaron" unicode="&#x10e;" horiz-adv-x="710" 
d="M62 4v660q87 15 215 15q181 0 277 -67q122 -84 122 -259q0 -186 -117 -278q-106 -83 -317 -83q-110 0 -180 12zM243 537v-403q9 -2 38 -2q93 -2 148.5 52t55.5 163q0 95 -51 144.5t-136 49.5q-37 0 -55 -4zM395 710h-135l-99 126h121l45 -59h2l44 59h121z" />
    <glyph glyph-name="dcaron" unicode="&#x10f;" horiz-adv-x="620" 
d="M373 711h181v-556q0 -89 4 -155h-161l-7 66h-2q-45 -77 -148 -77q-88 0 -148.5 70t-60.5 183q-1 120 63.5 190.5t156.5 70.5q87 0 120 -48h2v256zM373 224v55q0 16 -1 23q-5 27 -24 45t-47 18q-43 0 -65 -33.5t-22 -84.5q0 -55 24 -85t62 -30q27 0 46 17t24 42q3 10 3 33
zM669 484l-77 45q24 48 24 107q0 35 -15 69l110 18q12 -10 21 -31.5t9 -44.5q0 -99 -72 -163z" />
    <glyph glyph-name="Dcroat" unicode="&#x110;" horiz-adv-x="719" 
d="M4 274v141h67v252q87 15 215 15q186 0 277 -65q122 -84 122 -262q0 -189 -117 -281q-105 -84 -317 -84q-93 0 -180 10v274h-67zM366 415v-141h-114v-142q9 -2 38 -2q95 0 149.5 53t54.5 166q0 100 -50.5 147.5t-136.5 47.5q-37 0 -55 -4v-125h114z" />
    <glyph glyph-name="dcroat" unicode="&#x111;" horiz-adv-x="610" 
d="M636 535h-82v-380q0 -89 4 -155h-161l-7 66h-2q-45 -77 -148 -77q-88 0 -148.5 70t-60.5 183q-1 120 63.5 190.5t156.5 70.5q87 0 120 -48h2v80h-173v96h173v80h181v-80h82v-96zM373 224v55q0 16 -1 23q-5 27 -24 45t-47 18q-43 0 -65 -33.5t-22 -84.5q0 -55 24 -85
t62 -30q27 0 46 17t24 42q3 10 3 33z" />
    <glyph glyph-name="Emacron" unicode="&#x112;" horiz-adv-x="552" 
d="M485 418v-146h-242v-124h271v-148h-452v674h438v-148h-257v-108h242zM143 827h268v-92h-268v92z" />
    <glyph glyph-name="emacron" unicode="&#x113;" horiz-adv-x="539" 
d="M506 183h-304q4 -28 40.5 -44.5t86.5 -16.5q74 0 134 19l23 -120q-80 -31 -184 -31q-129 0 -200 66.5t-71 184.5q0 45 15 89.5t44 84t80 64t116 24.5q113 0 170 -71.5t57 -180.5q0 -40 -7 -68zM200 305h147q0 29 -16 54.5t-54 25.5q-36 0 -55 -25.5t-22 -54.5zM144 675
h261v-96h-261v96z" />
    <glyph glyph-name="Ebreve" unicode="&#x114;" horiz-adv-x="552" 
d="M485 418v-146h-242v-124h271v-148h-452v674h438v-148h-257v-108h242zM139 842h93q4 -45 53 -45q50 0 59 45h89q-1 -62 -38 -98.5t-109 -36.5q-74 0 -109.5 36t-37.5 99z" />
    <glyph glyph-name="ebreve" unicode="&#x115;" horiz-adv-x="539" 
d="M506 183h-304q4 -28 40.5 -44.5t86.5 -16.5q74 0 134 19l23 -120q-80 -31 -184 -31q-129 0 -200 66.5t-71 184.5q0 45 15 89.5t44 84t80 64t116 24.5q113 0 170 -71.5t57 -180.5q0 -40 -7 -68zM200 305h147q0 29 -16 54.5t-54 25.5q-36 0 -55 -25.5t-22 -54.5zM130 697
h91q8 -58 53 -58q28 0 41.5 16.5t14.5 41.5h90q-1 -69 -38 -110t-107 -41t-107 41t-38 110z" />
    <glyph glyph-name="Edotaccent" unicode="&#x116;" horiz-adv-x="552" 
d="M485 418v-146h-242v-124h271v-148h-452v674h438v-148h-257v-108h242zM278 709h-1q-33 0 -55.5 22.5t-22.5 53.5q0 33 23 55t56 22q32 0 53.5 -22t21.5 -55q0 -31 -22 -53.5t-53 -22.5z" />
    <glyph glyph-name="edotaccent" unicode="&#x117;" horiz-adv-x="539" 
d="M506 183h-304q4 -28 40.5 -44.5t86.5 -16.5q74 0 134 19l23 -120q-80 -31 -184 -31q-129 0 -200 66.5t-71 184.5q0 45 15 89.5t44 84t80 64t116 24.5q113 0 170 -71.5t57 -180.5q0 -40 -7 -68zM200 305h147q0 29 -16 54.5t-54 25.5q-36 0 -55 -25.5t-22 -54.5zM279 551
h-1q-34 0 -57 23t-23 56q0 34 23 56.5t58 22.5q32 0 54 -22.5t22 -56.5q0 -33 -22 -56t-54 -23z" />
    <glyph glyph-name="Eogonek" unicode="&#x118;" horiz-adv-x="552" 
d="M497 -107l25 -82q-46 -36 -120 -36q-51 0 -80 26t-29 72q0 73 67 127h-298v674h437v-148h-256v-108h242v-146h-242v-124h270v-148h-29q-25 -17 -43.5 -41t-18.5 -45q0 -13 9.5 -21t24.5 -8q20 0 41 8z" />
    <glyph glyph-name="eogonek" unicode="&#x119;" horiz-adv-x="539" 
d="M437 -105l26 -82q-47 -38 -117 -38q-51 0 -79.5 24t-28.5 65q0 65 65 125v1h-7q-125 1 -195 67.5t-70 183.5q0 45 15 89.5t44 84t80 64t116 24.5q113 0 170 -71.5t57 -180.5q0 -40 -7 -68h-304q4 -28 40.5 -44.5t86.5 -16.5q74 0 134 19l23 -120q-8 -3 -22.5 -8t-19.5 -7
q-28 -14 -55 -42t-27 -50q0 -14 9.5 -21.5t22.5 -7.5q22 0 43 10zM200 305h147q0 29 -16 54.5t-53 25.5q-36 0 -55.5 -25.5t-22.5 -54.5z" />
    <glyph glyph-name="Ecaron" unicode="&#x11a;" horiz-adv-x="552" 
d="M485 418v-146h-242v-124h271v-148h-452v674h438v-148h-257v-108h242zM344 710h-135l-99 126h121l45 -59h2l44 59h121z" />
    <glyph glyph-name="ecaron" unicode="&#x11b;" horiz-adv-x="539" 
d="M506 183h-304q4 -28 40.5 -44.5t86.5 -16.5q74 0 134 19l23 -120q-80 -31 -184 -31q-129 0 -200 66.5t-71 184.5q0 45 15 89.5t44 84t80 64t116 24.5q113 0 170 -71.5t57 -180.5q0 -40 -7 -68zM200 305h147q0 29 -16 54.5t-54 25.5q-36 0 -55 -25.5t-22 -54.5zM334 550
h-120l-101 156h113l47 -84h2l47 84h114z" />
    <glyph glyph-name="Gcircumflex" unicode="&#x11c;" horiz-adv-x="697" 
d="M646 400v-369q-114 -38 -233 -38q-187 0 -283 91t-96 243q1 170 112 262t282 92q127 0 195 -33l-36 -145q-65 29 -160 29q-89 0 -146 -48.5t-57 -146.5q0 -93 53 -146t138 -53q44 0 57 6v116h-90v140h264zM313 840h135l99 -126h-121l-45 59h-2l-44 -59h-121z" />
    <glyph glyph-name="gcircumflex" unicode="&#x11d;" horiz-adv-x="596" 
d="M540 341v-269q0 -153 -77 -220q-71 -61 -207 -61q-112 0 -183 37l34 136q64 -36 142 -36q51 0 82.5 28t31.5 83v22h-2q-45 -55 -123 -55q-91 0 -149 66.5t-58 172.5q0 114 64.5 186t158.5 72q86 0 127 -64h2l6 53h155q-4 -62 -4 -151zM360 223v66q0 9 -2 23
q-12 56 -64 56q-34 0 -57 -32t-23 -88q0 -49 21.5 -80t58.5 -31q24 0 41 14t22 35q3 10 3 37zM241 706h120l101 -156h-113l-47 84h-2l-47 -84h-114z" />
    <glyph glyph-name="Gbreve" unicode="&#x11e;" horiz-adv-x="697" 
d="M646 400v-369q-114 -38 -233 -38q-187 0 -283 91t-96 243q1 170 112 262t282 92q127 0 195 -33l-36 -145q-65 29 -160 29q-89 0 -146 -48.5t-57 -146.5q0 -93 53 -146t138 -53q44 0 57 6v116h-90v140h264zM241 847h93q4 -45 53 -45q50 0 59 45h89q-1 -62 -38 -98.5
t-109 -36.5q-74 0 -109.5 36t-37.5 99z" />
    <glyph glyph-name="gbreve" unicode="&#x11f;" horiz-adv-x="596" 
d="M540 341v-269q0 -153 -77 -220q-71 -61 -207 -61q-112 0 -183 37l34 136q64 -36 142 -36q51 0 82.5 28t31.5 83v22h-2q-45 -55 -123 -55q-91 0 -149 66.5t-58 172.5q0 114 64.5 186t158.5 72q86 0 127 -64h2l6 53h155q-4 -62 -4 -151zM360 223v66q0 9 -2 23
q-12 56 -64 56q-34 0 -57 -32t-23 -88q0 -49 21.5 -80t58.5 -31q24 0 41 14t22 35q3 10 3 37zM156 697h91q8 -58 53 -58q28 0 41.5 16.5t14.5 41.5h90q-1 -69 -38 -110t-107 -41t-107 41t-38 110z" />
    <glyph glyph-name="Gdotaccent" unicode="&#x120;" horiz-adv-x="697" 
d="M646 400v-369q-114 -38 -233 -38q-187 0 -283 91t-96 243q1 170 112 262t282 92q127 0 195 -33l-36 -145q-65 29 -160 29q-89 0 -146 -48.5t-57 -146.5q0 -93 53 -146t138 -53q44 0 57 6v116h-90v140h264zM383 709h-1q-33 0 -55.5 22.5t-22.5 53.5q0 33 23 55t56 22
q32 0 53.5 -22t21.5 -55q0 -31 -22 -53.5t-53 -22.5z" />
    <glyph glyph-name="gdotaccent" unicode="&#x121;" horiz-adv-x="596" 
d="M540 341v-269q0 -153 -77 -220q-71 -61 -207 -61q-112 0 -183 37l34 136q64 -36 142 -36q51 0 82.5 28t31.5 83v22h-2q-45 -55 -123 -55q-91 0 -149 66.5t-58 172.5q0 114 64.5 186t158.5 72q86 0 127 -64h2l6 53h155q-4 -62 -4 -151zM360 223v66q0 9 -2 23
q-12 56 -64 56q-34 0 -57 -32t-23 -88q0 -49 21.5 -80t58.5 -31q24 0 41 14t22 35q3 10 3 37zM297 551h-1q-34 0 -57 23t-23 56q0 34 23 56.5t58 22.5q32 0 54 -22.5t22 -56.5q0 -33 -22 -56t-54 -23z" />
    <glyph glyph-name="Gcommaaccent" unicode="&#x122;" horiz-adv-x="697" 
d="M646 400v-369q-114 -38 -233 -38q-187 0 -283 91t-96 243q1 170 112 262t282 92q127 0 195 -33l-36 -145q-65 29 -160 29q-89 0 -146 -48.5t-57 -146.5q0 -93 53 -146t138 -53q44 0 57 6v116h-90v140h264zM284 -250l-25 75q25 6 43.5 21.5t18.5 37.5t-27 59l123 19
q39 -29 39 -81q0 -63 -47 -96t-125 -35z" />
    <glyph glyph-name="gcommaaccent" unicode="&#x123;" horiz-adv-x="596" 
d="M540 341v-269q0 -153 -77 -220q-71 -61 -207 -61q-112 0 -183 37l34 136q64 -36 142 -36q51 0 82.5 28t31.5 83v22h-2q-43 -55 -122 -55q-91 0 -149.5 66t-58.5 173q0 114 64.5 186t159.5 72q85 0 126 -64h2l6 53h155q-4 -62 -4 -151zM360 223v66q0 9 -2 23
q-12 56 -64 56q-33 0 -56.5 -32t-23.5 -88q0 -49 22 -80t58 -31q24 0 41 14t22 35q3 10 3 37zM378 730l25 -61q-70 -11 -70 -58q0 -23 28 -53l-115 -17q-39 27 -39 72q0 57 46.5 86t124.5 31z" />
    <glyph glyph-name="Hcircumflex" unicode="&#x124;" horiz-adv-x="705" 
d="M62 674h181v-250h219v250h181v-674h-181v266h-219v-266h-181v674zM286 836h135l99 -126h-121l-45 59h-2l-44 -59h-121z" />
    <glyph glyph-name="hcircumflex" unicode="&#x125;" horiz-adv-x="599" 
d="M55 0v711h181v-271h2q23 28 58 46q34 17 75 17q83 0 128 -57t45 -161v-285h-181v265q0 93 -64 93q-41 0 -59 -39q-4 -11 -4 -29v-290h-181zM84 863h135l99 -126h-121l-45 59h-2l-44 -59h-121z" />
    <glyph glyph-name="Hbar" unicode="&#x126;" horiz-adv-x="720" 
d="M717 468h-67v-468h-181v236h-218v-236h-181v468h-67v104h67v102h181v-102h218v102h181v-102h67v-104zM469 394v74h-218v-74h218z" />
    <glyph glyph-name="hbar" unicode="&#x127;" horiz-adv-x="599" 
d="M544 0h-181v265q0 93 -64 93q-41 0 -59 -39q-4 -11 -4 -29v-290h-181v535h-79v96h79v80h181v-80h178v-96h-178v-95h2q23 28 58 46q37 17 75 17q83 0 128 -57t45 -161v-285z" />
    <glyph glyph-name="Itilde" unicode="&#x128;" horiz-adv-x="305" 
d="M62 674h181v-674h-181v674zM86 714h-80q-2 69 20 104t61 35q32 0 66 -20q31 -20 43 -20q13 0 18.5 9t8.5 35h78q2 -73 -19.5 -104.5t-64.5 -31.5q-35 0 -67 18q-31 18 -41 18q-20 0 -23 -43z" />
    <glyph glyph-name="itilde" unicode="&#x129;" horiz-adv-x="292" 
d="M236 0h-181v492h181v-492zM78 553h-82q-3 68 21.5 106t66.5 38q30 0 66 -20q34 -20 43 -20q12 0 17.5 9t7.5 36h80q5 -140 -88 -140q-30 0 -72 22q-28 15 -36 15q-23 0 -24 -46z" />
    <glyph glyph-name="Imacron" unicode="&#x12a;" horiz-adv-x="305" 
d="M62 674h181v-674h-181v674zM20 827h268v-92h-268v92z" />
    <glyph glyph-name="imacron" unicode="&#x12b;" horiz-adv-x="292" 
d="M236 0h-181v492h181v-492zM16 675h261v-96h-261v96z" />
    <glyph glyph-name="Ibreve" unicode="&#x12c;" horiz-adv-x="305" 
d="M62 674h181v-674h-181v674zM6 846h93q4 -45 53 -45q50 0 59 45h89q-1 -62 -38 -98.5t-109 -36.5q-74 0 -109.5 36t-37.5 99z" />
    <glyph glyph-name="ibreve" unicode="&#x12d;" horiz-adv-x="292" 
d="M236 0h-181v492h181v-492zM1 697h91q8 -58 53 -58q28 0 41.5 16.5t14.5 41.5h90q-1 -69 -38 -110t-107 -41t-107 41t-38 110z" />
    <glyph glyph-name="Iogonek" unicode="&#x12e;" horiz-adv-x="305" 
d="M243 674v-674h-86q-13 -30 -13 -56t16 -42.5t40 -16.5q25 0 43 6l25 -81q-47 -35 -112 -35q-57 0 -89 29t-32 85q0 16 4 35.5t7.5 31.5t9.5 28l6 16v674h181z" />
    <glyph glyph-name="iogonek" unicode="&#x12f;" horiz-adv-x="292" 
d="M145 542h-1q-42 0 -68 25.5t-26 63.5q0 39 26 64t69 25q44 0 70 -25t26 -64q0 -38 -26.5 -63.5t-69.5 -25.5zM236 492v-492h-86q-13 -30 -13 -57q0 -25 16 -41.5t40 -16.5q25 0 43 6l25 -81q-47 -35 -112 -35q-57 0 -88.5 29t-31.5 86q0 21 5 43.5t13 44t8 22.5v492h181z
" />
    <glyph glyph-name="Idotaccent" unicode="&#x130;" horiz-adv-x="305" 
d="M62 674h181v-674h-181v674zM155 709h-1q-33 0 -55.5 22.5t-22.5 53.5q0 33 23 55t56 22q32 0 53.5 -22t21.5 -55q0 -31 -22 -53.5t-53 -22.5z" />
    <glyph glyph-name="dotlessi" unicode="&#x131;" horiz-adv-x="292" 
d="M236 0h-181v492h181v-492z" />
    <glyph glyph-name="IJ" unicode="&#x132;" horiz-adv-x="734" 
d="M62 674h181v-674h-181v674zM496 258v416h181v-416q0 -142 -65 -205.5t-191 -63.5q-71 0 -119 16l19 145q40 -11 79 -11q47 0 71.5 26.5t24.5 92.5z" />
    <glyph glyph-name="ij" unicode="&#x133;" horiz-adv-x="604" 
d="M236 0h-181v492h181v-492zM146 543h-1q-41 0 -66 24.5t-25 60.5q0 38 25 62t67 24q41 0 66 -24t26 -62q0 -36 -25.5 -60.5t-66.5 -24.5zM272 -216l-17 140q62 5 87 30q16 16 22.5 49t6.5 101v388h181v-426q0 -155 -74 -220q-71 -62 -206 -62zM461 543h-1q-41 0 -66 24.5
t-25 60.5q0 38 25 62t67 24q41 0 66 -24t26 -62q0 -36 -25.5 -60.5t-66.5 -24.5z" />
    <glyph glyph-name="Jcircumflex" unicode="&#x134;" horiz-adv-x="429" 
d="M191 258v416h181v-416q0 -142 -65 -205.5t-191 -63.5q-71 0 -119 16l19 145q40 -11 79 -11q47 0 71.5 26.5t24.5 92.5zM214 836h135l99 -126h-121l-45 59h-2l-44 -59h-121z" />
    <glyph glyph-name="jcircumflex" unicode="&#x135;" horiz-adv-x="312" 
d="M-20 -216l-17 140q62 5 87 30q16 16 22.5 49t6.5 101v388h181v-426q0 -155 -74 -220q-71 -62 -206 -62zM105 706h112l101 -156h-109l-47 83h-2l-46 -83h-109z" />
    <glyph glyph-name="Kcommaaccent" unicode="&#x136;" horiz-adv-x="646" 
d="M62 0v674h179v-286h2l43 74l130 212h222l-214 -287l222 -387h-209l-142 273l-54 -69v-204h-179zM252 -250l-25 75q25 6 43.5 21.5t18.5 37.5t-27 59l123 19q39 -29 39 -81q0 -63 -47 -96t-125 -35z" />
    <glyph glyph-name="kcommaaccent" unicode="&#x137;" horiz-adv-x="575" 
d="M236 711v-419h2q21 42 32 60l81 140h215l-170 -198l195 -294h-222l-97 188l-36 -48v-140h-181v711h181zM214 -251l-25 75q25 5 43.5 20.5t18.5 38.5q0 22 -27 59l123 19q39 -29 39 -81q0 -63 -47 -96t-125 -35z" />
    <glyph glyph-name="kgreenlandic" unicode="&#x138;" horiz-adv-x="575" 
d="M236 492v-200h2q21 42 32 60l81 140h215l-170 -198l195 -294h-222l-97 188l-36 -48v-140h-181v492h181z" />
    <glyph glyph-name="Lacute" unicode="&#x139;" horiz-adv-x="528" 
d="M62 0v674h181v-523h259v-151h-440zM159 836h183l-120 -126h-144z" />
    <glyph glyph-name="lacute" unicode="&#x13a;" horiz-adv-x="292" 
d="M55 0v711h181v-711h-181zM142 866h183l-120 -126h-144z" />
    <glyph glyph-name="Lcommaaccent" unicode="&#x13b;" horiz-adv-x="528" 
d="M62 0v674h181v-523h259v-151h-440zM191 -250l-25 75q25 6 43.5 21.5t18.5 37.5t-27 59l123 19q39 -29 39 -81q0 -63 -47 -96t-125 -35z" />
    <glyph glyph-name="lcommaaccent" unicode="&#x13c;" horiz-adv-x="292" 
d="M55 0v711h181v-711h-181zM61 -251l-25 75q25 5 43.5 20.5t18.5 38.5q0 22 -27 59l123 19q39 -29 39 -81q0 -63 -47 -96t-125 -35z" />
    <glyph glyph-name="Lcaron" unicode="&#x13d;" horiz-adv-x="528" 
d="M62 0v674h181v-523h259v-151h-440zM309 477l-25 75q25 6 43.5 21.5t18.5 37.5t-27 59l123 19q39 -29 39 -81q0 -63 -47 -96t-125 -35z" />
    <glyph glyph-name="lcaron" unicode="&#x13e;" horiz-adv-x="302" 
d="M55 0v711h181v-711h-181zM355 484l-84 45q24 55 24 107q0 35 -15 69l110 18q30 -26 30 -82q0 -84 -65 -157z" />
    <glyph glyph-name="Ldot" unicode="&#x13f;" horiz-adv-x="528" 
d="M62 0v674h181v-523h259v-151h-440zM403 305h-1q-33 0 -55.5 22.5t-22.5 53.5q0 33 23 55t56 22q32 0 53.5 -22t21.5 -55q0 -31 -22 -53.5t-53 -22.5z" />
    <glyph glyph-name="ldot" unicode="&#x140;" horiz-adv-x="389" 
d="M55 0v711h181v-711h-181zM343 324h-1q-30 0 -51 22t-21 54q0 33 21 54.5t52 21.5q29 0 49 -21.5t20 -54.5q0 -32 -20 -54t-49 -22z" />
    <glyph glyph-name="Lslash" unicode="&#x141;" horiz-adv-x="535" 
d="M510 0h-440v220l-72 -47v122l72 47v332h181v-213l122 80v-122l-122 -80v-188h259v-151z" />
    <glyph glyph-name="lslash" unicode="&#x142;" horiz-adv-x="307" 
d="M244 0h-181v204l-63 -49v126l63 49v381h181v-248l71 55v-126l-71 -55v-337z" />
    <glyph glyph-name="Nacute" unicode="&#x143;" horiz-adv-x="705" 
d="M227 0h-165v674h213l107 -207q52 -95 106 -236h3q-14 125 -14 283v160h165v-674h-190l-115 224q-70 135 -113 243h-4q7 -127 7 -301v-166zM346 836h183l-120 -126h-144z" />
    <glyph glyph-name="nacute" unicode="&#x144;" horiz-adv-x="599" 
d="M55 0v324q0 76 -4 168h156l8 -63h3q19 27 56.5 50.5t91.5 23.5q86 0 132 -55.5t46 -157.5v-290h-181v268q0 90 -63 90q-41 0 -59 -43q-5 -11 -5 -36v-279h-181zM299 706h160l-123 -156h-122z" />
    <glyph glyph-name="Ncommaaccent" unicode="&#x145;" horiz-adv-x="705" 
d="M227 0h-165v674h213l107 -207q52 -95 106 -236h3q-14 125 -14 283v160h165v-674h-190l-115 224q-70 135 -113 243h-4q7 -127 7 -301v-166zM280 -247l-25 75q25 6 43.5 21.5t18.5 37.5t-27 59l123 19q39 -29 39 -81q0 -63 -47 -96t-125 -35z" />
    <glyph glyph-name="ncommaaccent" unicode="&#x146;" horiz-adv-x="599" 
d="M55 0v324q0 76 -4 168h156l8 -63h3q19 27 56.5 50.5t91.5 23.5q86 0 132 -55.5t46 -157.5v-290h-181v268q0 90 -63 90q-41 0 -59 -43q-5 -11 -5 -36v-279h-181zM226 -251l-25 75q25 5 43.5 20.5t18.5 38.5q0 22 -27 59l123 19q39 -29 39 -81q0 -63 -47 -96t-125 -35z" />
    <glyph glyph-name="Ncaron" unicode="&#x147;" horiz-adv-x="705" 
d="M227 0h-165v674h213l107 -207q52 -95 106 -236h3q-14 125 -14 283v160h165v-674h-190l-115 224q-70 135 -113 243h-4q7 -127 7 -301v-166zM425 710h-135l-99 126h121l45 -59h2l44 59h121z" />
    <glyph glyph-name="ncaron" unicode="&#x148;" horiz-adv-x="599" 
d="M55 0v324q0 76 -4 168h156l8 -63h3q19 27 56.5 50.5t91.5 23.5q86 0 132 -55.5t46 -157.5v-290h-181v268q0 90 -63 90q-41 0 -59 -43q-5 -11 -5 -36v-279h-181zM359 550h-120l-101 156h113l47 -84h2l47 84h114z" />
    <glyph glyph-name="napostrophe" unicode="&#x149;" horiz-adv-x="599" 
d="M55 0v324q0 76 -4 168h156l8 -63h3q19 27 56.5 50.5t91.5 23.5q86 0 132 -55.5t46 -157.5v-290h-181v268q0 90 -63 90q-41 0 -59 -43q-5 -11 -5 -36v-279h-181zM84 519l-80 46q28 48 28 89q0 29 -15 53l112 29q11 -8 20.5 -29t9.5 -48q0 -76 -75 -140z" />
    <glyph glyph-name="Eng" unicode="&#x14a;" horiz-adv-x="705" 
d="M227 0h-165v674h213l107 -207q52 -95 106 -236h3q-14 125 -14 283v160h165v-621q0 -132 -65 -198t-178 -77l-40 136q91 24 105 67l-127 243q-70 135 -113 243h-4q7 -127 7 -301v-166z" />
    <glyph glyph-name="eng" unicode="&#x14b;" horiz-adv-x="599" 
d="M55 0v324q0 76 -4 168h156l8 -63h3q19 27 56.5 50.5t91.5 23.5q86 0 132 -55.5t46 -157.5v-231q0 -238 -215 -261l-36 139q38 6 54 26.5t16 64.5v240q0 90 -63 90q-41 0 -59 -43q-5 -11 -5 -36v-279h-181z" />
    <glyph glyph-name="Omacron" unicode="&#x14c;" horiz-adv-x="730" 
d="M359 -11h-1q-151 0 -237.5 98.5t-86.5 245.5q0 151 91.5 251.5t243.5 100.5q155 0 241 -98.5t86 -242.5q0 -163 -91 -259t-246 -96zM365 132h2q64 0 101 56.5t37 149.5q0 89 -37.5 146.5t-102.5 57.5q-64 0 -102 -57.5t-38 -147.5q-1 -92 37 -148.5t103 -56.5zM232 827
h268v-92h-268v92z" />
    <glyph glyph-name="omacron" unicode="&#x14d;" horiz-adv-x="589" 
d="M293 -11h-1q-114 0 -187.5 68t-73.5 185q0 119 73 190t198 71q115 0 185.5 -70t70.5 -182q0 -127 -77 -194.5t-188 -67.5zM296 116h1q36 0 55.5 35t19.5 95q0 56 -19 93t-56 37q-42 0 -61 -37.5t-19 -92.5q0 -59 20 -94.5t59 -35.5zM165 675h261v-96h-261v96z" />
    <glyph glyph-name="Obreve" unicode="&#x14e;" horiz-adv-x="730" 
d="M359 -11h-1q-151 0 -237.5 98.5t-86.5 245.5q0 151 91.5 251.5t243.5 100.5q155 0 241 -98.5t86 -242.5q0 -163 -91 -259t-246 -96zM365 132h2q64 0 101 56.5t37 149.5q0 89 -37.5 146.5t-102.5 57.5q-64 0 -102 -57.5t-38 -147.5q-1 -92 37 -148.5t103 -56.5zM218 849
h93q4 -45 53 -45q50 0 59 45h89q-1 -62 -38 -98.5t-109 -36.5q-74 0 -109.5 36t-37.5 99z" />
    <glyph glyph-name="obreve" unicode="&#x14f;" horiz-adv-x="589" 
d="M293 -11h-1q-114 0 -187.5 68t-73.5 185q0 119 73 190t198 71q115 0 185.5 -70t70.5 -182q0 -127 -77 -194.5t-188 -67.5zM296 116h1q36 0 55.5 35t19.5 95q0 56 -19 93t-56 37q-42 0 -61 -37.5t-19 -92.5q0 -59 20 -94.5t59 -35.5zM150 697h91q8 -58 53 -58
q28 0 41.5 16.5t14.5 41.5h90q-1 -69 -38 -110t-107 -41t-107 41t-38 110z" />
    <glyph glyph-name="Ohungarumlaut" unicode="&#x150;" horiz-adv-x="730" 
d="M359 -11h-1q-151 0 -237.5 98.5t-86.5 245.5q0 151 91.5 251.5t243.5 100.5q155 0 241 -98.5t86 -242.5q0 -163 -91 -259t-246 -96zM365 132h2q64 0 101 56.5t37 149.5q0 89 -37.5 146.5t-102.5 57.5q-64 0 -102 -57.5t-38 -147.5q-1 -92 37 -148.5t103 -56.5zM266 838
h161l-98 -118h-122zM462 838h161l-97 -118h-123z" />
    <glyph glyph-name="ohungarumlaut" unicode="&#x151;" horiz-adv-x="589" 
d="M293 -11h-1q-114 0 -187.5 68t-73.5 185q0 119 73 190t198 71q115 0 185.5 -70t70.5 -182q0 -127 -77 -194.5t-188 -67.5zM296 116h1q36 0 55.5 35t19.5 95q0 56 -19 93t-56 37q-42 0 -61 -37.5t-19 -92.5q0 -59 20 -94.5t59 -35.5zM185 705h134l-92 -155h-99zM370 705
h135l-92 -155h-99z" />
    <glyph glyph-name="OE" unicode="&#x152;" horiz-adv-x="954" 
d="M916 148v-148h-397q-4 0 -59 -5q-46 -6 -83 -6q-87 0 -154.5 28t-107.5 76.5t-60.5 108.5t-20.5 129q0 160 94.5 257t250.5 97q42 0 92 -6q9 -1 22.5 -2t22.5 -2t17 -1h369v-148h-257v-108h242v-146h-242v-124h271zM464 143v386q-26 13 -67 13q-70 0 -121 -53t-51 -152
q-1 -91 47.5 -148t135.5 -57q32 0 56 11z" />
    <glyph glyph-name="oe" unicode="&#x153;" horiz-adv-x="871" 
d="M840 186h-301q4 -28 39 -46.5t82 -18.5q69 0 139 26l23 -120q-69 -38 -187 -38q-115 0 -176 74h-3q-62 -74 -180 -74q-104 0 -174.5 69t-70.5 187q0 115 71 186.5t185 71.5q51 0 96.5 -19t70.5 -56h2q62 75 168 75q111 0 166 -71t55 -181q0 -15 -5 -65zM298 376h-1
q-43 0 -61.5 -38t-18.5 -93q0 -57 19.5 -93t58.5 -36q38 0 57.5 34.5t19.5 95.5q0 56 -19 93t-55 37zM536 306h143q0 79 -71 79q-35 0 -53.5 -25.5t-18.5 -53.5z" />
    <glyph glyph-name="Racute" unicode="&#x154;" horiz-adv-x="617" 
d="M62 0v664q96 15 218 15q159 0 228 -53q66 -51 66 -146q0 -58 -35 -102t-80 -61v-3q58 -27 86 -121q7 -25 19 -72t21 -78.5t15 -42.5h-184q-21 43 -47 156q-13 58 -34 77.5t-65 19.5h-29v-253h-179zM241 541v-158h47q50 0 78.5 22.5t28.5 60.5t-24 58.5t-69 20.5
q-43 0 -61 -4zM294 836h183l-120 -126h-144z" />
    <glyph glyph-name="racute" unicode="&#x155;" horiz-adv-x="403" 
d="M55 0v326q0 111 -4 166h154l7 -89h4q18 51 55.5 75.5t75.5 24.5q23 0 36 -3v-169q-22 5 -46 5q-83 0 -99 -62q-2 -16 -2 -31v-243h-181zM210 706h160l-123 -156h-122z" />
    <glyph glyph-name="Rcommaaccent" unicode="&#x156;" horiz-adv-x="617" 
d="M62 0v664q96 15 218 15q159 0 228 -53q66 -51 66 -146q0 -58 -35 -102t-80 -61v-3q58 -27 86 -121q7 -25 19 -72t21 -78.5t15 -42.5h-184q-21 43 -47 156q-13 58 -34 77.5t-65 19.5h-29v-253h-179zM241 541v-158h47q50 0 78.5 22.5t28.5 60.5t-24 58.5t-69 20.5
q-43 0 -61 -4zM235 -250l-25 75q25 6 43.5 21.5t18.5 37.5t-27 59l123 19q39 -29 39 -81q0 -63 -47 -96t-125 -35z" />
    <glyph glyph-name="rcommaaccent" unicode="&#x157;" horiz-adv-x="403" 
d="M55 0v326q0 111 -4 166h154l7 -89h4q18 51 55.5 75.5t75.5 24.5q23 0 36 -3v-169q-22 5 -46 5q-83 0 -99 -62q-2 -16 -2 -31v-243h-181zM68 -251l-25 75q25 5 43.5 20.5t18.5 38.5q0 22 -27 59l123 19q39 -29 39 -81q0 -63 -47 -96t-125 -35z" />
    <glyph glyph-name="Rcaron" unicode="&#x158;" horiz-adv-x="617" 
d="M62 0v664q96 15 218 15q159 0 228 -53q66 -51 66 -146q0 -58 -35 -102t-80 -61v-3q58 -27 86 -121q7 -25 19 -72t21 -78.5t15 -42.5h-184q-21 43 -47 156q-13 58 -34 77.5t-65 19.5h-29v-253h-179zM241 541v-158h47q50 0 78.5 22.5t28.5 60.5t-24 58.5t-69 20.5
q-43 0 -61 -4zM371 710h-135l-99 126h121l45 -59h2l44 59h121z" />
    <glyph glyph-name="rcaron" unicode="&#x159;" horiz-adv-x="403" 
d="M55 0v326q0 111 -4 166h154l7 -89h4q18 51 55.5 75.5t75.5 24.5q23 0 36 -3v-169q-22 5 -46 5q-83 0 -99 -62q-2 -16 -2 -31v-243h-181zM269 550h-120l-101 156h113l47 -84h2l47 84h114z" />
    <glyph glyph-name="Sacute" unicode="&#x15a;" horiz-adv-x="561" 
d="M40 31l34 149q82 -42 175 -42q92 0 92 55q0 24 -23.5 40.5t-82.5 36.5q-190 68 -190 203q0 92 73 151.5t198 59.5q103 0 182 -34l-38 -145q-71 32 -146 32q-41 0 -63 -13.5t-22 -36.5t22 -36.5t95 -40.5q3 -2 4 -2q90 -34 132.5 -83t42.5 -120q0 -93 -73 -154t-214 -61
q-57 0 -112 12.5t-86 28.5zM292 836h183l-120 -126h-144z" />
    <glyph glyph-name="sacute" unicode="&#x15b;" horiz-adv-x="451" 
d="M29 25l31 127q22 -14 63.5 -25.5t72.5 -11.5q54 0 54 27q0 13 -12 21t-52 21q-147 46 -145 150q0 74 59 121.5t155 47.5q82 0 146 -28l-29 -122q-56 27 -109 27q-49 0 -49 -28q0 -12 15.5 -21.5t58.5 -23.5q71 -23 102.5 -60.5t32.5 -91.5q0 -74 -57.5 -119.5
t-167.5 -45.5q-101 0 -169 35zM243 706h160l-123 -156h-122z" />
    <glyph glyph-name="Scircumflex" unicode="&#x15c;" horiz-adv-x="561" 
d="M40 31l34 149q82 -42 175 -42q92 0 92 55q0 24 -23.5 40.5t-82.5 36.5q-190 68 -190 203q0 92 73 151.5t198 59.5q103 0 182 -34l-38 -145q-71 32 -146 32q-41 0 -63 -13.5t-22 -36.5t22 -36.5t95 -40.5q3 -2 4 -2q90 -34 132.5 -83t42.5 -120q0 -93 -73 -154t-214 -61
q-57 0 -112 12.5t-86 28.5zM217 836h135l99 -126h-121l-45 59h-2l-44 -59h-121z" />
    <glyph glyph-name="scircumflex" unicode="&#x15d;" horiz-adv-x="451" 
d="M29 25l31 127q22 -14 63.5 -25.5t72.5 -11.5q54 0 54 27q0 13 -12 21t-52 21q-147 46 -145 150q0 74 59 121.5t155 47.5q82 0 146 -28l-29 -122q-56 27 -109 27q-49 0 -49 -28q0 -12 15.5 -21.5t58.5 -23.5q71 -23 102.5 -60.5t32.5 -91.5q0 -74 -57.5 -119.5
t-167.5 -45.5q-101 0 -169 35zM170 706h120l101 -156h-113l-47 84h-2l-47 -84h-114z" />
    <glyph glyph-name="Scedilla" unicode="&#x15e;" horiz-adv-x="561" 
d="M40 31l34 149q82 -42 175 -42t93 55q0 24 -24 40.5t-83 36.5q-190 68 -190 203q0 92 73.5 151.5t198.5 59.5q102 0 181 -34l-38 -145q-71 32 -145 32q-41 0 -63.5 -13.5t-22.5 -36.5t22 -36.5t95 -40.5q3 -2 4 -2q90 -34 132.5 -83t42.5 -120q0 -76 -50.5 -132.5
t-148.5 -74.5l-20 -39q30 -3 51.5 -23t21.5 -48q0 -48 -37 -70.5t-92 -22.5q-52 0 -86 21l22 62q31 -17 55 -17q33 0 33 23q0 29 -78 34l34 72h-1q-44 0 -99.5 12t-89.5 29z" />
    <glyph glyph-name="Scedilla" unicode="&#xf6c1;" horiz-adv-x="561" 
d="M40 31l34 149q82 -42 175 -42t93 55q0 24 -24 40.5t-83 36.5q-190 68 -190 203q0 92 73.5 151.5t198.5 59.5q102 0 181 -34l-38 -145q-71 32 -145 32q-41 0 -63.5 -13.5t-22.5 -36.5t22 -36.5t95 -40.5q3 -2 4 -2q90 -34 132.5 -83t42.5 -120q0 -76 -50.5 -132.5
t-148.5 -74.5l-20 -39q30 -3 51.5 -23t21.5 -48q0 -48 -37 -70.5t-92 -22.5q-52 0 -86 21l22 62q31 -17 55 -17q33 0 33 23q0 29 -78 34l34 72h-1q-44 0 -99.5 12t-89.5 29z" />
    <glyph glyph-name="scedilla" unicode="&#x15f;" horiz-adv-x="451" 
d="M29 24l31 127q22 -14 63.5 -25.5t72.5 -11.5q54 0 54 27q0 14 -12.5 22t-51.5 20q-145 47 -145 151q1 74 59.5 121.5t154.5 47.5q82 0 146 -28l-29 -122q-56 27 -109 27q-49 0 -49 -28q0 -12 15.5 -21.5t58.5 -23.5q71 -23 103 -60.5t32 -92.5q0 -61 -39.5 -103
t-115.5 -56l-20 -36q30 -4 51.5 -24.5t21.5 -49.5q0 -48 -36 -69t-93 -21q-54 0 -86 21l22 62q31 -17 55 -17q33 0 33 23q0 29 -78 34l34 72h-1q-73 0 -142 34z" />
    <glyph glyph-name="scedilla" unicode="&#xf6c2;" horiz-adv-x="451" 
d="M29 24l31 127q22 -14 63.5 -25.5t72.5 -11.5q54 0 54 27q0 14 -12.5 22t-51.5 20q-145 47 -145 151q1 74 59.5 121.5t154.5 47.5q82 0 146 -28l-29 -122q-56 27 -109 27q-49 0 -49 -28q0 -12 15.5 -21.5t58.5 -23.5q71 -23 103 -60.5t32 -92.5q0 -61 -39.5 -103
t-115.5 -56l-20 -36q30 -4 51.5 -24.5t21.5 -49.5q0 -48 -36 -69t-93 -21q-54 0 -86 21l22 62q31 -17 55 -17q33 0 33 23q0 29 -78 34l34 72h-1q-73 0 -142 34z" />
    <glyph glyph-name="Scaron" unicode="&#x160;" horiz-adv-x="561" 
d="M40 31l34 149q82 -42 175 -42q92 0 92 55q0 24 -23.5 40.5t-82.5 36.5q-190 68 -190 203q0 92 73 151.5t198 59.5q103 0 182 -34l-38 -145q-71 32 -146 32q-41 0 -63 -13.5t-22 -36.5t22 -36.5t95 -40.5q3 -2 4 -2q90 -34 132.5 -83t42.5 -120q0 -93 -73 -154t-214 -61
q-57 0 -112 12.5t-86 28.5zM357 710h-135l-99 126h121l45 -59h2l44 59h121z" />
    <glyph glyph-name="scaron" unicode="&#x161;" horiz-adv-x="451" 
d="M29 25l31 127q22 -14 63.5 -25.5t72.5 -11.5q54 0 54 27q0 13 -12 21t-52 21q-147 46 -145 150q0 74 59 121.5t155 47.5q82 0 146 -28l-29 -122q-56 27 -109 27q-49 0 -49 -28q0 -12 15.5 -21.5t58.5 -23.5q71 -23 102.5 -60.5t32.5 -91.5q0 -74 -57.5 -119.5
t-167.5 -45.5q-101 0 -169 35zM288 550h-120l-101 156h113l47 -84h2l47 84h114z" />
    <glyph glyph-name="Tcommaaccent" unicode="&#x162;" horiz-adv-x="570" 
d="M193 0v522h-172v152h528v-152h-175v-522h-181zM197 -250l-25 75q25 6 43.5 21.5t18.5 37.5t-27 59l123 19q39 -29 39 -81q0 -63 -47 -96t-125 -35z" />
    <glyph glyph-name="Tcommaaccent" unicode="&#x21a;" horiz-adv-x="570" 
d="M193 0v522h-172v152h528v-152h-175v-522h-181zM197 -250l-25 75q25 6 43.5 21.5t18.5 37.5t-27 59l123 19q39 -29 39 -81q0 -63 -47 -96t-125 -35z" />
    <glyph glyph-name="tcommaaccent" unicode="&#x163;" horiz-adv-x="383" 
d="M77 584l176 48v-140h102v-132h-102v-141q0 -45 12.5 -63.5t44.5 -18.5q28 0 43 4v-137q-37 -14 -107 -14q-78 0 -123 45q-46 46 -46 153v172h-61v132h61v92zM128 -251l-25 75q25 5 43.5 20.5t18.5 38.5q0 22 -27 59l123 19q39 -29 39 -81q0 -63 -47 -96t-125 -35z" />
    <glyph glyph-name="tcommaaccent" unicode="&#x21b;" horiz-adv-x="383" 
d="M77 584l176 48v-140h102v-132h-102v-141q0 -45 12.5 -63.5t44.5 -18.5q28 0 43 4v-137q-37 -14 -107 -14q-78 0 -123 45q-46 46 -46 153v172h-61v132h61v92zM128 -251l-25 75q25 5 43.5 20.5t18.5 38.5q0 22 -27 59l123 19q39 -29 39 -81q0 -63 -47 -96t-125 -35z" />
    <glyph glyph-name="Tcaron" unicode="&#x164;" horiz-adv-x="570" 
d="M193 0v522h-172v152h528v-152h-175v-522h-181zM352 710h-135l-99 126h121l45 -59h2l44 59h121z" />
    <glyph glyph-name="tcaron" unicode="&#x165;" horiz-adv-x="385" 
d="M77 585l176 47v-140h102v-132h-102v-141q0 -45 12.5 -63.5t44.5 -18.5q28 0 43 4v-137q-37 -14 -107 -14q-78 0 -123 45q-46 46 -46 153v172h-61v132h61v93zM350 536l-41 64q14 9 22.5 28t8.5 37q0 27 -13 53l112 17q12 -10 21 -29.5t9 -39.5q0 -53 -37.5 -87t-81.5 -43z
" />
    <glyph glyph-name="Tbar" unicode="&#x166;" horiz-adv-x="570" 
d="M549 522h-175v-141h110v-104h-110v-277h-181v277h-112v104h112v141h-172v152h528v-152z" />
    <glyph glyph-name="tbar" unicode="&#x167;" horiz-adv-x="383" 
d="M355 360h-102v-51h76v-91h-76v-13q0 -37 14 -52.5t43 -15.5q28 0 43 4v-137q-37 -14 -107 -14q-78 0 -123 45q-46 46 -46 153v30h-61v91h61v51h-61v132h61v92l176 48v-140h102v-132z" />
    <glyph glyph-name="Utilde" unicode="&#x168;" horiz-adv-x="697" 
d="M61 674h181v-383q0 -159 106 -159q107 0 107 159v383h181v-372q0 -155 -75 -234t-218 -79q-282 0 -282 317v368zM282 714h-80q-2 69 20 104t61 35q32 0 66 -20q31 -20 43 -20q13 0 18.5 9t8.5 35h78q2 -73 -19.5 -104.5t-64.5 -31.5q-35 0 -67 18q-31 18 -41 18
q-20 0 -23 -43z" />
    <glyph glyph-name="utilde" unicode="&#x169;" horiz-adv-x="598" 
d="M541 492v-324q0 -84 4 -168h-156l-8 65h-3q-51 -76 -149 -76q-84 0 -129.5 54t-45.5 159v290h181v-261q0 -97 63 -97q43 0 58 42q4 9 4 26v290h181zM231 553h-82q-3 68 21.5 106t66.5 38q30 0 66 -20q34 -20 43 -20q12 0 17.5 9t7.5 36h80q5 -140 -88 -140q-30 0 -72 22
q-28 15 -36 15q-23 0 -24 -46z" />
    <glyph glyph-name="Umacron" unicode="&#x16a;" horiz-adv-x="697" 
d="M61 674h181v-383q0 -159 106 -159q107 0 107 159v383h181v-372q0 -155 -75 -234t-218 -79q-282 0 -282 317v368zM216 827h268v-92h-268v92z" />
    <glyph glyph-name="umacron" unicode="&#x16b;" horiz-adv-x="598" 
d="M541 492v-324q0 -84 4 -168h-156l-8 65h-3q-51 -76 -149 -76q-84 0 -129.5 54t-45.5 159v290h181v-261q0 -97 63 -97q43 0 58 42q4 9 4 26v290h181zM169 675h261v-96h-261v96z" />
    <glyph glyph-name="Ubreve" unicode="&#x16c;" horiz-adv-x="697" 
d="M61 674h181v-383q0 -159 106 -159q107 0 107 159v383h181v-372q0 -155 -75 -234t-218 -79q-282 0 -282 317v368zM202 840h93q4 -45 53 -45q50 0 59 45h89q-1 -62 -38 -98.5t-109 -36.5q-74 0 -109.5 36t-37.5 99z" />
    <glyph glyph-name="ubreve" unicode="&#x16d;" horiz-adv-x="598" 
d="M541 492v-324q0 -84 4 -168h-156l-8 65h-3q-51 -76 -149 -76q-84 0 -129.5 54t-45.5 159v290h181v-261q0 -97 63 -97q43 0 58 42q4 9 4 26v290h181zM154 697h91q8 -58 53 -58q28 0 41.5 16.5t14.5 41.5h90q-1 -69 -38 -110t-107 -41t-107 41t-38 110z" />
    <glyph glyph-name="Uring" unicode="&#x16e;" horiz-adv-x="697" 
d="M61 674h181v-383q0 -159 106 -159q107 0 107 159v383h181v-372q0 -155 -75 -234t-218 -79q-282 0 -282 317v368zM350 891h1q58 0 89 -28.5t31 -73.5q0 -44 -32 -72t-89 -28t-89.5 28.5t-32.5 70.5q0 44 32 73.5t90 29.5zM348 834h-1q-19 0 -30 -13.5t-11 -31.5
t11.5 -30.5t30.5 -12.5q21 0 32.5 12t11.5 31q0 18 -12 31.5t-32 13.5z" />
    <glyph glyph-name="uring" unicode="&#x16f;" horiz-adv-x="598" 
d="M541 492v-324q0 -84 4 -168h-156l-8 65h-3q-51 -76 -149 -76q-84 0 -129.5 54t-45.5 159v290h181v-261q0 -97 63 -97q43 0 58 42q4 9 4 26v290h181zM300 741h1q57 0 88 -28t31 -73q0 -44 -32.5 -72t-87.5 -28q-56 0 -88.5 28t-32.5 71q0 45 32 73.5t89 28.5zM300 686h-1
q-20 0 -31 -14t-11 -33q0 -17 11.5 -30.5t30.5 -13.5q21 0 32.5 13t11.5 32t-11.5 32.5t-31.5 13.5z" />
    <glyph glyph-name="Uhungarumlaut" unicode="&#x170;" horiz-adv-x="697" 
d="M61 674h181v-383q0 -159 106 -159q107 0 107 159v383h181v-372q0 -155 -75 -234t-218 -79q-282 0 -282 317v368zM248 838h161l-98 -118h-122zM444 838h161l-97 -118h-123z" />
    <glyph glyph-name="uhungarumlaut" unicode="&#x171;" horiz-adv-x="598" 
d="M541 492v-324q0 -84 4 -168h-156l-8 65h-3q-51 -76 -149 -76q-84 0 -129.5 54t-45.5 159v290h181v-261q0 -97 63 -97q43 0 58 42q4 9 4 26v290h181zM210 705h134l-92 -155h-99zM395 705h135l-92 -155h-99z" />
    <glyph glyph-name="Uogonek" unicode="&#x172;" horiz-adv-x="697" 
d="M469 -107l25 -82q-52 -36 -120 -36q-53 0 -81 25t-28 68q0 60 58 123h-6q-256 11 -256 316v367h181v-382q0 -159 106 -159q107 0 107 159v382h181v-371q0 -256 -197 -302q-50 -46 -50 -82q0 -16 11 -25t27 -9q20 0 42 8z" />
    <glyph glyph-name="uogonek" unicode="&#x173;" horiz-adv-x="598" 
d="M541 492v-324q0 -84 4 -168h-60q-13 -30 -13 -57q0 -25 16 -41.5t40 -16.5q25 0 43 6l24 -81q-46 -35 -111 -35q-57 0 -89 29t-32 86q0 21 5 43.5t13 44t8 22.5l-8 65h-3q-51 -76 -149 -76q-84 0 -129.5 54t-45.5 159v290h181v-261q0 -97 63 -97q43 0 58 42q4 9 4 26v290
h181z" />
    <glyph glyph-name="Wcircumflex" unicode="&#x174;" horiz-adv-x="906" 
d="M370 0h-200l-155 674h194l39 -250q2 -13 34 -237h2q14 94 40 240l43 247h193l42 -259q16 -101 30 -223h2q9 68 34 235l40 247h183l-166 -674h-197l-45 264q-16 93 -28 202h-2q-20 -142 -32 -202zM393 836h135l99 -126h-121l-45 59h-2l-44 -59h-121z" />
    <glyph glyph-name="wcircumflex" unicode="&#x175;" horiz-adv-x="769" 
d="M8 492h184l28 -181q17 -102 24 -163h2q4 25 33 162l39 182h141l38 -175q28 -140 32 -169h2q8 74 25 171l29 173h176l-147 -492h-170l-34 146q-12 54 -27 150h-2q-9 -81 -25 -148l-37 -148h-170zM326 706h120l101 -156h-113l-47 84h-2l-47 -84h-114z" />
    <glyph glyph-name="Ycircumflex" unicode="&#x176;" horiz-adv-x="629" 
d="M400 0h-181v272l-212 402h207l57 -152q31 -80 46 -125h2q19 61 43 125l55 152h204l-221 -395v-279zM248 836h135l99 -126h-121l-45 59h-2l-44 -59h-121z" />
    <glyph glyph-name="ycircumflex" unicode="&#x177;" horiz-adv-x="545" 
d="M5 492h200l59 -221l12.5 -51t8.5 -37h4q3 12 9 43t9 44l45 222h192l-105 -313q-52 -146 -92 -218t-83 -110q-70 -62 -164 -72l-37 152q32 5 62 19q34 13 58 45q9 13 9 22q0 12 -7 26zM221 706h120l101 -156h-113l-47 84h-2l-47 -84h-114z" />
    <glyph glyph-name="Ydieresis" unicode="&#x178;" horiz-adv-x="629" 
d="M400 0h-181v272l-212 402h207l57 -152q31 -80 46 -125h2q19 61 43 125l55 152h204l-221 -395v-279zM217 709h-1q-32 0 -54.5 22.5t-22.5 54.5t22.5 54t55.5 22q31 0 52.5 -22t21.5 -54t-21.5 -54.5t-52.5 -22.5zM434 709h-1q-32 0 -54 22.5t-22 54.5t22 54t55 22
q32 0 53.5 -22t21.5 -54t-22 -54.5t-53 -22.5z" />
    <glyph glyph-name="Zacute" unicode="&#x179;" horiz-adv-x="588" 
d="M21 0v96l298 425v4h-270v149h504v-103l-289 -418v-4h294v-149h-537zM287 836h183l-120 -126h-144z" />
    <glyph glyph-name="zacute" unicode="&#x17a;" horiz-adv-x="486" 
d="M24 0v103l126 153l84 91v2h-194v143h414v-108l-118 -143q-58 -68 -87 -96v-2h214v-143h-439zM257 706h160l-123 -156h-122z" />
    <glyph glyph-name="Zdotaccent" unicode="&#x17b;" horiz-adv-x="588" 
d="M21 0v96l298 425v4h-270v149h504v-103l-289 -418v-4h294v-149h-537zM299 709h-1q-33 0 -55.5 22.5t-22.5 53.5q0 33 23 55t56 22q32 0 53.5 -22t21.5 -55q0 -31 -22 -53.5t-53 -22.5z" />
    <glyph glyph-name="zdotaccent" unicode="&#x17c;" horiz-adv-x="486" 
d="M24 0v103l126 153l84 91v2h-194v143h414v-108l-118 -143q-58 -68 -87 -96v-2h214v-143h-439zM249 551h-1q-34 0 -57 23t-23 56q0 34 23 56.5t58 22.5q32 0 54 -22.5t22 -56.5q0 -33 -22 -56t-54 -23z" />
    <glyph glyph-name="Zcaron" unicode="&#x17d;" horiz-adv-x="588" 
d="M21 0v96l298 425v4h-270v149h504v-103l-289 -418v-4h294v-149h-537zM366 710h-135l-99 126h121l45 -59h2l44 59h121z" />
    <glyph glyph-name="zcaron" unicode="&#x17e;" horiz-adv-x="486" 
d="M24 0v103l126 153l84 91v2h-194v143h414v-108l-118 -143q-58 -68 -87 -96v-2h214v-143h-439zM305 550h-120l-101 156h113l47 -84h2l47 84h114z" />
    <glyph glyph-name="florin" unicode="&#x192;" horiz-adv-x="573" 
d="M115 292v124h88l3 27q2 21 7 43.5t21 55.5t39 58t64.5 43t95.5 18q57 0 89 -17l-28 -126q-18 8 -45 8q-59 0 -68 -69l-6 -41h94v-124h-109l-21 -167q-6 -49 -18 -84.5t-34.5 -68t-61.5 -49t-94 -16.5q-68 2 -97 17l24 124q17 -5 43 -7q24 1 36 10t21 37.5t17 88.5l13 115
h-73z" />
    <glyph glyph-name="AEacute" unicode="&#x1fc;" horiz-adv-x="902" 
d="M190 0h-186l278 674h553v-148h-272l14 -112h256v-146h-233l17 -120h259v-148h-414l-21 161h-193zM301 305h119l-19 150l-12 92h-3l-30 -95zM478 836h183l-120 -126h-144z" />
    <glyph glyph-name="aeacute" unicode="&#x1fd;" horiz-adv-x="816" 
d="M785 190h-303q4 -30 37 -49.5t85 -19.5q73 0 139 26l23 -120q-75 -38 -189 -38q-61 0 -110.5 20.5t-76.5 58.5h-4q-70 -79 -183 -79q-80 0 -128 45.5t-48 114.5q0 89 78.5 135.5t208.5 46.5v12q0 6 -6 13.5t-27 15.5t-52 8q-66 0 -133 -37l-33 113q97 47 181 47
q113 0 164 -69h2q64 69 166 69q103 0 158 -72t55 -180q0 -12 -2 -34t-2 -27zM319 180v43q-116 0 -116 -61q0 -24 15 -36t38 -12q38 0 59 38q4 7 4 28zM481 310h143q0 11 -2.5 22.5t-9 24.5t-21.5 21.5t-36 8.5q-36 0 -55 -25.5t-19 -51.5zM407 706h160l-123 -156h-122z" />
    <glyph glyph-name="Oslashacute" unicode="&#x1fe;" horiz-adv-x="730" 
d="M172 -76l-97 76l55 84q-96 96 -96 254q0 147 91.5 247t240.5 100q75 0 140 -27l54 80l101 -67l-54 -84q89 -95 89 -246q0 -160 -91 -256t-240 -96q-71 0 -133 25zM232 238l191 292q-24 15 -58 15q-68 0 -109 -56t-41 -151q0 -52 16 -100h1zM502 427l-187 -285
q19 -13 50 -13q69 0 109.5 55.5t40.5 153.5q0 41 -11 88zM358 840h183l-120 -126h-144z" />
    <glyph glyph-name="oslashacute" unicode="&#x1ff;" horiz-adv-x="589" 
d="M294 503h1q67 0 116 -23l49 73l59 -41l-47 -70q86 -69 86 -196q0 -122 -77 -189.5t-185 -67.5q-65 0 -113 22l-51 -75l-57 45l46 67q-90 68 -90 197q0 115 72 186.5t191 71.5zM216 186l118 177q-18 13 -40 13q-46 0 -68 -39t-22 -91q0 -38 10 -59zM375 301l-117 -172
q13 -13 38 -13q42 0 65.5 34t23.5 92q0 34 -7 58zM299 706h160l-123 -156h-122z" />
    <glyph glyph-name="Scommaaccent" unicode="&#x218;" horiz-adv-x="561" 
d="M40 31l34 149q82 -42 175 -42q92 0 92 55q0 24 -23.5 40.5t-82.5 36.5q-190 68 -190 203q0 92 73 151.5t198 59.5q103 0 182 -34l-38 -145q-71 32 -146 32q-41 0 -63 -13.5t-22 -36.5t22 -36.5t95 -40.5q3 -2 4 -2q90 -34 132.5 -83t42.5 -120q0 -93 -73 -154t-214 -61
q-57 0 -112 12.5t-86 28.5zM205 -250l-25 75q25 6 43.5 21.5t18.5 37.5t-27 59l123 19q39 -29 39 -81q0 -63 -47 -96t-125 -35z" />
    <glyph glyph-name="scommaaccent" unicode="&#x219;" horiz-adv-x="451" 
d="M29 25l31 127q22 -14 63.5 -25.5t72.5 -11.5q54 0 54 27q0 13 -12 21t-52 21q-147 46 -145 150q0 74 59 121.5t155 47.5q82 0 146 -28l-29 -122q-56 27 -109 27q-49 0 -49 -28q0 -12 15.5 -21.5t58.5 -23.5q71 -23 102.5 -60.5t32.5 -91.5q0 -74 -57.5 -119.5
t-167.5 -45.5q-101 0 -169 35zM149 -251l-25 75q25 5 43.5 20.5t18.5 38.5q0 22 -27 59l123 19q39 -29 39 -81q0 -63 -47 -96t-125 -35z" />
    <glyph glyph-name="circumflex" unicode="&#x2c6;" 
d="M91 706h120l101 -156h-113l-47 84h-2l-47 -84h-114z" />
    <glyph glyph-name="caron" unicode="&#x2c7;" 
d="M209 550h-120l-101 156h113l47 -84h2l47 84h114z" />
    <glyph glyph-name="breve" unicode="&#x2d8;" 
d="M5 697h91q8 -58 53 -58q28 0 41.5 16.5t14.5 41.5h90q-1 -69 -38 -110t-107 -41t-107 41t-38 110z" />
    <glyph glyph-name="dotaccent" unicode="&#x2d9;" 
d="M115 551h-1q-34 0 -57 23t-23 56q0 34 23 56.5t58 22.5q32 0 54 -22.5t22 -56.5q0 -33 -22 -56t-54 -23z" />
    <glyph glyph-name="ring" unicode="&#x2da;" horiz-adv-x="400" 
d="M201 741h1q57 0 88 -28t31 -73q0 -44 -32.5 -72t-87.5 -28q-56 0 -88.5 28t-32.5 71q0 45 32 73.5t89 28.5zM201 686h-1q-20 0 -31 -14t-11 -33q0 -17 11.5 -30.5t30.5 -13.5q21 0 32.5 13t11.5 32t-11 32.5t-32 13.5z" />
    <glyph glyph-name="ogonek" unicode="&#x2db;" 
d="M64 1h92q-13 -30 -13 -62q0 -23 14.5 -38.5t39.5 -15.5q21 0 45 8l24 -83q-46 -35 -111 -35q-57 0 -89 29t-32 86q0 51 30 111z" />
    <glyph glyph-name="tilde" unicode="&#x2dc;" 
d="M82 553h-82q-3 68 21.5 106t66.5 38q30 0 66 -20q34 -20 43 -20q12 0 17.5 9t7.5 36h80q5 -140 -88 -140q-30 0 -72 22q-28 15 -36 15q-23 0 -24 -46z" />
    <glyph glyph-name="hungarumlaut" unicode="&#x2dd;" 
d="M35 705h134l-92 -155h-99zM220 705h135l-92 -155h-99z" />
    <glyph glyph-name="uni037E" unicode="&#x37e;" horiz-adv-x="303" 
d="M138 -108l-117 -10q45 175 54 296l178 5q-41 -147 -115 -291zM159 269h-1q-47 0 -77 31.5t-30 79.5t30 78.5t78 30.5t78 -30.5t30 -78.5q0 -49 -30 -80t-78 -31z" />
    <glyph glyph-name="tonos" unicode="&#x384;" horiz-adv-x="304" 
d="M127 706h153l-80 -156h-116z" />
    <glyph glyph-name="dieresistonos" unicode="&#x385;" horiz-adv-x="474" 
d="M192 738h128l-58 -183h-92zM77 560h-1q-29 0 -49.5 20t-20.5 49q0 30 20.5 49.5t50.5 19.5q28 0 47.5 -19.5t19.5 -49.5q0 -29 -19.5 -49t-47.5 -20zM395 560h-1q-28 0 -48 20t-20 49q0 30 20 49.5t49 19.5t49 -19.5t20 -49.5q0 -29 -19.5 -49t-49.5 -20z" />
    <glyph glyph-name="Alphatonos" unicode="&#x386;" horiz-adv-x="685" 
d="M423 156h-174l-38 -156h-187l196 674h240l201 -674h-195zM273 289h125l-31 121q-6 22 -18.5 73.5l-14.5 59.5h-2q-5 -19 -15 -66t-15 -67zM0 674h140l-37 -182h-102z" />
    <glyph glyph-name="anoteleia" unicode="&#x387;" horiz-adv-x="303" 
d="M151 198h-1q-49 0 -80.5 32.5t-31.5 83.5q0 50 32 82.5t82 32.5t81 -31.5t32 -83.5q0 -51 -31.5 -83.5t-82.5 -32.5z" />
    <glyph glyph-name="Epsilontonos" unicode="&#x388;" horiz-adv-x="677" 
d="M610 418v-146h-242v-124h271v-148h-452v674h438v-148h-257v-108h242zM0 674h140l-38 -182h-102v182z" />
    <glyph glyph-name="Etatonos" unicode="&#x389;" horiz-adv-x="829" 
d="M187 674h181v-250h218v250h181v-674h-181v266h-218v-266h-181v674zM0 674h140l-37 -182h-102z" />
    <glyph glyph-name="Iotatonos" unicode="&#x38a;" horiz-adv-x="430" 
d="M187 674h181v-674h-181v674zM0 674h140l-38 -182h-102v182z" />
    <glyph glyph-name="Omicrontonos" unicode="&#x38c;" horiz-adv-x="820" 
d="M449 -11h-1q-151 0 -237.5 98.5t-86.5 245.5q0 151 91.5 251.5t243.5 100.5q155 0 241 -98.5t86 -242.5q0 -163 -91 -259t-246 -96zM455 132h2q64 0 101 56.5t37 149.5q0 89 -37.5 146.5t-102.5 57.5q-64 0 -102 -57.5t-38 -147.5q-1 -92 37 -148.5t103 -56.5zM1 674h140
l-38 -182h-102v182z" />
    <glyph glyph-name="Upsilontonos" unicode="&#x38e;" horiz-adv-x="810" 
d="M173 531l27 149q52 0 109 -22t99 -68q68 -71 81 -203h8q15 116 86 195q41 45 93.5 71.5t95.5 26.5l27 -154q-75 -19 -132.5 -91.5t-78.5 -161.5q-16 -73 -16 -138v-135h-181v135q0 69 -9 131q-38 235 -209 265zM0 674h140l-38 -182h-102v182z" />
    <glyph glyph-name="Omegatonos" unicode="&#x38f;" horiz-adv-x="846" 
d="M683 140v-4h130v-136h-317v104q56 45 87.5 101.5t31.5 144.5q0 83 -41 137.5t-106 54.5q-66 0 -108.5 -54.5t-42.5 -138.5q0 -82 33.5 -147.5t85.5 -97.5v-104h-318v136h127v4q-47 37 -81 96.5t-34 137.5q0 129 95.5 220t245.5 91q153 0 241.5 -90t88.5 -209
q0 -145 -118 -246zM0 674h140l-37 -182h-102z" />
    <glyph glyph-name="iotadieresistonos" unicode="&#x390;" horiz-adv-x="299" 
d="M237 492v-324q0 -48 45 -43l-9 -124q-21 -12 -75 -12q-72 0 -107 36t-35 126v341h181zM112 728h127l-58 -180h-90zM-2 551h-1q-29 0 -49 20.5t-20 48.5q0 29 20.5 48.5t49.5 19.5t48 -19t19 -49q0 -29 -19.5 -49t-47.5 -20zM313 551h-1q-28 0 -48 20t-20 49t20 48.5
t49 19.5t48.5 -19t19.5 -49q0 -29 -19.5 -49t-48.5 -20z" />
    <glyph glyph-name="Alpha" unicode="&#x391;" horiz-adv-x="675" 
d="M413 156h-174l-38 -156h-187l196 674h240l201 -674h-195zM263 289h125l-31 121q-6 22 -18.5 73.5l-14.5 59.5h-2q-5 -19 -15 -66t-15 -67z" />
    <glyph glyph-name="Beta" unicode="&#x392;" horiz-adv-x="631" 
d="M62 4v660q77 15 213 15q140 0 206 -33q91 -43 91 -139q0 -99 -110 -141v-2q62 -17 97 -60.5t35 -103.5q0 -91 -76 -148q-79 -60 -278 -60q-116 0 -178 12zM241 545v-130h36q114 0 114 70q0 30 -23 47t-68 17q-35 0 -59 -4zM241 287v-161q13 -2 52 -2q49 0 80 21t31 63
q0 79 -120 79h-43z" />
    <glyph glyph-name="Gamma" unicode="&#x393;" horiz-adv-x="495" 
d="M62 674h430v-151h-249v-523h-181v674z" />
    <glyph glyph-name="Delta" unicode="&#x394;" horiz-adv-x="661" 
d="M12 0v88l208 586h223l202 -585v-89h-633zM208 148h229l-77 243q-20 65 -37 142h-4q-32 -126 -34 -135z" />
    <glyph glyph-name="Delta" unicode="&#xe000;" horiz-adv-x="661" 
d="M12 0v88l208 586h223l202 -585v-89h-633zM208 148h229l-77 243q-20 65 -37 142h-4q-32 -126 -34 -135z" />
    <glyph glyph-name="Epsilon" unicode="&#x395;" horiz-adv-x="552" 
d="M485 418v-146h-242v-124h271v-148h-452v674h438v-148h-257v-108h242z" />
    <glyph glyph-name="Zeta" unicode="&#x396;" horiz-adv-x="588" 
d="M21 0v96l298 425v4h-270v149h504v-103l-289 -418v-4h294v-149h-537z" />
    <glyph glyph-name="Eta" unicode="&#x397;" horiz-adv-x="705" 
d="M62 674h181v-250h219v250h181v-674h-181v266h-219v-266h-181v674z" />
    <glyph glyph-name="Theta" unicode="&#x398;" horiz-adv-x="733" 
d="M360 -11h-1q-152 0 -238.5 98.5t-86.5 245.5q0 151 92 251.5t244 100.5q155 0 241.5 -99t86.5 -243q0 -162 -91.5 -258t-246.5 -96zM367 132h1q65 0 102.5 56.5t37.5 149.5q0 89 -38 146.5t-103 57.5t-104 -57.5t-39 -147.5q0 -92 38.5 -148.5t104.5 -56.5zM274 414h183
v-145h-183v145z" />
    <glyph glyph-name="Iota" unicode="&#x399;" horiz-adv-x="305" 
d="M62 674h181v-674h-181v674z" />
    <glyph glyph-name="Kappa" unicode="&#x39a;" horiz-adv-x="646" 
d="M62 0v674h179v-286h2l43 74l130 212h222l-214 -287l222 -387h-209l-142 273l-54 -69v-204h-179z" />
    <glyph glyph-name="Lambda" unicode="&#x39b;" horiz-adv-x="665" 
d="M653 0h-198l-98 378q-17 77 -35 150h-2q-5 -23 -14.5 -75t-14.5 -76l-88 -377h-189l196 674h238z" />
    <glyph glyph-name="Mu" unicode="&#x39c;" horiz-adv-x="865" 
d="M641 0l-8 242q-4 101 -4 271h-3q-29 -122 -71 -264l-67 -235h-141l-56 235q-27 106 -54 264h-2l-5.5 -147.5t-4.5 -123.5l-11 -242h-166l42 674h243l44 -182q33 -128 53 -246h3q41 177 61 248l51 180h237l34 -674h-175z" />
    <glyph glyph-name="Nu" unicode="&#x39d;" horiz-adv-x="705" 
d="M227 0h-165v674h213l107 -207q52 -95 106 -236h3q-14 125 -14 283v160h165v-674h-190l-115 224q-70 135 -113 243h-4q7 -127 7 -301v-166z" />
    <glyph glyph-name="Xi" unicode="&#x39e;" horiz-adv-x="589" 
d="M58 674h478v-146h-478v146zM88 417h417v-146h-417v146zM42 148h510v-148h-510v148z" />
    <glyph glyph-name="Omicron" unicode="&#x39f;" horiz-adv-x="730" 
d="M359 -11h-1q-151 0 -237.5 98.5t-86.5 245.5q0 151 91.5 251.5t243.5 100.5q155 0 241 -98.5t86 -242.5q0 -163 -91 -259t-246 -96zM365 132h2q64 0 101 56.5t37 149.5q0 89 -37.5 146.5t-102.5 57.5q-64 0 -102 -57.5t-38 -147.5q-1 -92 37 -148.5t103 -56.5z" />
    <glyph glyph-name="Pi" unicode="&#x3a0;" horiz-adv-x="681" 
d="M619 674v-674h-181v522h-195v-522h-181v674h557z" />
    <glyph glyph-name="Rho" unicode="&#x3a1;" horiz-adv-x="602" 
d="M62 0v664q92 15 222 15q143 0 214 -54q77 -57 77 -162q0 -106 -66 -166q-79 -70 -224 -70q-10 0 -24.5 1t-19.5 1v-229h-179zM241 539v-172q20 -2 41 -2q53 0 83.5 25.5t30.5 68.5q0 39 -26 61.5t-76 22.5q-35 0 -53 -4z" />
    <glyph glyph-name="Sigma" unicode="&#x3a3;" horiz-adv-x="590" 
d="M261 152v-4h293v-148h-522v101l185 233l-175 223v117h489v-148h-260v-4l139 -181z" />
    <glyph glyph-name="Tau" unicode="&#x3a4;" horiz-adv-x="570" 
d="M193 0v522h-172v152h528v-152h-175v-522h-181z" />
    <glyph glyph-name="Upsilon" unicode="&#x3a5;" horiz-adv-x="642" 
d="M8 531l27 149q52 0 109 -22t99 -68q68 -71 81 -203h8q15 116 86 195q41 45 93.5 71.5t95.5 26.5l27 -154q-75 -19 -132.5 -91.5t-78.5 -161.5q-16 -73 -16 -138v-135h-181v135q0 69 -9 131q-38 235 -209 265z" />
    <glyph glyph-name="Phi" unicode="&#x3a6;" horiz-adv-x="815" 
d="M490 27v-56h-168v56q-78 11 -141 45.5t-105.5 102.5t-42.5 159q0 57 18 107t47 85t67.5 61.5t78 41.5t80.5 21v53h168v-53q120 -17 204.5 -96t84.5 -213q0 -133 -83.5 -213.5t-207.5 -100.5zM323 153v373q-44 -12 -76.5 -60.5t-32.5 -131.5q0 -74 34 -123t75 -58z
M491 526v-373q43 11 76 55t33 127q0 86 -32.5 133.5t-76.5 57.5z" />
    <glyph glyph-name="Chi" unicode="&#x3a7;" horiz-adv-x="631" 
d="M619 0h-209l-49 110l-52 117h-2q-9 -30 -44 -116l-45 -111h-205l190 341l-183 333h207l46 -107l45 -112h2q26 78 40 111l41 108h206l-183 -329z" />
    <glyph glyph-name="Psi" unicode="&#x3a8;" horiz-adv-x="767" 
d="M729 674v-195q0 -149 -73 -222.5t-190 -81.5v-175h-164v175q-116 8 -189 73.5t-73 194.5v231h173v-204q0 -86 23.5 -121t65.5 -38v363h164v-365q43 4 66.5 46.5t23.5 150.5v168h173z" />
    <glyph glyph-name="Omega" unicode="&#x3a9;" horiz-adv-x="761" 
d="M598 140v-4h130v-136h-317v104q119 95 119 246q0 83 -41 137.5t-106 54.5q-66 0 -108.5 -54.5t-42.5 -138.5q0 -75 34.5 -144.5t84.5 -100.5v-104h-318v136h127v4q-47 37 -81 96.5t-34 137.5q0 129 95.5 220t245.5 91q153 0 241.5 -90t88.5 -209q0 -145 -118 -246z" />
    <glyph glyph-name="Omega" unicode="&#x2126;" horiz-adv-x="761" 
d="M598 140v-4h130v-136h-317v104q119 95 119 246q0 83 -41 137.5t-106 54.5q-66 0 -108.5 -54.5t-42.5 -138.5q0 -75 34.5 -144.5t84.5 -100.5v-104h-318v136h127v4q-47 37 -81 96.5t-34 137.5q0 129 95.5 220t245.5 91q153 0 241.5 -90t88.5 -209q0 -145 -118 -246z" />
    <glyph glyph-name="Iotadieresis" unicode="&#x3aa;" horiz-adv-x="305" 
d="M47 715h-1q-32 0 -54.5 22t-22.5 54q0 33 22.5 54.5t55.5 21.5q31 0 52 -21.5t21 -54.5q0 -32 -21 -54t-52 -22zM260 715h-1q-32 0 -53.5 22t-21.5 54q0 33 21.5 54.5t54.5 21.5q32 0 53.5 -21.5t21.5 -54.5q0 -32 -21.5 -54t-53.5 -22zM62 674h181v-674h-181v674z" />
    <glyph glyph-name="Upsilondieresis" unicode="&#x3ab;" horiz-adv-x="642" 
d="M219 698h-1q-32 0 -54.5 22t-22.5 54q0 33 22.5 54.5t55.5 21.5q31 0 52 -21.5t21 -54.5q0 -32 -21 -54t-52 -22zM432 698h-1q-32 0 -53.5 22t-21.5 54q0 33 21.5 54.5t54.5 21.5q32 0 53.5 -21.5t21.5 -54.5q0 -32 -21.5 -54t-53.5 -22zM8 531l27 149q52 0 109 -22
t99 -68q68 -71 81 -203h8q15 116 86 195q41 45 93.5 71.5t95.5 26.5l27 -154q-75 -19 -132.5 -91.5t-78.5 -161.5q-16 -73 -16 -138v-135h-181v135q0 69 -9 131q-38 235 -209 265z" />
    <glyph glyph-name="alphatonos" unicode="&#x3ac;" horiz-adv-x="597" 
d="M287 706h154l-80 -156h-116zM400 492h151q-14 -176 -14 -308q0 -37 12 -50t32 -10l-9 -124q-16 -11 -63 -11q-90 0 -116 84h-2q-49 -84 -154 -84q-87 0 -146.5 68t-59.5 178q0 120 68.5 194t156.5 74t127 -66h4q13 54 13 55zM214 245v-1q0 -49 21.5 -81t52.5 -32
q27 0 46.5 22.5t24.5 55.5q3 21 3 40q0 25 -1 35q-6 39 -25 60.5t-44 21.5q-36 0 -57 -35.5t-21 -85.5z" />
    <glyph glyph-name="epsilontonos" unicode="&#x3ad;" horiz-adv-x="481" 
d="M241 706h153l-79 -156h-117zM133 257v5q-80 29 -80 102q0 56 57 97.5t165 41.5q102 0 171 -37l-30 -113q-52 26 -112 26q-33 0 -51.5 -9.5t-18.5 -25.5q0 -31 103 -32h43v-115h-42q-55 -1 -83.5 -8t-28.5 -26q0 -42 83 -42q66 0 127 28l23 -115q-74 -45 -199 -45
q-95 0 -162 37t-67 115q0 44 29.5 75t72.5 41z" />
    <glyph glyph-name="etatonos" unicode="&#x3ae;" horiz-adv-x="599" 
d="M283 706h154l-80 -156h-117zM215 429h3q19 27 56.5 50.5t91.5 23.5q86 0 132 -55.5t46 -157.5v-320q0 -131 10 -168h-172q-19 28 -19 171v295q0 90 -63 90q-41 0 -59 -43q-5 -11 -5 -37v-278h-181v324q0 115 -16 168h158q17 -30 18 -63z" />
    <glyph glyph-name="iotatonos" unicode="&#x3af;" horiz-adv-x="299" 
d="M129 707h156l-80 -156h-119zM236 492v-324q0 -48 45 -43l-9 -124q-21 -12 -75 -12q-72 0 -107 36t-35 126v341h181z" />
    <glyph glyph-name="upsilondieresistonos" unicode="&#x3b0;" horiz-adv-x="573" 
d="M333 492h167q37 -76 37 -186q0 -62 -14 -116t-43 -100.5t-81.5 -73.5t-123.5 -27q-100 0 -164 55.5t-64 161.5v123q0 122 -13 163h177q17 -18 17 -98v-178q0 -38 17 -60t45 -22q71 0 71 162q0 115 -28 196zM239 726h126l-58 -180h-90zM123 549h-1q-28 0 -48.5 20.5
t-20.5 48.5q0 29 20.5 48.5t49.5 19.5t48 -19t19 -49q0 -29 -19.5 -49t-47.5 -20zM440 549h-1q-28 0 -47.5 20t-19.5 49t19.5 48.5t48.5 19.5t48.5 -19t19.5 -49q0 -29 -19.5 -49t-48.5 -20z" />
    <glyph glyph-name="alpha" unicode="&#x3b1;" horiz-adv-x="596" 
d="M400 492h151q-14 -176 -14 -308q0 -37 12 -50t32 -10l-9 -124q-16 -11 -63 -11q-90 0 -116 84h-2q-49 -84 -154 -84q-87 0 -146.5 68t-59.5 178q0 120 68.5 194t156.5 74t127 -66h4q13 54 13 55zM214 245v-1q0 -49 21.5 -81t52.5 -32q27 0 46.5 22.5t24.5 55.5q3 21 3 40
q0 25 -1 35q-6 39 -25 60.5t-44 21.5q-36 0 -57 -35.5t-21 -85.5z" />
    <glyph glyph-name="beta" unicode="&#x3b2;" horiz-adv-x="599" 
d="M229 26h-2v-53q0 -123 13 -171h-168q-20 40 -20 171v432q0 103 21 161t60 93q69 62 173 62q100 0 155 -54t55 -133q0 -41 -19.5 -83.5t-57.5 -62.5v-6q52 -13 90.5 -64t38.5 -116q0 -93 -60 -153t-154 -60q-80 0 -125 37zM226 440v-279q34 -38 79 -38q42 0 61.5 25.5
t19.5 61.5q0 41 -25.5 65.5t-62.5 29.5h-20v108q7 0 16 3q28 8 44.5 32t16.5 57q0 34 -15.5 55.5t-42.5 21.5q-71 0 -71 -142z" />
    <glyph glyph-name="gamma" unicode="&#x3b3;" horiz-adv-x="536" 
d="M342 -198h-174q4 171 -17 277q-38 194 -167 413h199q26 -41 57 -131.5t47 -185.5h5q55 141 55 269q0 15 -0.5 29.5t-0.5 18.5h171q2 -11 2 -40q0 -92 -46 -206.5t-127 -229.5q-7 -8 -7 -24q0 -91 3 -190z" />
    <glyph glyph-name="delta" unicode="&#x3b4;" horiz-adv-x="589" 
d="M517 671l-45 -110q-18 11 -54 22.5t-69 11.5q-42 0 -42 -18q0 -10 49 -50l82 -66q119 -96 119 -218q0 -114 -77 -184t-191 -70q-111 0 -184.5 68t-73.5 174q0 83 45.5 139t110.5 87v4l-17 17q-51 54 -51 102q0 56 57 98.5t154 42.5q60 0 109.5 -15t77.5 -35zM325 337
l-42 36q-67 -44 -67 -139q0 -47 23.5 -82.5t60.5 -35.5q34 0 55 31.5t21 79.5q0 64 -51 110z" />
    <glyph glyph-name="epsilon" unicode="&#x3b5;" horiz-adv-x="481" 
d="M133 257v5q-80 29 -80 102q0 56 57 97.5t165 41.5q104 0 171 -37l-30 -113q-52 26 -112 26q-33 0 -51.5 -9.5t-18.5 -25.5q0 -31 103 -32h43v-115h-42q-55 -1 -83.5 -8t-28.5 -26q0 -42 83 -42q66 0 127 28l23 -115q-74 -45 -199 -45q-95 0 -162 37t-67 115q0 44 29.5 75
t72.5 41z" />
    <glyph glyph-name="zeta" unicode="&#x3b6;" horiz-adv-x="456" 
d="M369 -156l-109 35q21 52 23 94q-61 11 -109 30q-141 58 -141 218q0 93 48.5 185.5t135.5 169.5v5h-37q-73 0 -109 14l16 113q32 -3 147 -3h194l25 -116q-92 -38 -163.5 -136.5t-71.5 -197.5q0 -91 68 -127q42 -24 151 -41q11 -2 11 -15q0 -54 -23 -121t-56 -107z" />
    <glyph glyph-name="eta" unicode="&#x3b7;" horiz-adv-x="599" 
d="M215 429h3q19 27 56.5 50.5t91.5 23.5q86 0 132 -55.5t46 -157.5v-320q0 -131 10 -168h-172q-19 28 -19 171v295q0 90 -63 90q-41 0 -59 -43q-5 -11 -5 -37v-278h-181v324q0 115 -16 168h158q17 -30 18 -63z" />
    <glyph glyph-name="theta" unicode="&#x3b8;" horiz-adv-x="586" 
d="M292 -11h-1q-124 0 -192 96t-68 275q0 160 69.5 260.5t199.5 100.5q127 0 191 -97.5t64 -263.5q0 -173 -66 -272t-197 -99zM209 423h167q0 78 -21.5 126t-59.5 48q-42 0 -64 -48t-22 -126zM379 296h-169q0 -85 21 -134t64 -49q84 0 84 183z" />
    <glyph glyph-name="iota" unicode="&#x3b9;" horiz-adv-x="299" 
d="M236 492v-324q0 -48 45 -43l-9 -124q-21 -12 -75 -12q-72 0 -107 36t-35 126v341h181z" />
    <glyph glyph-name="kappa" unicode="&#x3ba;" horiz-adv-x="571" 
d="M386 270v-5q31 -8 54 -38.5t52 -86.5l75 -140h-207l-45 96q-23 50 -38.5 72.5t-34.5 24.5h-6v-193h-181v359q0 108 -14 133h177q18 -18 18 -90v-109h2q46 69 120 199h202v-6z" />
    <glyph glyph-name="lambda" unicode="&#x3bb;" horiz-adv-x="538" 
d="M345 0l-54 198q-11 38 -26 103h-6q-8 -50 -20 -101l-49 -200h-188l170 450q5 16 5 26q0 8 -6 26q-12 33 -38.5 52.5t-53.5 19.5h-24l16 137q22 6 57 6q82 0 134 -58.5t91 -162.5l184 -496h-192z" />
    <glyph glyph-name="uni03BC" unicode="&#x3bc;" horiz-adv-x="598" 
d="M386 64h-4q-12 -29 -41.5 -49.5t-70.5 -20.5q-31 0 -53 19v-35q0 -123 10 -176h-159q-13 32 -13 176v514h181v-268q0 -92 58 -92q22 0 39.5 13.5t23.5 28.5q4 11 4 28v290h181v-322q0 -26 9.5 -36t29.5 -11l-9 -122q-20 -12 -65 -12q-92 0 -121 75z" />
    <glyph glyph-name="nu" unicode="&#x3bd;" horiz-adv-x="529" 
d="M-3 492h194l54 -209q1 -3 26 -118h5q64 145 64 290q0 23 -1 37h170q2 -13 2 -39q0 -171 -172 -453h-175z" />
    <glyph glyph-name="xi" unicode="&#x3be;" horiz-adv-x="489" 
d="M411 437v-120h-28q-77 0 -118.5 -26t-41.5 -75q0 -74 122 -105q59 -14 124 -24q13 -1 13 -14q0 -49 -23.5 -119t-55.5 -109l-110 35q18 42 20 93q-42 7 -73.5 14t-73.5 24t-69 39t-46.5 59.5t-19.5 85.5q0 70 41.5 123.5t108.5 72.5v6q-49 20 -75.5 57.5t-26.5 85.5
q0 77 63.5 129t177.5 52q82 0 146 -27l-27 -115q-42 17 -86 17q-45 0 -69 -22t-24 -56q0 -69 124 -80q9 -1 27 -1z" />
    <glyph glyph-name="omicron" unicode="&#x3bf;" horiz-adv-x="589" 
d="M293 -11h-1q-114 0 -187.5 68t-73.5 185q0 119 73 190t198 71q115 0 185.5 -70t70.5 -182q0 -127 -77 -194.5t-188 -67.5zM296 116h1q36 0 55.5 35t19.5 95q0 56 -19 93t-56 37q-42 0 -61 -37.5t-19 -92.5q0 -59 20 -94.5t59 -35.5z" />
    <glyph glyph-name="pi" unicode="&#x3c0;" horiz-adv-x="620" 
d="M590 356h-56v-199q0 -97 11 -157h-172q-18 26 -18 145v211h-82q-1 -89 -14.5 -196t-34.5 -160h-173q21 76 35 182t12 174q-57 0 -83 -6l-17 105q35 37 190 37h418z" />
    <glyph glyph-name="rho" unicode="&#x3c1;" horiz-adv-x="604" 
d="M234 27h-2v-57q0 -131 6 -168h-175q-12 38 -12 171v221q0 176 104 256q72 53 167 53q113 0 182 -71t69 -186q0 -121 -70 -189t-160 -68q-74 0 -109 38zM232 233v-35q0 -14 3 -27q6 -16 25.5 -30.5t44.5 -14.5q40 0 62.5 32.5t22.5 84.5t-21 82t-57 30q-37 0 -58.5 -33
t-21.5 -89z" />
    <glyph glyph-name="uni03C2" unicode="&#x3c2;" horiz-adv-x="475" 
d="M459 477l-34 -126q-43 17 -87 17q-53 0 -87 -35.5t-34 -95.5q0 -84 88 -114q43 -14 145 -34q8 -2 8 -14q0 -57 -23.5 -128t-53.5 -104l-111 36q15 32 23 93q-51 12 -66 17q-196 55 -196 238q0 112 80 194t217 82q79 0 131 -26z" />
    <glyph glyph-name="sigma" unicode="&#x3c3;" horiz-adv-x="612" 
d="M498 381l-2 -5q26 -26 39.5 -64t13.5 -71q0 -124 -73 -188t-183 -64q-115 0 -188.5 66.5t-73.5 183.5q0 120 74.5 192t205.5 72h94h85h113l-8 -129q-42 0 -97 7zM296 116h1q36 0 55.5 35t19.5 95q0 56 -17.5 93t-54.5 37q-44 0 -63.5 -37.5t-19.5 -92.5q0 -59 20 -94.5
t59 -35.5z" />
    <glyph glyph-name="tau" unicode="&#x3c4;" horiz-adv-x="469" 
d="M384 127l-7 -125q-24 -13 -79 -13q-89 0 -125 44.5t-36 138.5v184h-36q-57 0 -89 -6l-23 106q51 36 190 36h281l-17 -136h-125v-170q0 -59 47 -59h19z" />
    <glyph glyph-name="upsilon" unicode="&#x3c5;" horiz-adv-x="573" 
d="M333 492h167q37 -76 37 -186q0 -62 -14 -116t-43 -100.5t-81.5 -73.5t-123.5 -27q-100 0 -164 55.5t-64 161.5v123q0 122 -13 163h177q17 -18 17 -98v-178q0 -38 17 -60t45 -22q71 0 71 162q0 115 -28 196z" />
    <glyph glyph-name="phi" unicode="&#x3c6;" horiz-adv-x="741" 
d="M216 504l66 -95q-30 -23 -51 -63.5t-21 -92.5q0 -55 23.5 -93.5t61.5 -49.5v206q0 96 53.5 143t127.5 44q96 -3 164.5 -71.5t68.5 -175.5q0 -116 -77.5 -186.5t-178.5 -80.5v-187h-158v187q-52 5 -97.5 22.5t-83.5 48t-60.5 79.5t-22.5 111q0 96 59.5 165.5t125.5 88.5z
M452 355v-247q39 10 63.5 47t24.5 97q0 55 -21.5 92.5t-46.5 37.5q-20 0 -20 -27z" />
    <glyph glyph-name="chi" unicode="&#x3c7;" horiz-adv-x="524" 
d="M-1 492h193l83 -204h4q9 26 28 77l49 127h170l-168 -335l167 -350l-171 -38l-103 237h-6q-1 -2 -12 -33.5t-22 -55.5l-63 -148l-153 39l172 349z" />
    <glyph glyph-name="psi" unicode="&#x3c8;" horiz-adv-x="758" 
d="M305 -198v187q-254 18 -254 274v98q0 89 -7 131h164q15 -18 15 -98v-117q0 -155 82 -164v507h158v-507q46 1 68 53t22 123q0 128 -30 203h159q41 -80 41 -192q0 -80 -23.5 -145t-84 -112.5t-152.5 -53.5v-187h-158z" />
    <glyph glyph-name="omega" unicode="&#x3c9;" horiz-adv-x="750" 
d="M457 379l-3 -173q0 -66 34 -66q26 0 41 34.5t15 98.5q0 138 -65 216v3h162q30 -30 54 -92.5t24 -135.5q0 -126 -60 -200.5t-153 -74.5q-43 0 -79.5 20t-53.5 54h-4q-49 -74 -133 -74q-85 0 -145 69.5t-60 191.5q0 145 80 242h161v-3q-67 -92 -67 -226q0 -59 15.5 -91
t37.5 -32q35 0 33 66l-2 173h168z" />
    <glyph glyph-name="iotadieresis" unicode="&#x3ca;" horiz-adv-x="299" 
d="M45 543h-1q-33 0 -55.5 22.5t-22.5 54.5q0 34 22.5 55.5t56.5 21.5q32 0 53 -21.5t21 -55.5q0 -32 -21.5 -54.5t-52.5 -22.5zM258 543h-1q-32 0 -53.5 22.5t-21.5 54.5q0 34 21.5 55.5t54.5 21.5t54.5 -21.5t21.5 -55.5q0 -32 -21.5 -54.5t-54.5 -22.5zM237 492v-324
q0 -48 45 -43l-9 -124q-21 -12 -75 -12q-72 0 -107 36t-35 126v341h181z" />
    <glyph glyph-name="upsilondieresis" unicode="&#x3cb;" horiz-adv-x="573" 
d="M172 543h-1q-33 0 -55 22.5t-22 54.5q0 33 22.5 55t55.5 22q32 0 53 -21.5t21 -55.5q0 -32 -21.5 -54.5t-52.5 -22.5zM385 543h-1q-33 0 -54.5 22.5t-21.5 54.5q0 34 22 55.5t55 21.5t54.5 -21.5t21.5 -55.5q0 -32 -21.5 -54.5t-54.5 -22.5zM333 492h167q37 -76 37 -186
q0 -62 -14 -116t-43 -100.5t-81.5 -73.5t-123.5 -27q-100 0 -164 55.5t-64 161.5v123q0 122 -13 163h177q17 -18 17 -98v-178q0 -38 17 -60t45 -22q71 0 71 162q0 115 -28 196z" />
    <glyph glyph-name="omicrontonos" unicode="&#x3cc;" horiz-adv-x="589" 
d="M280 706h153l-79 -156h-117zM293 -11h-1q-114 0 -187.5 68t-73.5 185q0 119 73 190t198 71q115 0 185.5 -70t70.5 -182q0 -127 -77 -194.5t-188 -67.5zM296 116h1q36 0 55.5 35t19.5 95q0 56 -19 93t-56 37q-42 0 -61 -37.5t-19 -92.5q0 -59 20 -94.5t59 -35.5z" />
    <glyph glyph-name="upsilontonos" unicode="&#x3cd;" horiz-adv-x="573" 
d="M264 707h155l-79 -156h-118zM333 492h167q37 -76 37 -186q0 -62 -14 -116t-43 -100.5t-81.5 -73.5t-123.5 -27q-100 0 -164 55.5t-64 161.5v123q0 122 -13 163h177q17 -18 17 -98v-178q0 -38 17 -60t45 -22q71 0 71 162q0 115 -28 196z" />
    <glyph glyph-name="omegatonos" unicode="&#x3ce;" horiz-adv-x="750" 
d="M361 706h153l-80 -156h-116zM458 379l-3 -173q0 -66 34 -66q26 0 41 34.5t15 98.5q0 138 -65 216v3h162q30 -30 54 -92.5t24 -135.5q0 -126 -60 -200.5t-153 -74.5q-43 0 -79.5 20t-53.5 54h-4q-49 -74 -134 -74t-145 69.5t-60 191.5q0 145 80 242h162v-3
q-68 -91 -68 -226q0 -59 15.5 -91t38.5 -32q35 0 33 66l-2 173h168z" />
    <glyph glyph-name="afii10023" unicode="&#x401;" horiz-adv-x="552" 
d="M485 418v-146h-242v-124h271v-148h-452v674h438v-148h-257v-108h242zM172 709h-1q-32 0 -54.5 22.5t-22.5 54.5t22.5 54t55.5 22q31 0 52.5 -22t21.5 -54t-21.5 -54.5t-52.5 -22.5zM389 709h-1q-32 0 -54 22.5t-22 54.5t22 54t55 22q32 0 53.5 -22t21.5 -54t-22 -54.5
t-53 -22.5z" />
    <glyph glyph-name="afii10051" unicode="&#x402;" horiz-adv-x="747" 
d="M22 674h579v-148h-229v-98h4q44 24 111 24q102 0 165 -80q62 -74 62 -202q0 -102 -42.5 -176.5t-121.5 -109.5q-57 -36 -117 -41l-27 149q54 13 79 39q39 37 39 127q0 81 -28 116q-25 32 -68 32q-29 0 -56 -16v-290h-181v526h-169v148z" />
    <glyph glyph-name="afii10052" unicode="&#x403;" horiz-adv-x="514" 
d="M62 674h430v-148h-249v-526h-181v674zM271 836h183l-120 -126h-144z" />
    <glyph glyph-name="afii10053" unicode="&#x404;" horiz-adv-x="603" 
d="M577 650l-35 -137q-60 27 -134 27q-76 0 -121 -36.5t-59 -94.5h289v-140h-287q9 -62 60 -97t132 -35q68 0 121 21l26 -136q-68 -33 -173 -33q-173 0 -267.5 93t-94.5 253q0 68 22 129t65.5 111t115.5 80t163 30q105 0 177 -35z" />
    <glyph glyph-name="afii10054" unicode="&#x405;" horiz-adv-x="561" 
d="M40 31l34 149q82 -42 175 -42q92 0 92 55q0 24 -23.5 40.5t-82.5 36.5q-190 68 -190 203q0 92 73 151.5t198 59.5q103 0 182 -34l-38 -145q-71 32 -146 32q-41 0 -63 -13.5t-22 -36.5t22 -36.5t95 -40.5q3 -2 4 -2q90 -34 132.5 -83t42.5 -120q0 -93 -73 -154t-214 -61
q-57 0 -112 12.5t-86 28.5z" />
    <glyph glyph-name="afii10055" unicode="&#x406;" horiz-adv-x="305" 
d="M62 674h181v-674h-181v674z" />
    <glyph glyph-name="afii10056" unicode="&#x407;" horiz-adv-x="305" 
d="M62 674h181v-674h-181v674zM46 709h-1q-32 0 -54.5 22.5t-22.5 54.5t22.5 54t55.5 22q31 0 52.5 -22t21.5 -54t-21.5 -54.5t-52.5 -22.5zM263 709h-1q-32 0 -54 22.5t-22 54.5t22 54t55 22q32 0 53.5 -22t21.5 -54t-22 -54.5t-53 -22.5z" />
    <glyph glyph-name="afii10057" unicode="&#x408;" horiz-adv-x="429" 
d="M191 258v416h181v-416q0 -142 -65 -205.5t-191 -63.5q-71 0 -119 16l19 145q40 -11 79 -11q47 0 71.5 26.5t24.5 92.5z" />
    <glyph glyph-name="afii10058" unicode="&#x409;" horiz-adv-x="972" 
d="M124 674h470v-234q38 5 79 5q112 0 189.5 -56.5t77.5 -162.5q0 -98 -69 -157q-89 -76 -282 -76q-108 0 -174 11v522h-115v-141q0 -148 -29 -235t-104 -128q-62 -34 -147 -34l-23 145q51 7 80 38q47 51 47 204v299zM593 309v-179q18 -3 45 -3q48 0 81 25.5t33 70.5
t-31 67.5t-79 22.5q-17 0 -49 -4z" />
    <glyph glyph-name="afii10059" unicode="&#x40a;" horiz-adv-x="978" 
d="M62 674h181v-243h178v243h179v-234q40 5 79 5q116 0 191.5 -56t75.5 -162q0 -99 -69 -158q-90 -77 -281 -77q-113 0 -175 12v276h-178v-280h-181v674zM600 309v-179q25 -3 46 -3q49 0 80.5 25.5t31.5 69.5q0 46 -30.5 68.5t-79.5 22.5q-18 0 -48 -4z" />
    <glyph glyph-name="afii10060" unicode="&#x40b;" horiz-adv-x="755" 
d="M21 674h571v-148h-220v-110h4q57 37 138 37q87 0 135 -54q49 -56 49 -162v-237h-180v214q0 50 -20 73q-19 21 -54 21q-42 0 -72 -24v-284h-181v526h-170v148z" />
    <glyph glyph-name="afii10061" unicode="&#x40c;" horiz-adv-x="633" 
d="M62 674h178v-272h8l166 272h220l-227 -295q55 -17 87 -56t52 -101q54 -167 79 -222h-194q-15 30 -47 144q-17 61 -42.5 94t-72.5 33h-29v-271h-178v674zM310 831h183l-120 -126h-144z" />
    <glyph glyph-name="afii10062" unicode="&#x40e;" horiz-adv-x="617" 
d="M3 676h204l82 -223q11 -28 26 -72.5t21 -60.5h3l8 31t12.5 50.5t14.5 54.5l59 220h190l-120 -326q-80 -205 -136 -274q-74 -92 -191 -92q-49 0 -86 13l12 145q22 -6 58 -6q59 0 74 39q5 14 -3 27zM155 836h119q0 -61 37 -61q35 0 41 61h118q-10 -131 -161 -131
q-141 0 -154 131z" />
    <glyph glyph-name="afii10145" unicode="&#x40f;" horiz-adv-x="690" 
d="M62 674h181v-526h205v526h181v-674h-201l-8 -188h-148l-8 188h-202v674z" />
    <glyph glyph-name="afii10017" unicode="&#x410;" horiz-adv-x="675" 
d="M413 156h-174l-38 -156h-187l196 674h240l201 -674h-195zM263 289h125l-31 121q-6 22 -18.5 73.5l-14.5 59.5h-2q-5 -19 -15 -66t-15 -67z" />
    <glyph glyph-name="afii10018" unicode="&#x411;" horiz-adv-x="628" 
d="M62 674h478v-147h-299v-87q42 5 82 5q120 0 197 -59q75 -58 75 -160q0 -97 -68 -155q-91 -79 -289 -79q-114 0 -176 12v670zM240 309v-179q24 -3 53 -3q48 0 81 27q31 26 31 69q0 37 -28 62q-34 28 -89 28q-12 0 -48 -4z" />
    <glyph glyph-name="afii10019" unicode="&#x412;" horiz-adv-x="631" 
d="M62 4v660q77 15 213 15q140 0 206 -33q91 -43 91 -139q0 -99 -110 -141v-2q62 -17 97 -60.5t35 -103.5q0 -91 -76 -148q-79 -60 -278 -60q-116 0 -178 12zM241 545v-130h36q114 0 114 70q0 30 -23 47t-68 17q-35 0 -59 -4zM241 287v-161q13 -2 52 -2q49 0 80 21t31 63
q0 79 -120 79h-43z" />
    <glyph glyph-name="afii10020" unicode="&#x413;" horiz-adv-x="514" 
d="M62 674h430v-148h-249v-526h-181v674z" />
    <glyph glyph-name="afii10021" unicode="&#x414;" horiz-adv-x="713" 
d="M160 674h469v-532l71 -5l-8 -311h-136l-9 174h-382l-9 -174h-136l-6 311l59 5q39 67 63 150q24 89 24 198v184zM327 527v-73q0 -99 -28 -199q-17 -60 -43 -109h192v381h-121z" />
    <glyph glyph-name="afii10022" unicode="&#x415;" horiz-adv-x="552" 
d="M485 418v-146h-242v-124h271v-148h-452v674h438v-148h-257v-108h242z" />
    <glyph glyph-name="afii10024" unicode="&#x416;" horiz-adv-x="907" 
d="M-2 674h211l149 -271h8v271h174v-271h7l151 271h210l-226 -297q109 -13 156 -160q7 -22 20.5 -68.5t25 -82t24.5 -66.5h-182q-20 45 -45 145q-35 126 -120 126h-21v-271h-174v271h-21q-85 0 -120 -126q-26 -105 -45 -145h-181q14 31 25 63.5t27.5 86l19.5 63.5
q45 141 153 164z" />
    <glyph glyph-name="afii10025" unicode="&#x417;" horiz-adv-x="566" 
d="M78 502l-40 128q99 55 223 55q116 0 183 -50.5t67 -125.5q0 -61 -35.5 -101t-96.5 -56v-2q63 -9 108.5 -51t45.5 -105q0 -55 -27 -97t-71.5 -64.5t-93 -33t-100.5 -10.5q-129 0 -213 48l36 139q28 -14 76 -27.5t92 -13.5q52 0 81.5 18.5t29.5 53.5q0 73 -123 73h-75v132
h74q47 0 75.5 17t28.5 50q0 26 -24.5 43t-68.5 17q-67 0 -152 -37z" />
    <glyph glyph-name="afii10026" unicode="&#x418;" horiz-adv-x="704" 
d="M62 674h165v-164q0 -169 -8 -313h3q49 111 119 248l115 229h185v-674h-165v161q0 181 12 288h-3q-45 -125 -110 -246l-105 -203h-208v674z" />
    <glyph glyph-name="afii10027" unicode="&#x419;" horiz-adv-x="704" 
d="M62 674h165v-164q0 -169 -8 -313h3q49 111 119 248l115 229h185v-674h-165v161q0 181 12 288h-3q-45 -125 -110 -246l-105 -203h-208v674zM195 834h119q0 -61 37 -61q35 0 41 61h118q-10 -131 -161 -131q-141 0 -154 131z" />
    <glyph glyph-name="afii10028" unicode="&#x41a;" horiz-adv-x="633" 
d="M62 674h178v-272h8l166 272h220l-227 -295q55 -17 87 -56t52 -101q54 -167 79 -222h-194q-15 30 -47 144q-17 61 -42.5 94t-72.5 33h-29v-271h-178v674z" />
    <glyph glyph-name="afii10029" unicode="&#x41b;" horiz-adv-x="666" 
d="M125 674h479v-674h-181v526h-122v-141q0 -148 -29 -235t-104 -128q-62 -34 -148 -34l-22 145q51 7 79 37q48 51 48 204v300z" />
    <glyph glyph-name="afii10030" unicode="&#x41c;" horiz-adv-x="865" 
d="M641 0l-8 242q-4 101 -4 271h-3q-29 -122 -71 -264l-67 -235h-141l-56 235q-27 106 -54 264h-2l-5.5 -147.5t-4.5 -123.5l-11 -242h-166l42 674h243l44 -182q33 -128 53 -246h3q41 177 61 248l51 180h237l34 -674h-175z" />
    <glyph glyph-name="afii10031" unicode="&#x41d;" horiz-adv-x="705" 
d="M62 674h181v-250h219v250h181v-674h-181v266h-219v-266h-181v674z" />
    <glyph glyph-name="afii10032" unicode="&#x41e;" horiz-adv-x="730" 
d="M359 -11h-1q-151 0 -237.5 98.5t-86.5 245.5q0 151 91.5 251.5t243.5 100.5q155 0 241 -98.5t86 -242.5q0 -163 -91 -259t-246 -96zM365 132h2q64 0 101 56.5t37 149.5q0 89 -37.5 146.5t-102.5 57.5q-64 0 -102 -57.5t-38 -147.5q-1 -92 37 -148.5t103 -56.5z" />
    <glyph glyph-name="afii10033" unicode="&#x41f;" horiz-adv-x="693" 
d="M62 674h570v-674h-181v526h-208v-526h-181v674z" />
    <glyph glyph-name="afii10034" unicode="&#x420;" horiz-adv-x="602" 
d="M62 0v664q92 15 222 15q143 0 214 -54q77 -57 77 -162q0 -106 -66 -166q-79 -70 -224 -70q-10 0 -24.5 1t-19.5 1v-229h-179zM241 539v-172q20 -2 41 -2q53 0 83.5 25.5t30.5 68.5q0 39 -26 61.5t-76 22.5q-35 0 -53 -4z" />
    <glyph glyph-name="afii10035" unicode="&#x421;" horiz-adv-x="602" 
d="M541 159l25 -141q-54 -28 -169 -28q-92 0 -163 27t-113.5 74t-64.5 106.5t-22 128.5q0 114 52.5 197t136 122t186.5 39q110 0 168 -29l-35 -143q-58 24 -125 24q-83 0 -138 -50.5t-55 -147.5q0 -92 52 -145t145 -53q72 0 120 19z" />
    <glyph glyph-name="afii10036" unicode="&#x422;" horiz-adv-x="570" 
d="M193 0v522h-172v152h528v-152h-175v-522h-181z" />
    <glyph glyph-name="afii10037" unicode="&#x423;" horiz-adv-x="617" 
d="M3 676h204l82 -223q11 -28 26 -72.5t21 -60.5h3l8 31t12.5 50.5t14.5 54.5l59 220h190l-120 -326q-80 -205 -136 -274q-74 -92 -191 -92q-49 0 -86 13l12 145q22 -6 58 -6q59 0 74 39q5 14 -3 27z" />
    <glyph glyph-name="afii10038" unicode="&#x424;" horiz-adv-x="817" 
d="M325 703h168v-58q57 -5 107 -24t92 -54t66.5 -93.5t24.5 -133.5q0 -74 -24 -132t-65.5 -93.5t-92 -56t-110.5 -26.5v-61h-168v61q-58 5 -108 24t-91.5 54.5t-65.5 92.5t-24 131q0 61 18 112t47 85t67.5 59t78 38t80.5 17v58zM324 157v365q-43 -8 -76 -52.5t-33 -131.5
q0 -82 34.5 -129t74.5 -52zM492 522v-365q42 7 76 50t34 133q0 87 -32.5 130.5t-77.5 51.5z" />
    <glyph glyph-name="afii10039" unicode="&#x425;" horiz-adv-x="631" 
d="M619 0h-209l-49 110l-52 117h-2q-1 -3 -44 -116l-45 -111h-205l190 341l-183 333h207l46 -107l45 -112h2q18 53 40 111l41 108h206l-183 -329z" />
    <glyph glyph-name="afii10040" unicode="&#x426;" horiz-adv-x="713" 
d="M62 674h181v-526h204v526h181v-532l71 -5l-8 -311h-136l-9 174h-484v674z" />
    <glyph glyph-name="afii10041" unicode="&#x427;" horiz-adv-x="661" 
d="M55 674h180v-192q0 -102 100 -102q41 0 84 20v274h180v-685h-180v279h-3q-74 -31 -146 -31q-102 0 -158.5 55.5t-56.5 157.5v224z" />
    <glyph glyph-name="afii10042" unicode="&#x428;" horiz-adv-x="942" 
d="M62 674h177v-526h143v526h177v-526h144v526h177v-674h-818v674z" />
    <glyph glyph-name="afii10043" unicode="&#x429;" horiz-adv-x="964" 
d="M62 674h177v-526h143v526h177v-526h144v526h177v-532l71 -5l-8 -311h-136l-9 174h-736v674z" />
    <glyph glyph-name="afii10044" unicode="&#x42a;" horiz-adv-x="738" 
d="M17 674h349v-227q38 6 82 6q106 0 181.5 -60t75.5 -164q0 -91 -55 -148q-89 -89 -286 -89q-115 0 -177 12v523h-170v147zM365 311v-181q19 -3 50 -3q44 0 72 26t28 70q0 45 -28.5 68.5t-72.5 23.5q-21 0 -49 -4z" />
    <glyph glyph-name="afii10045" unicode="&#x42b;" horiz-adv-x="898" 
d="M62 674h179v-227q40 6 73 6q113 0 192 -58.5t79 -167.5q0 -89 -55 -146q-89 -89 -293 -89q-113 0 -175 12v670zM240 311v-181q15 -3 45 -3q44 0 77 26t33 70t-34 68t-73 24q-12 0 -48 -4zM640 674h181v-673h-181v673z" />
    <glyph glyph-name="afii10046" unicode="&#x42c;" horiz-adv-x="628" 
d="M62 674h179v-227q44 6 82 6q118 0 195 -57.5t77 -165.5q0 -92 -55 -149q-89 -89 -301 -89q-115 0 -177 12v670zM240 311v-181q24 -3 51 -3q50 0 82 24.5t32 70.5t-30.5 69.5t-80.5 23.5q-18 0 -54 -4z" />
    <glyph glyph-name="afii10047" unicode="&#x42d;" horiz-adv-x="595" 
d="M89 270v140h278q-7 57 -50 93.5t-116 36.5q-65 0 -135 -25l-34 132q87 38 184 38q90 0 158 -28.5t108 -78t59.5 -110.5t19.5 -133q0 -166 -101.5 -256t-261.5 -90q-50 0 -99 9.5t-73 21.5l30 138q50 -21 130 -21q73 0 120.5 36t58.5 97h-276z" />
    <glyph glyph-name="afii10048" unicode="&#x42e;" horiz-adv-x="944" 
d="M62 674h180v-252h73q24 117 103.5 190t194.5 73q94 0 163.5 -48.5t102.5 -124.5t33 -168q0 -163 -84 -259t-225 -96q-122 0 -199.5 79t-93.5 203h-68v-271h-180v674zM609 131h1q57 0 88.5 57t31.5 150q0 89 -32.5 147t-88.5 58q-57 0 -90 -58t-33 -148q0 -92 33 -149
t90 -57z" />
    <glyph glyph-name="afii10049" unicode="&#x42f;" horiz-adv-x="625" 
d="M198 0h-192q21 33 37 82l14 44t15.5 46.5t15 38t21 39t25.5 29.5q21 21 55 35v3q-59 12 -99 52.5t-40 110.5q0 90 73 146q72 53 233 53q111 0 207 -15v-664h-179v253h-24q-36 0 -62 -23q-15 -13 -27.5 -36t-19 -42t-15.5 -50t-13 -42q-13 -37 -25 -60zM384 385v155
q-23 5 -53 5q-45 0 -73 -20.5t-28 -62.5q0 -39 31 -59.5t77 -20.5q26 0 46 3z" />
    <glyph glyph-name="afii10065" unicode="&#x430;" horiz-adv-x="548" 
d="M493 286v-166q0 -80 8 -120h-163l-9 43h-4q-47 -54 -136 -54q-73 0 -118 45.5t-45 109.5q0 95 77.5 143t208.5 48v4q0 42 -81 42q-73 0 -139 -36l-31 113q82 45 204 45q120 0 174 -58.5t54 -158.5zM318 185v40q-115 0 -115 -64q0 -47 51 -47q20 0 37.5 12.5t24.5 32.5
q2 8 2 26z" />
    <glyph glyph-name="afii10066" unicode="&#x431;" horiz-adv-x="599" 
d="M514 720l-11 -140q-44 -12 -121 -16q-102 -9 -147 -53q-45 -41 -53 -105h6q23 38 64.5 62t92.5 24q102 0 162.5 -68.5t60.5 -177.5q0 -117 -75.5 -187.5t-188.5 -70.5q-127 0 -197.5 87t-70.5 236q0 210 118 310q77 69 203 81q123 10 157 18zM383 241v1q0 51 -20 89
t-63 38q-35 0 -55 -29q-27 -37 -27 -95q0 -50 20.5 -89.5t63.5 -39.5q41 0 61 36.5t20 88.5z" />
    <glyph glyph-name="afii10067" unicode="&#x432;" horiz-adv-x="574" 
d="M56 2v484q99 13 215 13q254 0 254 -126q0 -44 -29.5 -70t-71.5 -34v-3q57 -10 89 -40.5t32 -78.5q0 -155 -303 -155q-104 0 -186 10zM234 388v-82h28q86 0 86 43q0 42 -70 42q-7 0 -14.5 -0.5t-16 -1.5t-13.5 -1zM233 204v-105q12 -1 43 -1q84 0 84 54q0 52 -93 52h-34z
" />
    <glyph glyph-name="afii10068" unicode="&#x433;" horiz-adv-x="430" 
d="M55 492h361v-139h-180v-353h-181v492z" />
    <glyph glyph-name="afii10069" unicode="&#x434;" horiz-adv-x="616" 
d="M126 492h419v-366l56 -3l-8 -283h-134l-6 160h-296l-8 -160h-135l-4 281l48 5q33 47 48 103q20 72 20 145v118zM282 361v-47q0 -43 -15 -103q-9 -40 -32 -81h135v231h-88z" />
    <glyph glyph-name="afii10070" unicode="&#x435;" horiz-adv-x="539" 
d="M506 183h-304q4 -28 40.5 -44.5t86.5 -16.5q74 0 134 19l23 -120q-80 -31 -184 -31q-129 0 -200 66.5t-71 184.5q0 45 15 89.5t44 84t80 64t116 24.5q113 0 170 -71.5t57 -180.5q0 -40 -7 -68zM200 305h147q0 29 -16 54.5t-54 25.5q-36 0 -55 -25.5t-22 -54.5z" />
    <glyph glyph-name="afii10072" unicode="&#x436;" horiz-adv-x="767" 
d="M-4 492h197l89 -190h15v190h174v-190h15l89 190h197l-161 -209q33 -7 59.5 -41.5t41.5 -79.5q44 -129 60 -162h-180q-10 17 -41 112q-26 75 -70 75h-10v-187h-174v187h-10q-47 0 -72 -75q-33 -96 -42 -112h-177q10 22 61 162q16 46 41.5 80t58.5 41z" />
    <glyph glyph-name="afii10073" unicode="&#x437;" horiz-adv-x="512" 
d="M108 197v108h85q79 0 79 36q0 17 -20 27.5t-58 10.5q-66 0 -127 -34l-33 103q89 53 217 53q38 0 73 -6.5t67 -21t51.5 -41.5t19.5 -64q0 -81 -105 -108v-4q50 -6 87.5 -33.5t37.5 -77.5q0 -45 -25.5 -77t-67 -48t-81.5 -22.5t-82 -6.5q-123 0 -206 51l36 109
q63 -32 146 -34q83 0 83 38q0 42 -91 42h-86z" />
    <glyph glyph-name="afii10074" unicode="&#x438;" horiz-adv-x="616" 
d="M55 492h170v-127q0 -7 -9 -202h5q10 27 24.5 71t22.5 65l70 193h223v-492h-170v125q0 33 1.5 60.5l4 70t4.5 86.5h-5q-18 -68 -38 -123l-82 -219h-221v492z" />
    <glyph glyph-name="afii10075" unicode="&#x439;" horiz-adv-x="616" 
d="M55 492h170v-127q0 -7 -9 -202h5q10 27 24.5 71t22.5 65l70 193h223v-492h-170v125q0 33 1.5 60.5l4 70t4.5 86.5h-5q-18 -68 -38 -123l-82 -219h-221v492zM158 695h111q0 -68 38 -68q36 0 41 68h110q-4 -73 -44.5 -110.5t-108.5 -37.5q-139 0 -147 148z" />
    <glyph glyph-name="afii10076" unicode="&#x43a;" horiz-adv-x="552" 
d="M55 492h180v-189h14l99 189h208l-167 -208q60 -13 106 -129q1 -4 24 -65t38 -90h-188q-8 13 -44 112q-25 73 -76 73h-14v-185h-180v492z" />
    <glyph glyph-name="afii10077" unicode="&#x43b;" horiz-adv-x="563" 
d="M82 492h426v-492h-181v355h-79v-75q0 -89 -14.5 -146.5t-50.5 -90.5q-51 -55 -163 -55l-20 139q41 8 58 29q15 19 19.5 47.5t4.5 86.5v202z" />
    <glyph glyph-name="afii10078" unicode="&#x43c;" horiz-adv-x="753" 
d="M45 0l33 492h231l38 -161q2 -8 28 -118h3q10 41 31 120l43 159h229l28 -492h-166l-6 180q0 9 -2 73.5l-3 97.5h-2q-9 -30 -20 -73.5t-24 -87.5l-54 -180h-131l-46 174q-6 26 -18.5 84.5t-17.5 78.5h-4q-1 -28 -2 -89.5t-2 -80.5l-7 -177h-159z" />
    <glyph glyph-name="afii10079" unicode="&#x43d;" horiz-adv-x="593" 
d="M55 492h181v-170h121v170h181v-492h-181v183h-121v-183h-181v492z" />
    <glyph glyph-name="afii10080" unicode="&#x43e;" horiz-adv-x="589" 
d="M293 -11h-1q-114 0 -187.5 68t-73.5 185q0 119 73 190t198 71q115 0 185.5 -70t70.5 -182q0 -127 -77 -194.5t-188 -67.5zM296 116h1q36 0 55.5 35t19.5 95q0 56 -19 93t-56 37q-42 0 -61 -37.5t-19 -92.5q0 -59 20 -94.5t59 -35.5z" />
    <glyph glyph-name="afii10081" unicode="&#x43f;" horiz-adv-x="590" 
d="M55 492h479v-492h-181v355h-117v-355h-181v492z" />
    <glyph glyph-name="afii10082" unicode="&#x440;" horiz-adv-x="610" 
d="M55 -198v522q0 76 -4 168h156l8 -63h2q56 74 160 74q81 0 141.5 -68.5t60.5 -182.5q0 -126 -67.5 -194.5t-156.5 -68.5q-40 0 -71.5 13.5t-45.5 33.5h-2v-234h-181zM236 276v-61q0 -17 3 -30q5 -25 24.5 -42t45.5 -17q40 0 63.5 31.5t23.5 85.5t-21.5 86.5t-63.5 32.5
q-27 0 -47.5 -18t-25.5 -45q-2 -7 -2 -23z" />
    <glyph glyph-name="afii10083" unicode="&#x441;" horiz-adv-x="452" 
d="M414 143l19 -132q-43 -21 -135 -21q-123 0 -195 67.5t-72 184.5q0 111 75.5 185.5t213.5 74.5q63 0 113 -17l-25 -132q-29 12 -78 12q-51 0 -83 -32t-31 -85q0 -57 34 -87.5t85 -30.5q46 0 79 13z" />
    <glyph glyph-name="afii10084" unicode="&#x442;" horiz-adv-x="483" 
d="M13 492h457v-137h-138v-355h-181v355h-138v137z" />
    <glyph glyph-name="afii10085" unicode="&#x443;" horiz-adv-x="545" 
d="M5 492h200l59 -221l12.5 -51t8.5 -37h4q3 12 9 43t9 44l45 222h192l-105 -313q-52 -146 -92 -218t-83 -110q-70 -62 -164 -72l-37 152q32 5 62 19q34 13 58 45q9 13 9 22q0 12 -7 26z" />
    <glyph glyph-name="afii10086" unicode="&#x444;" horiz-adv-x="754" 
d="M292 704h170l-2 -204q113 -13 188 -79t75 -179q0 -112 -76.5 -177t-186.5 -74l2 -189h-170l3 189q-111 9 -187.5 74.5t-76.5 177.5q0 113 75 178.5t188 78.5zM295 107v278q-87 -27 -87 -138q0 -114 87 -140zM459 385v-278q87 28 87 140q0 109 -87 138z" />
    <glyph glyph-name="afii10087" unicode="&#x445;" horiz-adv-x="544" 
d="M3 492h201l39 -73q13 -24 36 -70h3q22 53 32 73l33 70h195l-159 -233l160 -259h-204l-39 79q-21 40 -32 71h-3l-15.5 -35.5l-15.5 -35.5l-36 -79h-197l163 251z" />
    <glyph glyph-name="afii10088" unicode="&#x446;" horiz-adv-x="606" 
d="M55 492h181v-355h120v355h181v-366l56 -3l-8 -283h-134l-6 160h-390v492z" />
    <glyph glyph-name="afii10089" unicode="&#x447;" horiz-adv-x="577" 
d="M51 492h181v-150q0 -38 14.5 -55.5t45.5 -17.5t49 16v207h181v-500h-181v179h-2q-44 -28 -119 -28q-82 0 -125.5 47.5t-43.5 135.5v166z" />
    <glyph glyph-name="afii10090" unicode="&#x448;" horiz-adv-x="845" 
d="M56 492h178v-356h100v356h178v-356h100v356h178v-492h-734v492z" />
    <glyph glyph-name="afii10091" unicode="&#x449;" horiz-adv-x="860" 
d="M56 492h178v-355h100v355h178v-355h100v355h178v-366l56 -3l-8 -283h-134l-6 160h-642v492z" />
    <glyph glyph-name="afii10092" unicode="&#x44a;" horiz-adv-x="681" 
d="M22 492h316v-137q32 6 79 6q62 0 112.5 -16t86.5 -58.5t36 -105.5q0 -86 -74 -133q-84 -54 -243 -54q-96 0 -177 10v351h-136v137zM337 236v-120q24 -2 45 -2q37 0 64 14.5t27 46.5q0 65 -97 65q-15 0 -39 -4z" />
    <glyph glyph-name="afii10093" unicode="&#x44b;" horiz-adv-x="826" 
d="M56 492h180v-138q42 6 79 6q59 0 107 -16t82.5 -56.5t34.5 -101.5q0 -91 -74 -138q-84 -54 -232 -54q-96 0 -177 10v488zM235 236v-120q22 -2 39 -2q36 0 61 16t25 50q0 31 -23 45.5t-56 14.5q-22 0 -46 -4zM590 492h181v-492h-181v492z" />
    <glyph glyph-name="afii10094" unicode="&#x44c;" horiz-adv-x="579" 
d="M56 492h180v-138q42 6 75 6q47 0 87.5 -9t75.5 -28t55.5 -54t20.5 -82q0 -92 -74 -139q-84 -54 -243 -54q-96 0 -177 10v488zM235 236v-120q24 -2 44 -2q38 0 65 15t27 49t-28 48t-65 14q-19 0 -43 -4z" />
    <glyph glyph-name="afii10095" unicode="&#x44d;" horiz-adv-x="494" 
d="M79 190v111h202q-19 72 -116 72q-60 0 -107 -21l-31 115q70 36 170 36q111 0 180 -56q86 -74 86 -198q0 -120 -78.5 -190t-211.5 -70q-87 0 -153 32l25 121q51 -17 109 -17q100 0 122 65h-197z" />
    <glyph glyph-name="afii10096" unicode="&#x44e;" horiz-adv-x="799" 
d="M55 492h180v-173h55q20 86 82.5 135t156.5 49q106 0 173 -70.5t67 -181.5q0 -127 -72.5 -194.5t-175.5 -67.5q-91 0 -155.5 53.5t-79.5 146.5h-51v-189h-180v492zM524 116h1q64 0 64 131q0 55 -16 92t-49 37q-35 0 -51.5 -37t-16.5 -92q0 -59 17 -95t51 -36z" />
    <glyph glyph-name="afii10097" unicode="&#x44f;" horiz-adv-x="578" 
d="M523 490v-490h-178v175h-16q-41 0 -66 -38q-17 -20 -45 -96q-2 -5 -20 -41h-191q13 16 30 54q38 96 66 129q26 31 65 40v3q-47 5 -86.5 36.5t-39.5 85.5q0 86 92 125q63 28 188 28q102 0 201 -11zM345 283v105q-27 3 -42 3q-34 0 -54 -14.5t-20 -40.5q0 -25 22 -40
t55 -15q19 0 39 2z" />
    <glyph glyph-name="afii10071" unicode="&#x451;" horiz-adv-x="539" 
d="M506 183h-304q4 -28 40.5 -44.5t86.5 -16.5q74 0 134 19l23 -120q-80 -31 -184 -31q-129 0 -200 66.5t-71 184.5q0 45 15 89.5t44 84t80 64t116 24.5q113 0 170 -71.5t57 -180.5q0 -40 -7 -68zM200 305h147q0 29 -16 54.5t-54 25.5q-36 0 -55 -25.5t-22 -54.5zM177 551
h-1q-34 0 -57 23t-23 56q0 34 23 56.5t58 22.5q32 0 54 -22.5t22 -56.5q0 -33 -22 -56t-54 -23zM398 551h-2q-33 0 -55.5 23t-22.5 56q0 34 22.5 56.5t57.5 22.5q33 0 55 -22.5t22 -56.5q0 -33 -22 -56t-55 -23z" />
    <glyph glyph-name="afii10099" unicode="&#x452;" horiz-adv-x="599" 
d="M-1 650h68v59h181v-59h205v-116h-205v-95h2q49 47 119 47q99 0 152 -93q44 -75 44 -192q0 -240 -138 -316q-61 -35 -112 -37l-34 144q36 7 62 33q17 19 29 64.5t12 96.5q0 74 -20 115q-19 40 -55 40q-29 0 -51 -22q-10 -14 -10 -35v-284h-181v534h-68v116z" />
    <glyph glyph-name="afii10100" unicode="&#x453;" horiz-adv-x="430" 
d="M55 492h361v-139h-180v-353h-181v492zM235 706h160l-123 -156h-122z" />
    <glyph glyph-name="afii10101" unicode="&#x454;" horiz-adv-x="478" 
d="M458 479l-30 -123q-36 18 -93 18q-46 0 -77 -19t-40 -54h186v-111h-182q20 -67 121 -67q49 0 92 15l24 -122q-52 -27 -147 -27q-129 0 -205 67t-76 185q0 126 85 194t214 68q82 0 128 -24z" />
    <glyph glyph-name="afii10102" unicode="&#x455;" horiz-adv-x="451" 
d="M29 25l31 127q22 -14 63.5 -25.5t72.5 -11.5q54 0 54 27q0 13 -12 21t-52 21q-147 46 -145 150q0 74 59 121.5t155 47.5q82 0 146 -28l-29 -122q-56 27 -109 27q-49 0 -49 -28q0 -12 15.5 -21.5t58.5 -23.5q71 -23 102.5 -60.5t32.5 -91.5q0 -74 -57.5 -119.5
t-167.5 -45.5q-101 0 -169 35z" />
    <glyph glyph-name="afii10103" unicode="&#x456;" horiz-adv-x="292" 
d="M236 0h-181v492h181v-492zM146 543h-1q-41 0 -66 24.5t-25 60.5q0 38 25 62t67 24q41 0 66 -24t26 -62q0 -36 -25.5 -60.5t-66.5 -24.5z" />
    <glyph glyph-name="afii10104" unicode="&#x457;" horiz-adv-x="292" 
d="M236 0h-181v492h181v-492zM37 551h-1q-34 0 -57 23t-23 56q0 34 23 56.5t58 22.5q32 0 54 -22.5t22 -56.5q0 -33 -22 -56t-54 -23zM258 551h-2q-33 0 -55.5 23t-22.5 56q0 34 22.5 56.5t57.5 22.5q33 0 55 -22.5t22 -56.5q0 -33 -22 -56t-55 -23z" />
    <glyph glyph-name="afii10105" unicode="&#x458;" horiz-adv-x="312" 
d="M-20 -216l-17 140q62 5 87 30q16 16 22.5 49t6.5 101v388h181v-426q0 -155 -74 -220q-71 -62 -206 -62zM169 543h-1q-41 0 -66 24.5t-25 60.5q0 38 25 62t67 24q41 0 66 -24t26 -62q0 -36 -25.5 -60.5t-66.5 -24.5z" />
    <glyph glyph-name="afii10106" unicode="&#x459;" horiz-adv-x="846" 
d="M82 492h426v-140q42 4 74 4q62 0 112.5 -16.5t86.5 -58t36 -102.5q0 -83 -66 -130q-78 -55 -242 -55q-100 0 -181 10v352h-80v-76q0 -178 -65 -236q-50 -56 -163 -56l-20 139q40 8 57 28q25 27 25 136v201zM507 234v-118q24 -2 43 -2q36 0 62 14.5t26 47.5t-24.5 47.5
t-58.5 14.5q-22 0 -48 -4z" />
    <glyph glyph-name="afii10107" unicode="&#x45a;" horiz-adv-x="864" 
d="M55 492h181v-160h110v160h180v-142q42 6 75 6q98 0 166 -44.5t68 -134.5q0 -81 -66 -128q-78 -55 -242 -55q-100 0 -181 10v197h-110v-201h-181v492zM525 234v-118q24 -2 43 -2q36 0 62 15t26 47q0 62 -87 62q-18 0 -44 -4z" />
    <glyph glyph-name="afii10108" unicode="&#x45b;" horiz-adv-x="610" 
d="M-1 650h68v61h181v-61h197v-116h-197v-111h2q24 30 58 46q37 17 74 17q83 0 128 -56.5t45 -159.5v-270h-181v248q0 93 -64 93q-40 0 -58 -39q-4 -11 -4 -29v-273h-181v534h-68v116z" />
    <glyph glyph-name="afii10109" unicode="&#x45c;" horiz-adv-x="552" 
d="M55 492h180v-189h14l99 189h208l-167 -208q60 -13 106 -129q1 -4 24 -65t38 -90h-188q-8 13 -44 112q-25 73 -76 73h-14v-185h-180v492zM281 706h160l-123 -156h-122z" />
    <glyph glyph-name="afii10110" unicode="&#x45e;" horiz-adv-x="545" 
d="M5 492h200l59 -221l12.5 -51t8.5 -37h4q3 12 9 43t9 44l45 222h192l-105 -313q-52 -146 -92 -218t-83 -110q-70 -62 -164 -72l-37 152q32 5 62 19q34 13 58 45q9 13 9 22q0 12 -7 26zM123 695h111q0 -68 38 -68q36 0 41 68h110q-4 -73 -44.5 -110.5t-108.5 -37.5
q-139 0 -147 148z" />
    <glyph glyph-name="afii10193" unicode="&#x45f;" horiz-adv-x="592" 
d="M55 492h181v-356h120v356h181v-492h-160l-9 -169h-145l-9 169h-159v492z" />
    <glyph glyph-name="afii10050" unicode="&#x490;" horiz-adv-x="511" 
d="M62 674h295l16 133h128l-12 -281h-246v-526h-181v674z" />
    <glyph glyph-name="afii10098" unicode="&#x491;" horiz-adv-x="448" 
d="M55 492h236l16 122h124l-10 -261h-185v-353h-181v492z" />
    <glyph glyph-name="afii10846" unicode="&#x4d9;" horiz-adv-x="539" 
d="M76 349l-23 118q88 36 187 36q127 0 197.5 -67t70.5 -185q0 -45 -14.5 -89t-43.5 -83.5t-79.5 -64t-114.5 -24.5q-114 0 -172 71.5t-58 180.5q0 39 7 67h304q-9 62 -122 62q-67 0 -139 -22zM339 187h-147q0 -27 17.5 -53t55.5 -26q37 0 54 24.5t20 54.5z" />
    <glyph glyph-name="Wgrave" unicode="&#x1e80;" horiz-adv-x="906" 
d="M370 0h-200l-155 674h194l39 -250q2 -13 34 -237h2q14 94 40 240l43 247h193l42 -259q16 -101 30 -223h2q9 68 34 235l40 247h183l-166 -674h-197l-45 264q-16 93 -28 202h-2q-20 -142 -32 -202zM274 836h183l81 -124h-144z" />
    <glyph glyph-name="wgrave" unicode="&#x1e81;" horiz-adv-x="769" 
d="M8 492h184l28 -181q17 -102 24 -163h2q4 25 33 162l39 182h141l38 -175q28 -140 32 -169h2q8 74 25 171l29 173h176l-147 -492h-170l-34 146q-12 54 -27 150h-2q-9 -81 -25 -148l-37 -148h-170zM225 706h160l85 -156h-123z" />
    <glyph glyph-name="Wacute" unicode="&#x1e82;" horiz-adv-x="906" 
d="M370 0h-200l-155 674h194l39 -250q2 -13 34 -237h2q14 94 40 240l43 247h193l42 -259q16 -101 30 -223h2q9 68 34 235l40 247h183l-166 -674h-197l-45 264q-16 93 -28 202h-2q-20 -142 -32 -202zM466 836h183l-120 -126h-144z" />
    <glyph glyph-name="wacute" unicode="&#x1e83;" horiz-adv-x="769" 
d="M8 492h184l28 -181q17 -102 24 -163h2q4 25 33 162l39 182h141l38 -175q28 -140 32 -169h2q8 74 25 171l29 173h176l-147 -492h-170l-34 146q-12 54 -27 150h-2q-9 -81 -25 -148l-37 -148h-170zM392 706h160l-123 -156h-122z" />
    <glyph glyph-name="Wdieresis" unicode="&#x1e84;" horiz-adv-x="906" 
d="M370 0h-200l-155 674h194l39 -250q2 -13 34 -237h2q14 94 40 240l43 247h193l42 -259q16 -101 30 -223h2q9 68 34 235l40 247h183l-166 -674h-197l-45 264q-16 93 -28 202h-2q-20 -142 -32 -202zM358 709h-1q-32 0 -54.5 22.5t-22.5 54.5t22.5 54t55.5 22q31 0 52.5 -22
t21.5 -54t-21.5 -54.5t-52.5 -22.5zM575 709h-1q-32 0 -54 22.5t-22 54.5t22 54t55 22q32 0 53.5 -22t21.5 -54t-22 -54.5t-53 -22.5z" />
    <glyph glyph-name="wdieresis" unicode="&#x1e85;" horiz-adv-x="769" 
d="M8 492h184l28 -181q17 -102 24 -163h2q4 25 33 162l39 182h141l38 -175q28 -140 32 -169h2q8 74 25 171l29 173h176l-147 -492h-170l-34 146q-12 54 -27 150h-2q-9 -81 -25 -148l-37 -148h-170zM276 551h-1q-34 0 -57 23t-23 56q0 34 23 56.5t58 22.5q32 0 54 -22.5
t22 -56.5q0 -33 -22 -56t-54 -23zM497 551h-2q-33 0 -55.5 23t-22.5 56q0 34 22.5 56.5t57.5 22.5q33 0 55 -22.5t22 -56.5q0 -33 -22 -56t-55 -23z" />
    <glyph glyph-name="Ygrave" unicode="&#x1ef2;" horiz-adv-x="629" 
d="M400 0h-181v272l-212 402h207l57 -152q31 -80 46 -125h2q19 61 43 125l55 152h204l-221 -395v-279zM143 836h183l81 -124h-144z" />
    <glyph glyph-name="ygrave" unicode="&#x1ef3;" horiz-adv-x="545" 
d="M5 492h200l59 -221l12.5 -51t8.5 -37h4q3 12 9 43t9 44l45 222h192l-105 -313q-52 -146 -92 -218t-83 -110q-70 -62 -164 -72l-37 152q32 5 62 19q34 13 58 45q9 13 9 22q0 12 -7 26zM119 706h160l85 -156h-123z" />
    <glyph glyph-name="endash" unicode="&#x2013;" horiz-adv-x="500" 
d="M30 309h440v-109h-440v109z" />
    <glyph glyph-name="emdash" unicode="&#x2014;" horiz-adv-x="1000" 
d="M30 309h940v-109h-940v109z" />
    <glyph glyph-name="quoteleft" unicode="&#x2018;" horiz-adv-x="284" 
d="M188 407l-165 -9q52 155 132 285l108 9q-55 -156 -75 -285z" />
    <glyph glyph-name="quoteright" unicode="&#x2019;" horiz-adv-x="284" 
d="M97 683l165 9q-52 -155 -132 -285l-108 -9q55 156 75 285z" />
    <glyph glyph-name="quotesinglbase" unicode="&#x201a;" horiz-adv-x="284" 
d="M122 -89l-108 -9q55 156 75 285l165 9q-52 -155 -132 -285z" />
    <glyph glyph-name="quotedblleft" unicode="&#x201c;" horiz-adv-x="497" 
d="M187 407l-165 -9q52 155 132 285l108 9q-53 -148 -75 -285zM403 407l-165 -9q52 155 132 285l108 9q-55 -156 -75 -285z" />
    <glyph glyph-name="quotedblright" unicode="&#x201d;" horiz-adv-x="497" 
d="M95 683l165 9q-52 -155 -132 -285l-108 -9q55 156 75 285zM311 683l165 9q-52 -155 -132 -285l-108 -9q53 148 75 285z" />
    <glyph glyph-name="quotedblbase" unicode="&#x201e;" horiz-adv-x="503" 
d="M121 -89l-108 -9q55 156 75 285l165 9q-52 -155 -132 -285zM337 -89l-108 -9q53 148 75 285l165 9q-52 -155 -132 -285z" />
    <glyph glyph-name="dagger" unicode="&#x2020;" horiz-adv-x="534" 
d="M186 674h163l-16 -196l171 14v-138l-171 14l16 -418h-163l16 418l-171 -14v138l171 -14z" />
    <glyph glyph-name="daggerdbl" unicode="&#x2021;" horiz-adv-x="534" 
d="M187 674h160l-12 -179l169 14v-138l-169 14v-137l169 14v-138l-169 14l12 -188h-160l12 188l-169 -14v138l169 -14v137l-169 -14v138l169 -14z" />
    <glyph glyph-name="bullet" unicode="&#x2022;" horiz-adv-x="362" 
d="M181 119h-1q-58 0 -99 41t-41 101q-1 60 40.5 101t100.5 41t100 -41t41 -101t-41 -101t-100 -41z" />
    <glyph glyph-name="ellipsis" unicode="&#x2026;" horiz-adv-x="1000" 
d="M166 -11h-1q-45 0 -73.5 29.5t-28.5 75.5t29 75.5t74 29.5q46 0 74 -29t29 -76q0 -47 -28.5 -76t-74.5 -29zM500 -11h-1q-45 0 -73.5 29.5t-28.5 75.5t29 75.5t74 29.5q46 0 74 -29t29 -76q0 -47 -28.5 -76t-74.5 -29zM834 -11h-1q-45 0 -73.5 29.5t-28.5 75.5t29 75.5
t74 29.5q46 0 74 -29t29 -76q0 -47 -28.5 -76t-74.5 -29z" />
    <glyph glyph-name="perthousand" unicode="&#x2030;" horiz-adv-x="1340" 
d="M218 661h1q87 0 136 -55t49 -138q0 -97 -56 -152.5t-135 -55.5q-81 0 -134 54.5t-53 142.5q0 86 52 145t140 59zM216 565h-1q-57 0 -57 -105q0 -104 59 -104q55 0 55 104q0 105 -56 105zM320 -11h-93l370 670h92zM706 391h1q87 0 136 -55t49 -138q0 -97 -56 -152.5
t-135 -55.5q-81 0 -134 54.5t-53 142.5q0 86 52 145t140 59zM704 295h-1q-57 0 -57 -105q0 -104 59 -104q55 0 55 104q0 105 -56 105zM1127 391h1q87 0 136 -55t49 -138q0 -97 -56 -152.5t-135 -55.5q-81 0 -134.5 54.5t-53.5 142.5q0 86 52.5 145t140.5 59zM1125 295h-1
q-58 0 -58 -105q0 -48 15.5 -76t44.5 -28q55 0 55 104q0 105 -56 105z" />
    <glyph glyph-name="guilsinglleft" unicode="&#x2039;" horiz-adv-x="277" 
d="M255 446l-113 -193l113 -194h-121l-108 194l108 193h121z" />
    <glyph glyph-name="guilsinglright" unicode="&#x203a;" horiz-adv-x="277" 
d="M135 253l-113 193h119l110 -193l-110 -194h-119z" />
    <glyph glyph-name="fraction" unicode="&#x2044;" horiz-adv-x="427" 
d="M78 -11h-94l365 672h94z" />
    <glyph glyph-name="fraction" unicode="&#x2215;" horiz-adv-x="427" 
d="M78 -11h-94l365 672h94z" />
    <glyph glyph-name="zerosuperior" unicode="&#x2070;" horiz-adv-x="396" 
d="M198 438h-1q-89 0 -133 57.5t-44 143.5q0 84 43 141.5t133 57.5q89 0 134.5 -57.5t45.5 -144.5q0 -81 -44 -139.5t-134 -58.5zM198 528h1q47 0 47 109q0 111 -49 111q-47 0 -47 -111q0 -109 48 -109z" />
    <glyph glyph-name="foursuperior" unicode="&#x2074;" horiz-adv-x="413" 
d="M341 443h-126v85h-194v73l161 236h159v-224h50v-85h-50v-85zM215 613v55q0 12 5 79h-3q-25 -50 -37 -70l-38 -63l3 -1h70z" />
    <glyph glyph-name="fivesuperior" unicode="&#x2075;" horiz-adv-x="365" 
d="M313 833v-98h-164l-5 -33q6 1 24 1q81 0 122 -31q45 -32 45 -95q0 -60 -51 -99.5t-138 -39.5q-76 0 -124 21l19 90q45 -19 98 -19q27 0 48.5 9.5t21.5 32.5q0 48 -113 48q-8 0 -56 -3l27 216h246z" />
    <glyph glyph-name="sixsuperior" unicode="&#x2076;" horiz-adv-x="376" 
d="M307 836v-91q-16 4 -36 2q-103 -1 -127 -59l2 -1q35 21 82 21q57 0 92.5 -33.5t35.5 -91.5q0 -67 -48.5 -106t-112.5 -39q-87 0 -130.5 51.5t-43.5 122.5q0 105 70 167q64 57 177 58q20 1 39 -1zM192 527h1q17 0 28.5 14.5t11.5 34.5q0 52 -48 52q-33 0 -43 -29
q-2 -10 -2 -19q0 -20 14 -36.5t38 -16.5z" />
    <glyph glyph-name="sevensuperior" unicode="&#x2077;" horiz-adv-x="350" 
d="M25 833h309v-74l-162 -316h-132l164 291v1h-179v98z" />
    <glyph glyph-name="eightsuperior" unicode="&#x2078;" horiz-adv-x="375" 
d="M188 838h1q71 0 108.5 -31t37.5 -72q0 -27 -15.5 -48.5t-40.5 -33.5v-1q73 -27 73 -93q0 -53 -44.5 -87t-124.5 -34q-81 0 -120.5 34t-39.5 75q0 62 71 90v2q-59 29 -59 85q0 51 43.5 82.5t109.5 31.5zM188 520h1q16 0 27.5 9.5t11.5 24.5q0 35 -47 47q-36 -13 -36 -42
q0 -15 12.5 -27t30.5 -12zM185 758h-1q-17 0 -26.5 -9t-9.5 -23q0 -26 46 -41q12 3 20.5 13t8.5 23q0 16 -10.5 26.5t-27.5 10.5z" />
    <glyph glyph-name="ninesuperior" unicode="&#x2079;" horiz-adv-x="372" 
d="M58 440v91q20 -4 37 -2q48 0 81 14q41 19 51 51l-2 1q-26 -20 -73 -20q-53 0 -92 31.5t-39 90.5q0 60 46.5 100.5t114.5 40.5q85 0 127 -51t42 -119q0 -114 -68 -173q-64 -55 -189 -57q-20 0 -36 2zM184 749h-1q-16 0 -28 -13t-12 -33t11 -34.5t34 -14.5q27 0 37 18
q4 7 4 23q0 22 -11 38t-34 16z" />
    <glyph glyph-name="parenleftsuperior" unicode="&#x207d;" horiz-adv-x="215" 
d="M108 869h86q-53 -113 -53 -237q0 -123 53 -238h-86q-66 101 -66 238t66 237z" />
    <glyph glyph-name="parenrightsuperior" unicode="&#x207e;" horiz-adv-x="215" 
d="M107 394h-86q53 119 53 238q0 127 -53 237h86q66 -101 66 -238q0 -131 -66 -237z" />
    <glyph glyph-name="zeroinferior" unicode="&#x2080;" horiz-adv-x="396" 
d="M198 -152h-1q-89 0 -133 57.5t-44 143.5q0 84 43 141.5t133 57.5q89 0 134.5 -57.5t45.5 -144.5q0 -81 -44 -139.5t-134 -58.5zM198 -62h1q47 0 47 109q0 111 -49 111q-47 0 -47 -111q0 -109 48 -109z" />
    <glyph glyph-name="oneinferior" unicode="&#x2081;" horiz-adv-x="324" 
d="M260 -147h-138v280h-1l-83 -35l-17 96l120 49h119v-390z" />
    <glyph glyph-name="twoinferior" unicode="&#x2082;" horiz-adv-x="369" 
d="M17 -147v65l61 53l23 20l21 18l17.5 15.5t15.5 15l12 13t10.5 13t7 12t4.5 12.5t1 13q0 18 -14 28.5t-37 10.5q-47 0 -87 -26l-35 89q64 43 156 43q75 0 118 -34t43 -90q0 -33 -18 -63t-36 -46.5t-53 -43.5l-21 -16v-2h135v-100h-324z" />
    <glyph glyph-name="threeinferior" unicode="&#x2083;" horiz-adv-x="366" 
d="M48 132l-24 84q55 32 151 32q73 0 113.5 -28t40.5 -72q0 -64 -85 -89v-2q43 -4 71.5 -28t28.5 -62q0 -54 -52.5 -86.5t-138.5 -32.5q-92 0 -143 28l25 90q48 -26 100 -26q27 0 45.5 9t18.5 27q0 19 -23 30t-55 11h-32v78h29q71 0 71 32q0 29 -48 29q-47 0 -93 -24z" />
    <glyph glyph-name="fourinferior" unicode="&#x2084;" horiz-adv-x="413" 
d="M341 -147h-126v85h-194v73l161 236h159v-224h50v-85h-50v-85zM215 23v55q0 12 5 79h-3q-25 -50 -37 -70l-38 -63l3 -1h70z" />
    <glyph glyph-name="fiveinferior" unicode="&#x2085;" horiz-adv-x="365" 
d="M313 243v-98h-164l-5 -33q6 1 24 1q81 0 122 -31q45 -32 45 -95q0 -60 -51 -99.5t-138 -39.5q-76 0 -124 21l19 90q45 -19 98 -19q27 0 48.5 9.5t21.5 32.5q0 48 -113 48q-8 0 -56 -3l27 216h246z" />
    <glyph glyph-name="sixinferior" unicode="&#x2086;" horiz-adv-x="376" 
d="M307 246v-91q-16 4 -36 2q-103 -1 -127 -59l2 -1q35 21 82 21q57 0 92.5 -33.5t35.5 -91.5q0 -67 -48.5 -106t-112.5 -39q-87 0 -130.5 51.5t-43.5 122.5q0 105 70 167q64 57 177 58q20 1 39 -1zM192 -63h1q17 0 28.5 14.5t11.5 34.5q0 52 -48 52q-33 0 -43 -29
q-2 -10 -2 -19q0 -20 14 -36.5t38 -16.5z" />
    <glyph glyph-name="seveninferior" unicode="&#x2087;" horiz-adv-x="350" 
d="M25 243h309v-74l-162 -316h-132l164 291v1h-179v98z" />
    <glyph glyph-name="eightinferior" unicode="&#x2088;" horiz-adv-x="375" 
d="M188 248h1q71 0 108.5 -31t37.5 -72q0 -27 -15.5 -48.5t-40.5 -33.5v-1q73 -27 73 -93q0 -53 -44.5 -87t-124.5 -34q-81 0 -120.5 34t-39.5 75q0 62 71 90v2q-59 29 -59 85q0 51 43.5 82.5t109.5 31.5zM188 -70h1q16 0 27.5 9.5t11.5 24.5q0 35 -47 47q-36 -14 -36 -42
q0 -15 12.5 -27t30.5 -12zM185 168h-1q-17 0 -26.5 -9t-9.5 -23q0 -26 46 -41q12 3 20.5 13t8.5 23q0 16 -10.5 26.5t-27.5 10.5z" />
    <glyph glyph-name="nineinferior" unicode="&#x2089;" horiz-adv-x="372" 
d="M58 -150v91q20 -4 37 -2q48 0 81 14q41 19 51 51l-2 1q-26 -20 -73 -20q-53 0 -92 31.5t-39 90.5q0 60 46.5 100.5t114.5 40.5q85 0 127 -51t42 -119q0 -114 -68 -173q-64 -55 -189 -57q-20 0 -36 2zM184 159h-1q-16 0 -28 -13t-12 -33t11 -34.5t34 -14.5q27 0 37 18
q4 7 4 23q0 22 -11 38t-34 16z" />
    <glyph glyph-name="parenleftinferior" unicode="&#x208d;" horiz-adv-x="215" 
d="M108 279h86q-53 -113 -53 -237q0 -123 53 -238h-86q-66 101 -66 238t66 237z" />
    <glyph glyph-name="parenrightinferior" unicode="&#x208e;" horiz-adv-x="215" 
d="M107 -196h-86q53 119 53 238q0 127 -53 237h86q66 -101 66 -238q0 -131 -66 -237z" />
    <glyph glyph-name="Euro" unicode="&#x20ac;" horiz-adv-x="573" 
d="M512 158l27 -132q-68 -37 -159 -37q-81 0 -149.5 32t-112.5 93q-37 52 -50 112h-65v81h54v17q0 4 0.5 11.5t0.5 11.5h-55v81h68q18 69 63 122q94 111 246 111q86 0 157 -30l-32 -134q-60 23 -111 23q-77 0 -118 -55q-12 -15 -20 -37h236v-81h-254q-1 -8 -1 -26v-14h255
v-81h-238q8 -25 24 -44q42 -48 124 -48q64 0 110 24z" />
    <glyph glyph-name="afii61289" unicode="&#x2113;" horiz-adv-x="578" 
d="M280 479v-101q69 78 69 155q0 62 -30 62q-39 0 -39 -116zM466 209l80 -79q-83 -142 -240 -142q-152 0 -191 135q0 4 -1 5l-45 -28l-45 94q48 31 86 59v204q0 126 54.5 190t146.5 64q77 0 123 -47.5t46 -128.5q0 -83 -47.5 -154.5t-152.5 -160.5v-12q0 -34 19 -53.5
t50 -19.5q56 0 117 74z" />
    <glyph glyph-name="afii61352" unicode="&#x2116;" horiz-adv-x="992" 
d="M788 636h1q81 0 130 -49t49 -126q0 -90 -51.5 -135.5t-131.5 -45.5t-131 47t-51 128q0 82 50.5 131.5t134.5 49.5zM785 549h-1q-21 0 -32.5 -29.5t-11.5 -63.5q0 -38 12.5 -64t33.5 -26q45 0 45 92q0 38 -12.5 64.5t-33.5 26.5zM940 158h-308v85h308v-85zM216 0h-154v650
h195l79 -204q24 -60 78 -218h2q-12 135 -12 278v144h154v-650h-181l-85 217q-2 4 -80 224h-3q7 -140 7 -290v-151z" />
    <glyph glyph-name="trademark" unicode="&#x2122;" horiz-adv-x="663" 
d="M25 674h244v-76h-75v-197h-96v197h-73v76zM653 401h-91l-3 102q0 17 0.5 56t-0.5 63h-6q-15 -79 -23 -117l-19 -99h-89l-14 99q-2 13 -7.5 54t-9.5 63h-5q-3 -114 -3 -119l-4 -102h-89l15 273h148l6 -38q6 -34 16 -96h1q15 77 19 96l9 38h137z" />
    <glyph glyph-name="estimated" unicode="&#x212e;" horiz-adv-x="817" 
d="M782 316h-605q-5 0 -5 -4v-183q0 -10 9 -21q93 -99 229 -99q145 0 240 111h55q-52 -61 -130 -96t-166 -35q-155 0 -264.5 98.5t-109.5 237.5t109.5 237.5t264.5 98.5t264 -98.5t109 -237.5v-9zM646 340v184q0 12 -10 22q-95 95 -226 95q-133 0 -228 -98q-10 -10 -10 -23
v-180q0 -5 5 -5h464q5 0 5 5z" />
    <glyph glyph-name="partialdiff" unicode="&#x2202;" horiz-adv-x="592" 
d="M93 554l-51 121q92 59 208 59q136 0 224 -100t88 -262q0 -181 -89 -282t-222 -101q-109 0 -169.5 71.5t-60.5 156.5q0 107 60.5 178.5t162.5 71.5q90 0 139 -69h1v8q0 77 -42 130t-117 53q-68 0 -132 -35zM271 132h1q36 0 63 41t32 93q-4 22 -25.5 42.5t-52.5 20.5
q-39 0 -63 -33t-24 -82q0 -38 19.5 -60t49.5 -22z" />
    <glyph glyph-name="uni2206" unicode="&#x2206;" horiz-adv-x="658" 
d="M609 0h-561v88l174 562h219l168 -561v-89zM415 146l-55 201q-19 73 -38 161h-3q-26 -123 -34 -154l-56 -208h186z" />
    <glyph glyph-name="product" unicode="&#x220f;" horiz-adv-x="684" 
d="M671 502h-93v-592h-166v592h-142v-592h-166v592h-93v148h660v-148z" />
    <glyph glyph-name="summation" unicode="&#x2211;" horiz-adv-x="559" 
d="M549 -90h-532v101l204 266l-193 256v117h498v-148h-269v-4l156 -214l-167 -222v-4h303v-148z" />
    <glyph glyph-name="minus" unicode="&#x2212;" horiz-adv-x="596" 
d="M40 321h516v-108h-516v108z" />
    <glyph glyph-name="radical" unicode="&#x221a;" horiz-adv-x="601" 
d="M627 845l-227 -918h-119l-158 404l-80 -31l-27 77l193 79l99 -277q6 -17 26 -89h2q10 56 19 94l154 661h118z" />
    <glyph glyph-name="infinity" unicode="&#x221e;" horiz-adv-x="763" 
d="M562 88h-1q-34 0 -70 17t-58 35t-54 49l-16.5 -16t-18 -16.5t-17 -14.5t-19 -15.5l-18.5 -12t-22.5 -11.5t-22.5 -7.5t-26 -6t-28 -1.5q-75 0 -121.5 50.5t-46.5 126.5q0 72 49 123.5t127 51.5q35 0 71 -17t58 -35t54 -49l16.5 16t18 16.5t17 14.5t19 15.5l18.5 12
t22.5 11.5t22.5 7.5t26 6t28 1.5q75 0 121.5 -50t46.5 -125q0 -73 -48.5 -125t-127.5 -52zM558 194h1q27 0 46.5 21t19.5 50q0 30 -18.5 49.5t-45.5 19.5q-19 0 -41.5 -12.5t-32 -21.5l-35.5 -34l17 -17l20.5 -20.5t20 -16.5t24.5 -13.5t24 -4.5zM200 194h1q19 0 41 13
t31.5 22l35.5 35l-17 17t-21 20t-19.5 15.5t-24.5 13.5t-24 4q-28 0 -47.5 -20t-19.5 -49q0 -31 18.5 -51t45.5 -20z" />
    <glyph glyph-name="integral" unicode="&#x222b;" horiz-adv-x="377" 
d="M369 805l-15 -105q-18 5 -37 5q-34 0 -49 -29q-18 -34 -18 -144q0 -75 8 -208.5t8 -224.5q0 -123 -30 -183q-44 -88 -147 -88q-52 0 -78 13l19 109q15 -6 39 -6q27 0 43 22q23 31 23 127q0 92 -8 230.5t-8 219.5q0 151 64 222q45 48 123 48q39 0 63 -8z" />
    <glyph glyph-name="approxequal" unicode="&#x2248;" horiz-adv-x="596" 
d="M514 443l65 -67q-27 -48 -71 -77t-95 -29q-11 0 -21 1t-20.5 3.5t-17.5 4.5t-18.5 6.5t-15 6.5t-16 7.5t-13.5 6.5q-6 2 -22.5 10t-26 12t-26 8t-32.5 4q-57 0 -109 -65l-58 71q68 102 169 102q15 0 28.5 -2t28 -7t21 -7.5t23 -10.5l18.5 -9l22 -10.5t26 -11.5t26 -8
t32 -4q53 0 103 65zM518 225l62 -64q-28 -50 -72.5 -79.5t-96.5 -29.5q-10 0 -20 1t-20 3.5t-17 4.5t-17.5 6.5l-15 6.5t-16 7.5l-13.5 6.5q-5 2 -22.5 10.5t-27 12t-26.5 7.5t-34 4q-55 0 -107 -65l-58 73q28 44 72.5 72t94.5 28q13 0 26 -2t22 -4t22 -7t17.5 -7l18.5 -8.5
t16 -7.5l22 -10.5t26 -11.5t26 -8t31 -4q62 0 107 65z" />
    <glyph glyph-name="notequal" unicode="&#x2260;" horiz-adv-x="596" 
d="M556 104h-309l-56 -93h-111l58 93h-98v108h167l70 110h-237v108h306l56 93h112l-59 -93h101v-108h-170l-70 -110h240v-108z" />
    <glyph glyph-name="lessequal" unicode="&#x2264;" horiz-adv-x="596" 
d="M541 125l-486 170v105l486 169v-116l-336 -105v-2l336 -104v-117zM541 0h-486v100h486v-100z" />
    <glyph glyph-name="greaterequal" unicode="&#x2265;" horiz-adv-x="596" 
d="M541 295l-486 -170v117l336 104v2l-336 105v116l486 -169v-105zM541 0h-486v100h486v-100z" />
    <glyph glyph-name="lozenge" unicode="&#x25ca;" horiz-adv-x="596" 
d="M558 324l-195 -365h-131l-194 365l194 365h131zM416 320l-104 208q-11 22 -15 34h-2q-8 -18 -16 -34l-100 -201l104 -208q11 -21 15 -33h3q9 18 15 33z" />
    <glyph glyph-name="uniEFED" unicode="&#xefed;" 
d="M152 709h-1q-33 0 -55.5 22.5t-22.5 53.5q0 33 23 55t56 22q32 0 53.5 -22t21.5 -55q0 -31 -22 -53.5t-53 -22.5z" />
    <glyph glyph-name="uniEFEE" unicode="&#xefee;" 
d="M3 855h93q4 -45 53 -45q50 0 59 45h89q-1 -62 -38 -98.5t-109 -36.5q-74 0 -109.5 36t-37.5 99z" />
    <glyph glyph-name="uniEFF1" unicode="&#xeff1;" 
d="M64 1h92q-13 -30 -13 -62q0 -23 14.5 -38.5t39.5 -15.5q21 0 45 8l24 -83q-46 -35 -111 -35q-57 0 -89 29t-32 86q0 51 30 111z" />
    <glyph glyph-name="uniEFF2" unicode="&#xeff2;" 
d="M117 5h93l-20 -47q74 -19 74 -84q0 -51 -37.5 -74.5t-89.5 -23.5q-55 0 -91 20l21 69q26 -14 57 -14q33 0 33 22q0 28 -79 36z" />
    <glyph glyph-name="uniEFF3" unicode="&#xeff3;" horiz-adv-x="400" 
d="M201 900h1q58 0 89 -28.5t31 -73.5q0 -44 -32 -72t-89 -28t-89.5 28.5t-32.5 70.5q0 44 32 73.5t90 29.5zM199 843h-1q-19 0 -30 -13.5t-11 -31.5t11.5 -30.5t30.5 -12.5q21 0 32.5 12t11.5 31q0 18 -12 31.5t-32 13.5z" />
    <glyph glyph-name="uniEFF5" unicode="&#xeff5;" 
d="M83 714h-80q-2 69 20 104t61 35q32 0 66 -20q31 -20 43 -20q13 0 18.5 9t8.5 35h78q2 -73 -19.5 -104.5t-64.5 -31.5q-35 0 -67 18q-31 18 -41 18q-20 0 -23 -43z" />
    <glyph glyph-name="uniEFF7" unicode="&#xeff7;" 
d="M83 836h135l99 -126h-121l-45 59h-2l-44 -59h-121z" />
    <glyph glyph-name="uniF629" unicode="&#xf629;" horiz-adv-x="336" 
d="M239 -3h-75v55q-60 11 -94 49q-34 40 -34 97q0 54 33 97t95 55v53h75v-49q32 -2 53 -9l-17 -88q-21 8 -47 8q-67 0 -67 -61q0 -32 19.5 -48t49.5 -16q28 0 54 8l13 -85q-19 -9 -58 -13v-53z" />
    <glyph glyph-name="uniF62A" unicode="&#xf62a;" horiz-adv-x="368" 
d="M220 -50h-74v53q-72 5 -117 28l21 90q60 -28 118 -28q51 0 51 23q0 11 -12.5 18t-52.5 19q-63 19 -92.5 43.5t-29.5 69.5q0 43 30 74t84 41v53h75v-48q58 -1 99 -20l-21 -88q-56 23 -101 23t-45 -21q0 -11 14.5 -19t61.5 -21q61 -17 86.5 -43.5t25.5 -70.5t-32 -75.5
t-89 -41.5v-59z" />
    <glyph glyph-name="uniF62B" unicode="&#xf62b;" horiz-adv-x="213" 
d="M18 228h177v-82h-177v82z" />
    <glyph glyph-name="uniF62C" unicode="&#xf62c;" horiz-adv-x="215" 
d="M108 426h86q-53 -113 -53 -237q0 -123 53 -238h-86q-66 101 -66 238t66 237z" />
    <glyph glyph-name="uniF62D" unicode="&#xf62d;" horiz-adv-x="215" 
d="M107 -49h-86q53 119 53 238q0 127 -53 237h86q66 -101 66 -238q0 -131 -66 -237z" />
    <glyph glyph-name="uniF62E" unicode="&#xf62e;" horiz-adv-x="336" 
d="M239 263h-75v55q-60 11 -94 49q-34 40 -34 97q0 54 33 97t95 55v53h75v-49q32 -2 53 -9l-17 -88q-21 8 -47 8q-67 0 -67 -61q0 -32 19.5 -48t49.5 -16q28 0 54 8l13 -85q-19 -9 -58 -13v-53z" />
    <glyph glyph-name="uniF62F" unicode="&#xf62f;" horiz-adv-x="368" 
d="M220 216h-74v53q-72 5 -117 28l21 90q60 -28 118 -28q51 0 51 23q0 11 -12.5 18t-52.5 19q-63 19 -92.5 43.5t-29.5 69.5q0 43 30 74t84 41v53h75v-48q58 -1 99 -20l-21 -88q-56 23 -101 23t-45 -21q0 -11 14.5 -19t61.5 -21q61 -17 86.5 -43.5t25.5 -70.5t-32 -75.5
t-89 -41.5v-59z" />
    <glyph glyph-name="uniF630" unicode="&#xf630;" horiz-adv-x="213" 
d="M18 494h177v-82h-177v82z" />
    <glyph glyph-name="uniF631" unicode="&#xf631;" horiz-adv-x="215" 
d="M108 692h86q-53 -113 -53 -237q0 -123 53 -238h-86q-66 101 -66 238t66 237z" />
    <glyph glyph-name="uniF632" unicode="&#xf632;" horiz-adv-x="215" 
d="M107 217h-86q53 119 53 238q0 127 -53 237h86q66 -101 66 -238q0 -131 -66 -237z" />
    <glyph glyph-name="uniF633" unicode="&#xf633;" horiz-adv-x="784" 
d="M440 341l12 86q-12 3 -23 3q-42 0 -70.5 -37t-28.5 -88q0 -55 42 -55q22 0 42 25.5t26 65.5zM537 87l18 -64q-81 -34 -185 -34q-130 0 -223 87t-93 229q0 157 106.5 268.5t271.5 111.5q133 0 220 -82t87 -208q0 -107 -54.5 -172.5t-140.5 -65.5q-79 0 -91 73h-2
q-45 -73 -123 -73q-51 0 -82.5 36t-31.5 97q0 95 63.5 162.5t168.5 67.5q79 0 124 -26l-28 -187q-6 -37 -0.5 -55.5t24.5 -19.5q34 -2 62.5 40.5t28.5 121.5q0 97 -62.5 160t-174.5 63q-116 0 -198.5 -83t-82.5 -218q0 -123 70 -190.5t185 -67.5q82 0 143 29z" />
    <glyph glyph-name="uniF634" unicode="&#xf634;" 
d="M76 -250l-25 75q25 6 43.5 21.5t18.5 37.5t-27 59l123 19q39 -29 39 -81q0 -63 -47 -96t-125 -35z" />
    <glyph glyph-name="uniF638" unicode="&#xf638;" horiz-adv-x="573" 
d="M203 271l140 217q-15 37 -56 37t-63.5 -51t-22.5 -149q0 -32 2 -54zM371 385l-142 -225q19 -36 57 -36q39 0 62.5 50t23.5 151q0 7 -0.5 26t-0.5 34zM540 637l-55 -79q57 -88 57 -232q0 -151 -65 -244t-190 -93q-87 0 -148 48l-41 -59l-64 48l51 72q-54 88 -54 226
q0 147 63.5 242t192.5 95q86 0 143 -44l44 66z" />
    <glyph glyph-name="uniF639" unicode="&#xf639;" horiz-adv-x="573" 
d="M287 -11h-1q-67 0 -118 28t-80 76t-43 106t-14 125q0 68 14.5 127t44.5 107t80.5 75.5t116.5 27.5q68 0 119.5 -28.5t80 -77.5t42 -106t13.5 -123q0 -151 -65 -244t-190 -93zM287 124h1q74 0 74 201q0 200 -75 200q-76 0 -76 -200q-1 -201 76 -201z" />
    <glyph glyph-name="uniF63A" unicode="&#xf63a;" horiz-adv-x="513" 
d="M484 0h-481v109l90 79q108 93 153.5 147t46.5 101q0 37 -24.5 59t-72.5 22q-66 0 -139 -53l-49 129q92 68 224 68q113 0 177 -56.5t64 -153.5q0 -127 -151 -251l-64 -50v-2h226v-148z" />
    <glyph glyph-name="uniF63B" unicode="&#xf63b;" horiz-adv-x="519" 
d="M6 35l34 135q78 -39 155 -39q49 0 77.5 17.5t28.5 51.5q0 38 -33 58t-81 20h-68v128h64q40 0 71 14t31 45q0 25 -23 40t-64 15q-70 0 -139 -37l-34 129q33 20 91.5 34.5t122.5 14.5q105 0 167 -46.5t62 -118.5q0 -108 -119 -150v-2q60 -10 99.5 -52t39.5 -102
q0 -90 -76 -145.5t-202 -55.5q-129 0 -204 46z" />
    <glyph glyph-name="uniF63C" unicode="&#xf63c;" horiz-adv-x="564" 
d="M471 0h-170v146h-282v117l226 387h226v-370h72v-134h-72v-146zM183 280h118v111q0 15 5 130h-4q-58 -122 -63 -131l-55 -108z" />
    <glyph glyph-name="uniF63D" unicode="&#xf63d;" horiz-adv-x="526" 
d="M462 650v-148h-254l-9 -70q14 2 37 2q116 0 185 -52q73 -55 73 -162q0 -95 -79.5 -163t-215.5 -68q-117 0 -189 36l30 135q64 -31 149 -31q48 0 84 19.5t36 61.5q0 92 -181 92q-45 0 -87 -6l43 354h378z" />
    <glyph glyph-name="uniF63E" unicode="&#xf63e;" horiz-adv-x="573" 
d="M475 658v-137q-24 1 -57 0q-172 -8 -205 -123h3q48 41 129 41q84 0 143.5 -56.5t59.5 -156.5t-71 -168.5t-178 -68.5q-133 0 -201.5 83t-68.5 204q0 88 31 163t86 125q106 92 268 95q24 2 61 -1zM296 120h1q32 0 50.5 27.5t18.5 69.5q0 39 -20 67.5t-60 28.5
q-25 0 -45 -13.5t-29 -34.5q-5 -10 -5 -38q3 -45 25.5 -76t63.5 -31z" />
    <glyph glyph-name="uniF63F" unicode="&#xf63f;" horiz-adv-x="486" 
d="M5 650h480v-112l-261 -538h-192l262 500v2h-289v148z" />
    <glyph glyph-name="uniF640" unicode="&#xf640;" horiz-adv-x="573" 
d="M290 661h1q114 0 171 -51.5t57 -118.5q0 -43 -23.5 -80.5t-66.5 -59.5v-2q48 -18 81.5 -58.5t33.5 -100.5q0 -91 -70.5 -146t-191.5 -55q-124 0 -188 55t-64 127q0 110 110 159v2q-90 50 -90 142q0 84 68 135.5t172 51.5zM288 111h1q31 0 51 19t20 48q0 34 -23.5 58
t-60.5 33q-29 -7 -45.5 -28.5t-16.5 -51.5q0 -31 21 -54.5t53 -23.5zM285 541h-1q-31 0 -47.5 -18t-16.5 -45q0 -24 22 -43.5t56 -30.5q20 5 36 24.5t16 42.5q0 29 -16.5 49.5t-48.5 20.5z" />
    <glyph glyph-name="uniF641" unicode="&#xf641;" horiz-adv-x="573" 
d="M87 -8v138q23 -2 64 -1q74 2 125 30q61 35 80 98l-2 1q-40 -37 -121 -37q-85 0 -146 54.5t-61 149.5q0 99 72.5 167.5t182.5 68.5q128 0 193.5 -81.5t65.5 -200.5q0 -195 -114 -297q-99 -89 -275 -92q-19 -1 -64 2zM277 531h-1q-31 0 -51.5 -26t-19.5 -68q0 -38 19.5 -64
t58.5 -26q47 0 66 31q7 14 7 41q1 45 -18.5 78.5t-60.5 33.5z" />
    <glyph glyph-name="uniF642" unicode="&#xf642;" horiz-adv-x="923" 
d="M209 622h1q87 0 136 -55t49 -138q0 -97 -56 -152.5t-135 -55.5q-81 0 -134 54.5t-53 141.5t52 146t140 59zM207 526h-1q-57 0 -57 -105q0 -104 59 -104q55 0 55 104q0 105 -56 105zM333 -11h-92l348 633h93zM720 391h1q87 0 136 -55t49 -138q0 -97 -56 -152.5t-135 -55.5
q-81 0 -134.5 54.5t-53.5 142.5q0 86 52.5 145t140.5 59zM718 295h-1q-58 0 -58 -105q0 -48 15.5 -76t44.5 -28q55 0 55 105q0 104 -56 104z" />
    <glyph glyph-name="uniF643" unicode="&#xf643;" horiz-adv-x="575" 
d="M288 -11h-2q-124 0 -191 75.5t-67 181.5t67.5 181.5t192.5 75.5q124 0 191.5 -75.5t67.5 -181.5q0 -68 -27 -125t-87.5 -94.5t-144.5 -37.5zM288 119h1q41 0 64 33t23 94t-23 94t-65 33t-65.5 -33t-23.5 -94t23.5 -94t65.5 -33z" />
    <glyph glyph-name="uniF644" unicode="&#xf644;" horiz-adv-x="575" 
d="M434 0h-174v341h-2l-167 -63l-22 132l221 82h144v-492z" />
    <glyph glyph-name="uniF645" unicode="&#xf645;" horiz-adv-x="575" 
d="M502 0h-444v97l66 41q89 54 126 90t37 72q0 63 -80 63q-56 0 -109 -30l-40 115q87 56 203 56q98 0 153 -45.5t55 -122.5q0 -103 -125 -183l-39 -23v-3q64 11 116 11h81v-138z" />
    <glyph glyph-name="uniF646" unicode="&#xf646;" horiz-adv-x="575" 
d="M58 -106l19 130q48 -17 120 -17q51 0 82 17t31 50q0 29 -30 45.5t-82 16.5q-21 0 -55 -2v125l31 2q122 9 122 57t-76 48q-61 0 -127 -33l-30 118q76 52 200 52q95 0 154 -41t59 -111q0 -49 -35 -88t-86 -50v-2q62 -10 102 -47t40 -95q0 -91 -82.5 -145t-197.5 -54
q-104 0 -159 24z" />
    <glyph glyph-name="uniF647" unicode="&#xf647;" horiz-adv-x="575" 
d="M547 23h-72v-151h-167v151h-282v116l223 353h226v-339h72v-130zM308 153v98q0 69 4 120h-5q-33 -71 -66 -125l-54 -88l2 -5h119z" />
    <glyph glyph-name="uniF648" unicode="&#xf648;" horiz-adv-x="575" 
d="M66 -109l19 124q44 -12 109 -12q50 0 83 19.5t33 53.5q0 27 -17 43q-19 19 -64 27.5t-142 7.5l54 338h344l-19 -145h-209l-13 -73q141 -5 204 -65q48 -48 48 -121q0 -94 -73 -156t-209 -62q-87 0 -148 21z" />
    <glyph glyph-name="uniF649" unicode="&#xf649;" horiz-adv-x="575" 
d="M483 620l10 -127q-119 -3 -183 -36t-79 -78l2 -1q44 36 111 36q85 0 141 -52t56 -143q0 -97 -73.5 -163.5t-179.5 -66.5q-117 0 -184.5 72.5t-67.5 191.5q0 164 119.5 266t327.5 101zM291 121h1q28 0 49 23t21 66q0 39 -20.5 64t-52.5 25q-41 0 -68 -33q-9 -10 -9 -38
q0 -51 20.5 -79t58.5 -28z" />
    <glyph glyph-name="uniF64A" unicode="&#xf64a;" horiz-adv-x="575" 
d="M509 492v-108q-45 -112 -119 -256.5t-146 -255.5l-174 19q176 263 255 452v2h-268v147h452z" />
    <glyph glyph-name="uniF64B" unicode="&#xf64b;" horiz-adv-x="575" 
d="M431 333v-5q111 -50 111 -145q0 -86 -73 -140t-189 -54q-112 0 -180 49.5t-68 128.5q0 48 28 86t77 60v5q-85 45 -85 125q0 79 65 129t176 50q109 0 167 -47.5t58 -112.5q0 -84 -87 -129zM292 513q-31 0 -47.5 -17.5t-16.5 -42.5q0 -24 21.5 -44.5t58.5 -30.5
q20 8 34.5 27t14.5 42q0 30 -19 48t-46 18zM285 108h1q30 0 49.5 18.5t19.5 45.5q0 30 -24 54t-62 34q-27 -9 -42.5 -30.5t-15.5 -48.5q0 -30 21 -51.5t53 -21.5z" />
    <glyph glyph-name="uniF64C" unicode="&#xf64c;" horiz-adv-x="575" 
d="M82 -123l-10 126q120 4 183.5 34t86.5 86l-2 1q-44 -38 -118 -38q-85 0 -139 55t-54 138q0 100 73.5 165t183.5 65q115 0 182 -75.5t67 -188.5q0 -98 -37.5 -172t-102 -116t-143.5 -62t-170 -18zM282 203h1q17 0 35.5 9.5t28.5 25.5q9 12 9 43q0 41 -20.5 67.5
t-54.5 26.5q-31 0 -52 -23t-21 -64q0 -39 20.5 -62t53.5 -23z" />
    <glyph glyph-name="uniF64E" unicode="&#xf64e;" horiz-adv-x="575" 
d="M511 141l15 -119q-57 -33 -151 -33q-124 0 -198 77q-46 44 -64 111h-68v77h55q0 5 -0.5 12t-0.5 8q0 13 1 20h-54v76h67q16 59 64 110q82 80 211 80q76 0 136 -25l-32 -120q-39 17 -87 17q-61 0 -96 -35q-9 -9 -18 -27h190v-76h-210q-1 -8 -1 -19q0 -3 0.5 -9.5
t0.5 -11.5h210v-77h-189q8 -14 17 -23q33 -34 98 -34q66 0 104 21z" />
    <glyph glyph-name="uniF64F" unicode="&#xf64f;" horiz-adv-x="575" 
d="M117 250v104h85l6 50q2 21 7 43.5t21 55.5t39 58t65 43t96 18q57 0 88 -17l-27 -126q-18 8 -45 8q-60 0 -69 -69l-8 -64h97v-104h-109l-21 -161q-6 -49 -18 -85t-34.5 -68.5t-61.5 -49t-94 -16.5q-65 0 -97 17l24 124q17 -5 43 -7q34 1 48 25t25 111l13 110h-73z" />
    <glyph glyph-name="uniF650" unicode="&#xf650;" horiz-adv-x="575" 
d="M243 250h85l15 98h-86zM202 -10h-103l23 153h-81v107h100l15 98h-84v107h100l22 148h101l-22 -148h87l22 148h102l-22 -148h79v-107h-96l-15 -98h81v-107h-99l-22 -153h-103l23 153h-86z" />
    <glyph glyph-name="uniF651" unicode="&#xf651;" horiz-adv-x="575" 
d="M530 0h-473v94q46 18 75.5 49t29.5 70q0 14 -1 21h-91v96h71q-4 16 -4 39q0 91 64 153t177 62q77 0 121 -24l-26 -130q-32 17 -83 17q-42 0 -64 -23t-22 -59q0 -24 3 -35h140v-96h-124q0 -1 -0.5 -3.5t-0.5 -4.5q-6 -51 -51 -84v-2h259v-140z" />
    <glyph glyph-name="uniF652" unicode="&#xf652;" horiz-adv-x="575" 
d="M367 0h-169v100h-149v81h149v48h-149v81h112l-145 238h185l44 -113q32 -78 43 -109h1l22.5 57l20.5 52l45 113h180l-151 -238h112v-81h-151v-48h151v-81h-151v-100z" />
    <glyph glyph-name="uniF653" unicode="&#xf653;" horiz-adv-x="575" 
d="M337 -91h-102v87q-100 5 -169 47l35 118q27 -16 71.5 -28.5t79.5 -12.5q65 0 65 27q0 12 -15 22t-62 25q-88 27 -124.5 62t-36.5 90q0 54 42.5 91.5t118.5 51.5v96h102v-90q86 -4 141 -33l-34 -115q-59 32 -126 32q-63 0 -63 -25q0 -13 15 -22t69 -26q90 -26 126.5 -62
t36.5 -90t-44 -96.5t-126 -56.5v-92z" />
    <glyph glyph-name="uniF654" unicode="&#xf654;" horiz-adv-x="575" 
d="M439 164l18 -112q-41 -15 -92 -17v-74h-100v77q-85 13 -136.5 68.5t-51.5 139.5q0 79 49.5 139t138.5 77v75h100v-70q41 -2 86 -14l-23 -114q-29 13 -77 13q-50 0 -79 -26.5t-29 -73.5q0 -50 31 -75t79 -25q51 0 86 12z" />
    <glyph glyph-name="uniF655" unicode="&#xf655;" horiz-adv-x="396" 
d="M198 -5h-1q-89 0 -133 57.5t-44 143.5q0 84 43 141.5t133 57.5q89 0 134.5 -57.5t45.5 -144.5q0 -81 -44 -139.5t-134 -58.5zM198 85h1q47 0 47 109q0 111 -49 111q-47 0 -47 -111q0 -109 48 -109z" />
    <glyph glyph-name="uniF656" unicode="&#xf656;" horiz-adv-x="324" 
d="M260 0h-138v280h-1l-83 -35l-17 96l120 49h119v-390z" />
    <glyph glyph-name="uniF657" unicode="&#xf657;" horiz-adv-x="369" 
d="M17 0v65l61 53l23 20l21 18l17.5 15.5t15.5 15l12 13t10.5 13t7 12t4.5 12.5t1 13q0 18 -14 28.5t-37 10.5q-47 0 -87 -26l-35 89q65 43 156 43q75 0 118 -34t43 -90q0 -33 -18 -63t-36 -46.5t-53 -43.5l-21 -16v-2h135v-100h-324z" />
    <glyph glyph-name="uniF658" unicode="&#xf658;" horiz-adv-x="366" 
d="M48 279l-24 84q55 32 151 32q73 0 113.5 -28t40.5 -72q0 -64 -85 -89v-2q43 -4 71.5 -28t28.5 -62q0 -54 -52.5 -86.5t-138.5 -32.5q-92 0 -143 28l25 90q48 -26 100 -26q27 0 45.5 9t18.5 27q0 19 -23 30t-55 11h-32v78h29q71 0 71 32q0 29 -48 29q-47 0 -93 -24z" />
    <glyph glyph-name="uniF659" unicode="&#xf659;" horiz-adv-x="413" 
d="M341 0h-126v85h-194v73l161 236h159v-224h50v-85h-50v-85zM215 170v55q0 11 5 79h-3q-25 -50 -37 -70l-38 -63l3 -1h70z" />
    <glyph glyph-name="uniF65A" unicode="&#xf65a;" horiz-adv-x="365" 
d="M313 390v-98h-164l-5 -33q6 1 24 1q81 0 122 -31q45 -32 45 -95q0 -60 -51 -99.5t-138 -39.5q-76 0 -124 21l19 90q45 -19 98 -19q27 0 48.5 9.5t21.5 32.5q0 48 -113 48q-8 0 -56 -3l27 216h246z" />
    <glyph glyph-name="uniF65B" unicode="&#xf65b;" horiz-adv-x="376" 
d="M307 393v-91q-16 4 -36 2q-103 -1 -127 -59l2 -1q35 21 82 21q57 0 92.5 -33.5t35.5 -91.5q0 -67 -48.5 -106t-112.5 -39q-87 0 -130.5 51.5t-43.5 122.5q0 105 70 167q64 57 177 58q20 1 39 -1zM192 84h1q17 0 28.5 14.5t11.5 34.5q0 52 -48 52q-33 0 -43 -29
q-2 -10 -2 -19q0 -20 14 -36.5t38 -16.5z" />
    <glyph glyph-name="uniF65C" unicode="&#xf65c;" horiz-adv-x="350" 
d="M25 390h309v-74l-162 -316h-132l164 291v1h-179v98z" />
    <glyph glyph-name="uniF65D" unicode="&#xf65d;" horiz-adv-x="375" 
d="M188 395h1q71 0 108.5 -31t37.5 -72q0 -27 -15.5 -48.5t-40.5 -33.5v-1q73 -27 73 -93q0 -53 -44.5 -87t-124.5 -34q-81 0 -120.5 34t-39.5 75q0 62 71 90v2q-59 30 -59 85q0 51 43.5 82.5t109.5 31.5zM188 77h1q16 0 27.5 9.5t11.5 24.5q0 35 -47 47q-36 -14 -36 -42
q0 -15 12.5 -27t30.5 -12zM185 315h-1q-17 0 -26.5 -9t-9.5 -23q0 -26 46 -41q12 3 20.5 13t8.5 23q0 16 -10.5 26.5t-27.5 10.5z" />
    <glyph glyph-name="uniF65E" unicode="&#xf65e;" horiz-adv-x="372" 
d="M58 -3v91q20 -4 37 -2q48 0 81 14q41 20 51 51l-2 1q-26 -20 -73 -20q-53 0 -92 31.5t-39 90.5q0 60 46.5 100.5t114.5 40.5q85 0 127 -51t42 -119q0 -114 -68 -173q-64 -55 -189 -57q-20 0 -36 2zM184 306h-1q-16 0 -28 -13t-12 -33t11 -34.5t34 -14.5q27 0 37 18
q4 7 4 23q0 22 -11 38t-34 16z" />
    <glyph glyph-name="uniF65F" unicode="&#xf65f;" horiz-adv-x="189" 
d="M75 -59l-86 -6q37 104 52 198l128 5q-37 -107 -94 -197z" />
    <glyph glyph-name="uniF660" unicode="&#xf660;" horiz-adv-x="189" 
d="M95 -5h-1q-32 0 -52 20t-20 52t20.5 52t52.5 20q33 0 53 -20t20 -52t-20.5 -52t-52.5 -20z" />
    <glyph glyph-name="uniF661" unicode="&#xf661;" horiz-adv-x="396" 
d="M198 261h-1q-89 0 -133 57.5t-44 143.5q0 84 43 141.5t133 57.5q89 0 134.5 -57.5t45.5 -144.5q0 -81 -44 -139.5t-134 -58.5zM198 351h1q47 0 47 109q0 111 -49 111q-47 0 -47 -111q0 -109 48 -109z" />
    <glyph glyph-name="uniF662" unicode="&#xf662;" horiz-adv-x="324" 
d="M260 266h-138v280h-1l-83 -35l-17 96l120 49h119v-390z" />
    <glyph glyph-name="uniF663" unicode="&#xf663;" horiz-adv-x="369" 
d="M17 266v65l61 53l23 20l21 18l17.5 15.5t15.5 15l12 13t10.5 13t7 12t4.5 12.5t1 13q0 18 -14 28.5t-37 10.5q-47 0 -87 -26l-35 89q64 43 156 43q75 0 118 -34t43 -90q0 -33 -18 -63t-36 -46.5t-53 -43.5l-21 -16v-2h135v-100h-324z" />
    <glyph glyph-name="uniF664" unicode="&#xf664;" horiz-adv-x="366" 
d="M48 545l-24 84q55 32 151 32q73 0 113.5 -28t40.5 -72q0 -64 -85 -89v-2q43 -4 71.5 -28t28.5 -62q0 -54 -52.5 -86.5t-138.5 -32.5q-92 0 -143 28l25 90q48 -26 100 -26q27 0 45.5 9t18.5 27q0 19 -23 30t-55 11h-32v78h29q71 0 71 32q0 29 -48 29q-47 0 -93 -24z" />
    <glyph glyph-name="uniF665" unicode="&#xf665;" horiz-adv-x="413" 
d="M341 266h-126v85h-194v73l161 236h159v-224h50v-85h-50v-85zM215 436v55q0 11 5 79h-3q-25 -50 -37 -70l-38 -63l3 -1h70z" />
    <glyph glyph-name="uniF666" unicode="&#xf666;" horiz-adv-x="365" 
d="M313 656v-98h-164l-5 -33q6 1 24 1q81 0 122 -31q45 -32 45 -95q0 -60 -51 -99.5t-138 -39.5q-76 0 -124 21l19 90q45 -19 98 -19q27 0 48.5 9.5t21.5 32.5q0 48 -113 48q-8 0 -56 -3l27 216h246z" />
    <glyph glyph-name="uniF667" unicode="&#xf667;" horiz-adv-x="376" 
d="M307 659v-91q-16 4 -36 2q-103 -1 -127 -59l2 -1q35 21 82 21q57 0 92.5 -33.5t35.5 -91.5q0 -67 -48.5 -106t-112.5 -39q-87 0 -130.5 51.5t-43.5 122.5q0 105 70 167q64 57 177 58q20 1 39 -1zM192 350h1q17 0 28.5 14.5t11.5 34.5q0 52 -48 52q-33 0 -43 -29
q-2 -10 -2 -19q0 -20 14 -36.5t38 -16.5z" />
    <glyph glyph-name="uniF668" unicode="&#xf668;" horiz-adv-x="350" 
d="M25 656h309v-74l-162 -316h-132l164 291v1h-179v98z" />
    <glyph glyph-name="uniF669" unicode="&#xf669;" horiz-adv-x="375" 
d="M188 661h1q71 0 108.5 -31t37.5 -72q0 -27 -15.5 -48.5t-40.5 -33.5v-1q73 -27 73 -93q0 -53 -44.5 -87t-124.5 -34q-81 0 -120.5 34t-39.5 75q0 62 71 90v2q-59 30 -59 85q0 51 43.5 82.5t109.5 31.5zM188 343h1q16 0 27.5 9.5t11.5 24.5q0 35 -47 47q-36 -13 -36 -42
q0 -15 12.5 -27t30.5 -12zM185 581h-1q-17 0 -26.5 -9t-9.5 -23q0 -26 46 -41q12 3 20.5 13t8.5 23q0 16 -10.5 26.5t-27.5 10.5z" />
    <glyph glyph-name="uniF66A" unicode="&#xf66a;" horiz-adv-x="372" 
d="M58 263v91q20 -4 37 -2q48 0 81 14q41 20 51 51l-2 1q-26 -20 -73 -20q-53 0 -92 31.5t-39 90.5q0 60 46.5 100.5t114.5 40.5q85 0 127 -51t42 -119q0 -114 -68 -173q-64 -55 -189 -57q-20 0 -36 2zM184 572h-1q-16 0 -28 -13t-12 -33t11 -34.5t34 -14.5q27 0 37 18
q4 7 4 23q0 22 -11 38t-34 16z" />
    <glyph glyph-name="uniF66B" unicode="&#xf66b;" horiz-adv-x="189" 
d="M75 207l-86 -6q37 104 52 198l128 5q-37 -107 -94 -197z" />
    <glyph glyph-name="uniF66C" unicode="&#xf66c;" horiz-adv-x="189" 
d="M95 261h-1q-32 0 -52 20t-20 52t20.5 52t52.5 20q33 0 53 -20t20 -52t-20.5 -52t-52.5 -20z" />
    <glyph glyph-name="uniF6AE" unicode="&#xf6ae;" horiz-adv-x="328" 
d="M164 727h122q-90 -165 -90 -403q0 -235 90 -402h-122q-107 166 -107 402q1 241 107 403z" />
    <glyph glyph-name="uniF6AF" unicode="&#xf6af;" horiz-adv-x="328" 
d="M163 -78h-122q90 165 90 403q0 237 -90 402h122q107 -164 107 -402q-1 -237 -107 -403z" />
    <glyph glyph-name="uniF6B0" unicode="&#xf6b0;" horiz-adv-x="328" 
d="M276 -75h-213v798h213v-97h-86v-604h86v-97z" />
    <glyph glyph-name="uniF6B1" unicode="&#xf6b1;" horiz-adv-x="328" 
d="M52 723h213v-798h-213v97h86v604h-86v97z" />
    <glyph glyph-name="uniF6B2" unicode="&#xf6b2;" horiz-adv-x="328" 
d="M31 280l1 88q45 3 59 20.5t14 45.5q0 32 -5 75q-5 45 -5 77q0 137 155 137h42v-98h-18q-53 -1 -53 -64q0 -13 4 -51q4 -36 4 -65q1 -58 -21 -84.5t-70 -35.5v-2q48 -9 70 -35t21 -84q0 -29 -4 -67t-4 -49q0 -65 53 -66h18v-97h-42q-155 0 -155 136q0 37 6 77q4 54 4 77
q0 17 -3.5 28.5t-21 23t-49.5 13.5z" />
    <glyph glyph-name="uniF6B3" unicode="&#xf6b3;" horiz-adv-x="328" 
d="M297 368l-1 -88q-45 -3 -59 -21t-14 -44q0 -23 4 -77q5 -45 5 -77q0 -136 -155 -136h-42v97h18q53 1 53 66q0 8 -1.5 25.5t-1.5 23.5q-4 38 -4 67q-1 58 21 84t70 35v2q-48 9 -70 35.5t-21 84.5q0 11 3 65q4 38 4 51q0 63 -53 64h-18v98h42q155 0 155 -137q0 -32 -5 -77
q-4 -52 -4 -75q0 -18 3.5 -29.5t21 -23t49.5 -13.5z" />
    <glyph glyph-name="uniF6B4" unicode="&#xf6b4;" horiz-adv-x="284" 
d="M236 0h-186l26 441h134zM142 686h1q45 0 73.5 -29t28.5 -75q-1 -45 -29 -74t-73 -29q-46 0 -74.5 29t-28.5 74q0 46 28.5 75t73.5 29z" />
    <glyph glyph-name="uniF6B5" unicode="&#xf6b5;" horiz-adv-x="463" 
d="M253 686h1q45 0 73 -29t28 -75q0 -45 -28 -74t-74 -29t-74.5 29t-28.5 74q0 46 28.5 75t74.5 29zM170 445h157v-25q3 -80 -57 -150q-19 -22 -27 -32.5t-17 -27.5t-9 -31q0 -47 62 -48q57 0 99 29l38 -129q-76 -41 -177 -41q-99 0 -151 45.5t-52 113.5q0 37 17 73.5
t29 50.5t40 43q47 51 48 115v14z" />
    <glyph glyph-name="uniF6B6" unicode="&#xf6b6;" horiz-adv-x="484" 
d="M255 521l-113 -193l113 -194h-121l-108 194l108 193h121zM462 521l-113 -193l113 -194h-121l-108 194l108 193h121z" />
    <glyph glyph-name="uniF6B7" unicode="&#xf6b7;" horiz-adv-x="484" 
d="M136 328l-113 193h119l110 -193l-110 -194h-119zM340 328l-113 193h119l110 -193l-110 -194h-119z" />
    <glyph glyph-name="uniF6B8" unicode="&#xf6b8;" horiz-adv-x="277" 
d="M255 521l-113 -193l113 -194h-121l-108 194l108 193h121z" />
    <glyph glyph-name="uniF6B9" unicode="&#xf6b9;" horiz-adv-x="277" 
d="M135 328l-113 193h119l110 -193l-110 -194h-119z" />
    <glyph glyph-name="uniF6BA" unicode="&#xf6ba;" horiz-adv-x="328" 
d="M30 393h268v-117h-268v117z" />
    <glyph glyph-name="uniF6BB" unicode="&#xf6bb;" horiz-adv-x="500" 
d="M30 384h440v-109h-440v109z" />
    <glyph glyph-name="uniF6BC" unicode="&#xf6bc;" horiz-adv-x="1000" 
d="M30 384h940v-109h-940v109z" />
    <glyph glyph-name="uniF6BD" unicode="&#xf6bd;" horiz-adv-x="283" 
d="M142 228h-1q-45 0 -73.5 29.5t-28.5 75.5t29 75.5t74 29.5q46 0 74 -29t29 -76q0 -47 -28.5 -76t-74.5 -29z" />
    <glyph glyph-name="commaaccent" unicode="&#xf6c3;" 
d="M76 -251l-25 75q25 5 43.5 20.5t18.5 38.5q0 22 -27 59l123 19q39 -29 39 -81q0 -63 -47 -96t-125 -35z" />
    <glyph glyph-name="Acute" unicode="&#xf6c9;" 
d="M143 836h183l-120 -126h-144z" />
    <glyph glyph-name="Caron" unicode="&#xf6ca;" 
d="M217 710h-135l-99 126h121l45 -59h2l44 59h121z" />
    <glyph glyph-name="Dieresis" unicode="&#xf6cb;" 
d="M43 709h-1q-32 0 -54.5 22.5t-22.5 54.5t22.5 54t55.5 22q31 0 52.5 -22t21.5 -54t-21.5 -54.5t-52.5 -22.5zM260 709h-1q-32 0 -54 22.5t-22 54.5t22 54t55 22q32 0 53.5 -22t21.5 -54t-22 -54.5t-53 -22.5z" />
    <glyph glyph-name="DieresisAcute" unicode="&#xf6cc;" 
d="M-44 709h-1q-29 0 -50 21t-21 50q0 31 21 51.5t52 20.5q29 0 49 -20.5t20 -51.5q0 -29 -20.5 -50t-49.5 -21zM347 709h-1q-29 0 -49.5 21t-20.5 50q0 31 20.5 51.5t51.5 20.5q30 0 50 -20.5t20 -51.5q0 -29 -20.5 -50t-50.5 -21zM102 840h170l-117 -128h-129z" />
    <glyph glyph-name="DieresisGrave" unicode="&#xf6cd;" 
d="M-44 709h-1q-29 0 -50 21t-21 50q0 31 21 51.5t52 20.5q29 0 49 -20.5t20 -51.5q0 -29 -20.5 -50t-49.5 -21zM346 709h-1q-29 0 -49.5 21t-20.5 50q0 31 20.5 51.5t51.5 20.5q30 0 50 -20.5t20 -51.5q0 -29 -20.5 -50t-50.5 -21zM28 840h170l75 -128h-129z" />
    <glyph glyph-name="Grave" unicode="&#xf6ce;" 
d="M-19 836h183l81 -124h-144z" />
    <glyph glyph-name="Hungarumlaut" unicode="&#xf6cf;" 
d="M53 838h161l-98 -118h-122zM249 838h161l-97 -118h-123z" />
    <glyph glyph-name="Macron" unicode="&#xf6d0;" 
d="M17 827h268v-92h-268v92z" />
    <glyph glyph-name="cyrBreve" unicode="&#xf6d1;" 
d="M-7 851h119q0 -61 37 -61q35 0 41 61h118q-10 -131 -161 -131q-141 0 -154 131z" />
    <glyph glyph-name="cyrFlex" unicode="&#xf6d2;" 
d="M308 720l-118 -1q-2 62 -38 62q-35 0 -40 -62l-119 1q11 131 162 131q69 0 109 -33t44 -98z" />
    <glyph glyph-name="dblGrave" unicode="&#xf6d3;" 
d="M-113 840h172l77 -128h-128zM126 840h171l78 -128h-129z" />
    <glyph glyph-name="cyrbreve" unicode="&#xf6d4;" 
d="M0 695h111q0 -68 38 -68q36 0 41 68h110q-4 -73 -44.5 -110.5t-108.5 -37.5q-139 0 -147 148z" />
    <glyph glyph-name="cyrflex" unicode="&#xf6d5;" 
d="M106 559h-110q4 73 44.5 110.5t108.5 37.5q139 0 147 -148h-111q0 68 -38 68q-36 0 -41 -68z" />
    <glyph glyph-name="dblgrave" unicode="&#xf6d6;" 
d="M-43 705h133l56 -153h-97zM145 705h133l57 -153h-97z" />
    <glyph glyph-name="dieresisacute" unicode="&#xf6d7;" horiz-adv-x="301" 
d="M-17 555h-1q-31 0 -52 21.5t-21 51.5q0 31 21.5 52t53.5 21q30 0 50 -20.5t20 -52.5q0 -30 -20.5 -51.5t-50.5 -21.5zM318 555h-1q-30 0 -50.5 21.5t-20.5 51.5q0 32 21 52.5t52 20.5q32 0 52 -20.5t20 -52.5q0 -31 -21 -52t-52 -21zM111 713h145l-88 -155h-107z" />
    <glyph glyph-name="dieresisgrave" unicode="&#xf6d8;" horiz-adv-x="301" 
d="M-17 555h-1q-31 0 -52 21.5t-21 51.5q0 31 21.5 52t53.5 21q30 0 50 -20.5t20 -52.5q0 -30 -20.5 -51.5t-50.5 -21.5zM318 555h-1q-30 0 -50.5 21.5t-20.5 51.5q0 32 21 52.5t52 20.5q32 0 52 -20.5t20 -52.5q0 -31 -21 -52t-52 -21zM46 713h145l50 -155h-107z" />
    <glyph glyph-name="uniF6DC" unicode="&#xf6dc;" horiz-adv-x="404" 
d="M158 0v491h-2l-128 -58l-29 135l186 82h147v-650h-174z" />
    <glyph glyph-name="centinferior" unicode="&#xf6df;" horiz-adv-x="336" 
d="M239 -150h-75v55q-60 11 -94 49q-34 40 -34 97q0 54 33 97t95 55v53h75v-49q32 -2 53 -9l-17 -88q-21 8 -47 8q-67 0 -67 -61q0 -32 19.5 -48t49.5 -16q28 0 54 8l13 -85q-19 -9 -58 -13v-53z" />
    <glyph glyph-name="centsuperior" unicode="&#xf6e0;" horiz-adv-x="336" 
d="M239 440h-75v55q-60 11 -94 49q-34 40 -34 97q0 54 33 97t95 55v53h75v-49q32 -2 53 -9l-17 -88q-21 8 -47 8q-67 0 -67 -61q0 -32 19.5 -48t49.5 -16q28 0 54 8l13 -85q-19 -9 -58 -13v-53z" />
    <glyph glyph-name="commainferior" unicode="&#xf6e1;" horiz-adv-x="189" 
d="M75 -206l-86 -6q37 104 52 198l128 5q-37 -107 -94 -197z" />
    <glyph glyph-name="commasuperior" unicode="&#xf6e2;" horiz-adv-x="189" 
d="M75 384l-86 -6q37 104 52 198l128 5q-37 -107 -94 -197z" />
    <glyph glyph-name="dollarinferior" unicode="&#xf6e3;" horiz-adv-x="368" 
d="M220 -197h-74v53q-72 5 -117 28l21 90q60 -28 118 -28q51 0 51 23q0 11 -12.5 18t-52.5 19q-63 19 -92.5 43.5t-29.5 69.5q0 43 30 74t84 41v53h75v-48q58 -1 99 -20l-21 -88q-56 23 -101 23t-45 -21q0 -11 14.5 -19t61.5 -21q61 -17 86.5 -43.5t25.5 -70.5t-32 -75.5
t-89 -41.5v-59z" />
    <glyph glyph-name="dollarsuperior" unicode="&#xf6e4;" horiz-adv-x="368" 
d="M220 393h-74v53q-72 5 -117 28l21 90q60 -28 118 -28q51 0 51 23q0 11 -12.5 18t-52.5 19q-63 19 -92.5 43.5t-29.5 69.5q0 43 30 74t84 41v53h75v-48q58 -1 99 -20l-21 -88q-56 23 -101 23t-45 -21q0 -11 14.5 -19t61.5 -21q61 -17 86.5 -43.5t25.5 -70.5t-32 -75.5
t-89 -41.5v-59z" />
    <glyph glyph-name="hypheninferior" unicode="&#xf6e5;" horiz-adv-x="213" 
d="M18 81h177v-82h-177v82z" />
    <glyph glyph-name="hyphensuperior" unicode="&#xf6e6;" horiz-adv-x="213" 
d="M18 671h177v-82h-177v82z" />
    <glyph glyph-name="periodinferior" unicode="&#xf6e7;" horiz-adv-x="189" 
d="M95 -152h-1q-32 0 -52 20t-20 52t20.5 52t52.5 20q33 0 53 -20t20 -52t-20.5 -52t-52.5 -20z" />
    <glyph glyph-name="periodsuperior" unicode="&#xf6e8;" horiz-adv-x="189" 
d="M95 438h-1q-32 0 -52 20t-20 52t20.5 52t52.5 20q33 0 53 -20t20 -52t-20.5 -52t-52.5 -20z" />
    <glyph glyph-name="zerooldstyle" unicode="&#xf730;" horiz-adv-x="575" 
d="M288 -11h-2q-124 0 -191 75.5t-67 181.5t67.5 181.5t192.5 75.5q124 0 191.5 -75.5t67.5 -181.5q0 -68 -27 -125t-87.5 -94.5t-144.5 -37.5zM288 119h1q41 0 64 33t23 94t-23 94t-65 33t-65.5 -33t-23.5 -94t23.5 -94t65.5 -33z" />
    <glyph glyph-name="oneoldstyle" unicode="&#xf731;" horiz-adv-x="434" 
d="M354 0h-174v334h-2l-123 -56l-29 133l184 81h144v-492z" />
    <glyph glyph-name="twooldstyle" unicode="&#xf732;" horiz-adv-x="488" 
d="M466 0h-444v97l66 41q89 54 126 90t37 72q0 63 -80 63q-56 0 -109 -30l-40 115q87 56 203 56q98 0 153 -45.5t55 -122.5q0 -103 -125 -183l-39 -23v-3q64 11 116 11h81v-138z" />
    <glyph glyph-name="threeoldstyle" unicode="&#xf733;" horiz-adv-x="488" 
d="M21 -106l19 130q48 -17 120 -17q51 0 82 17t31 50q0 29 -30 45.5t-82 16.5q-21 0 -55 -2v125l31 2q122 9 122 57t-76 48q-61 0 -127 -33l-30 118q76 52 200 52q95 0 154 -41t59 -111q0 -49 -35 -88t-86 -50v-2q62 -10 102 -47t40 -95q0 -91 -82.5 -145t-197.5 -54
q-104 0 -159 24z" />
    <glyph glyph-name="fouroldstyle" unicode="&#xf734;" horiz-adv-x="566" 
d="M545 23h-72v-151h-167v151h-282v116l223 353h226v-339h72v-130zM306 153v98q0 69 4 120h-5q-33 -71 -66 -125l-54 -88l2 -5h119z" />
    <glyph glyph-name="fiveoldstyle" unicode="&#xf735;" horiz-adv-x="476" 
d="M18 -109l19 124q44 -12 109 -12q50 0 83 19.5t33 53.5q0 27 -17 43q-19 19 -64 27.5t-142 7.5l54 338h344l-19 -145h-209l-13 -73q141 -5 204 -65q48 -48 48 -121q0 -94 -73 -156t-209 -62q-87 0 -148 21z" />
    <glyph glyph-name="sixoldstyle" unicode="&#xf736;" horiz-adv-x="563" 
d="M476 620l10 -127q-119 -3 -183 -36t-79 -78l2 -1q44 36 111 36q85 0 141 -52t56 -143q0 -97 -73.5 -163.5t-179.5 -66.5q-117 0 -184.5 72.5t-67.5 191.5q0 164 119.5 266t327.5 101zM284 121h1q28 0 49 23t21 66q0 39 -20.5 64t-52.5 25q-41 0 -68 -33q-9 -10 -9 -38
q0 -51 20.5 -79t58.5 -28z" />
    <glyph glyph-name="sevenoldstyle" unicode="&#xf737;" horiz-adv-x="496" 
d="M470 492v-108q-45 -112 -119 -256.5t-146 -255.5l-174 19q176 263 255 452v2h-268v147h452z" />
    <glyph glyph-name="eightoldstyle" unicode="&#xf738;" horiz-adv-x="569" 
d="M428 333v-5q111 -50 111 -145q0 -86 -73 -140t-189 -54q-112 0 -180 49.5t-68 128.5q0 48 28 86t77 60v5q-85 45 -85 125q0 79 65 129t176 50q109 0 167 -47.5t58 -112.5q0 -84 -87 -129zM289 513q-31 0 -47.5 -17.5t-16.5 -42.5q0 -24 21.5 -44.5t58.5 -30.5
q20 8 34.5 27t14.5 42q0 30 -19 48t-46 18zM282 108h1q30 0 49.5 18.5t19.5 45.5q0 30 -24 54t-62 34q-27 -9 -42.5 -30.5t-15.5 -48.5q0 -30 21 -51.5t53 -21.5z" />
    <glyph glyph-name="nineoldstyle" unicode="&#xf739;" horiz-adv-x="563" 
d="M81 -123l-10 126q120 4 183.5 34t86.5 86l-2 1q-44 -38 -118 -38q-85 0 -139 55t-54 138q0 100 73.5 165t183.5 65q115 0 182 -75.5t67 -188.5q0 -98 -37.5 -172t-102 -116t-143.5 -62t-170 -18zM281 203h1q18 0 36 9.5t28 25.5q9 12 9 43q0 41 -20.5 67.5t-54.5 26.5
q-31 0 -52 -23t-21 -64q0 -39 20.5 -62t53.5 -23z" />
    </font>
</defs>
</svg>
